<svg width="529" height="495" viewBox="0 0 529 495" fill="none" xmlns="http://www.w3.org/2000/svg">
<path fill-rule="evenodd" clip-rule="evenodd" d="M264.5 123.037C306.105 123.037 339.832 158.036 339.832 201.209V295.014C339.832 338.187 306.105 373.186 264.5 373.186C222.895 373.186 189.168 338.187 189.168 295.014V201.209C189.168 158.036 222.895 123.037 264.5 123.037Z" fill="url(#paint0_linear_51_5062)"/>
<mask id="mask0_51_5062" style="mask-type:luminance" maskUnits="userSpaceOnUse" x="189" y="123" width="151" height="251">
<path fill-rule="evenodd" clip-rule="evenodd" d="M264.5 123.037C306.105 123.037 339.832 158.036 339.832 201.209V295.014C339.832 338.187 306.105 373.186 264.5 373.186C222.895 373.186 189.168 338.187 189.168 295.014V201.209C189.168 158.036 222.895 123.037 264.5 123.037Z" fill="white"/>
</mask>
<g mask="url(#mask0_51_5062)">
<path opacity="0.4" fill-rule="evenodd" clip-rule="evenodd" d="M229.055 276.306L183.476 288.999V278.592C183.476 278.592 190.922 282.058 195.491 281.069C200.061 280.079 201.517 274.963 207.229 273.543C212.486 272.237 218.702 275.465 228.007 275.661L229.055 276.306Z" fill="#0053A6"/>
<path fill-rule="evenodd" clip-rule="evenodd" d="M251.783 263.394L262.461 260.416C271.146 257.992 272.963 264.117 272.963 264.117L253.59 269.498L244.545 284.442L239.976 285.549L242.854 272.48L226.464 277.033L219.787 268.477C219.787 268.477 221.057 267.965 222.953 268.187C224.848 268.409 227.234 270.243 227.234 270.243L241.438 266.28L232.654 256.739L237.327 255.408L251.783 263.394Z" fill="#0053A6"/>
<path opacity="0.4" fill-rule="evenodd" clip-rule="evenodd" d="M242.183 233.029L179.123 251.043V236.274C179.123 236.274 187.411 242.235 195.747 239.788C204.083 237.341 204.083 231.123 211.987 229.108C219.26 227.255 228.245 233.461 240.733 232.113L242.183 233.029Z" fill="white"/>
<path fill-rule="evenodd" clip-rule="evenodd" d="M249.568 203.194L263.623 218.462L279.581 213.94L256.538 201.209L249.568 203.194Z" fill="#CBDCEB"/>
<path fill-rule="evenodd" clip-rule="evenodd" d="M230.377 220.701L240.336 233.461L309.687 214.198C309.687 214.198 306.978 205.063 294.023 208.678L241.484 223.334C241.484 223.334 237.926 220.599 235.099 220.268C232.272 219.938 230.377 220.701 230.377 220.701Z" fill="white"/>
<path fill-rule="evenodd" clip-rule="evenodd" d="M265.915 223.661L260.488 248.303L267.302 246.652L284.365 218.462L265.915 223.661Z" fill="url(#paint1_linear_51_5062)"/>
<path fill-rule="evenodd" clip-rule="evenodd" d="M279.738 181.431C279.631 181.684 279.356 182.862 279.861 183.457C280.366 184.052 281.433 183.716 281.433 183.716L320.085 172.006C320.085 172.006 321.223 171.678 321.386 170.825C321.55 169.971 321.047 169.411 320.566 168.917C317.289 165.55 313.762 164.213 309.985 164.906C305.276 165.77 303.169 168.28 302.029 169.637C301.597 170.152 301.304 170.501 301.061 170.531C300.87 170.554 300.535 170.513 300.099 170.46C298.518 170.265 295.598 169.906 293.322 171.863C291.296 173.606 290.84 175.377 290.558 176.471C290.436 176.945 290.346 177.293 290.176 177.456C289.968 177.656 289.385 177.558 288.585 177.423C287.224 177.194 285.231 176.859 283.379 177.707C281.672 178.488 280.458 179.729 279.738 181.431ZM179.31 332.942C178.942 332.486 179.216 331.732 179.31 331.494C179.944 329.894 181.012 328.727 182.513 327.993C184.143 327.196 185.896 327.511 187.094 327.726C187.798 327.853 188.31 327.945 188.493 327.757C188.643 327.604 188.722 327.277 188.829 326.832C189.077 325.803 189.479 324.138 191.262 322.5C193.038 320.868 195.604 321.058 197.277 321.183H197.277C198.011 321.237 198.573 321.279 198.822 321.149C199.035 321.037 199.363 320.664 199.802 320.164C201.047 318.746 203.186 316.31 206.138 315.942C210.132 315.443 212.714 317.354 213.938 318.349C215.162 319.343 216.064 320.84 215.941 321.581C215.818 322.321 214.903 322.638 214.903 322.638L180.387 333.136C180.387 333.136 179.677 333.398 179.31 332.942ZM281.396 350.286C281.101 349.833 281.299 349.062 281.396 348.828C282.049 347.255 283.148 346.108 284.695 345.386C286.373 344.603 288.179 344.913 289.413 345.124C290.138 345.249 290.665 345.339 290.854 345.154C290.988 345.023 290.894 344.696 290.759 344.225C290.38 342.902 289.676 340.447 292.791 338.035C296.133 335.447 302.403 337.018 305.271 337.736C306.027 337.926 306.547 338.056 306.714 338.035C306.935 338.007 306.983 337.733 307.053 337.327C307.239 336.26 307.582 334.282 311.63 333.459C317.219 332.322 322.001 335.795 322.515 336.377C323.029 336.958 323.197 337.375 323.029 337.985C322.862 338.596 321.936 338.891 321.936 338.891L282.436 350.545C282.436 350.545 281.69 350.738 281.396 350.286Z" fill="#0053A6"/>
<path fill-rule="evenodd" clip-rule="evenodd" d="M283.147 161.572C283.002 161.918 282.629 163.533 283.315 164.349C284.001 165.164 285.45 164.705 285.45 164.705L337.965 148.649C337.965 148.649 339.512 148.199 339.733 147.029C339.955 145.86 339.273 145.092 338.619 144.414C334.167 139.798 329.375 137.965 324.243 138.915C317.845 140.1 314.982 143.54 313.434 145.401C312.846 146.107 312.448 146.586 312.118 146.627C311.859 146.659 311.404 146.603 310.811 146.529C308.663 146.262 304.696 145.77 301.604 148.454C298.851 150.843 298.231 153.271 297.848 154.771C297.682 155.421 297.561 155.897 297.329 156.121C297.046 156.395 296.255 156.261 295.168 156.077C293.318 155.763 290.611 155.304 288.094 156.465C285.775 157.536 284.126 159.238 283.147 161.572ZM174.261 316.502C173.694 315.836 174.116 314.736 174.261 314.39C175.24 312.056 176.889 310.354 179.208 309.283C181.725 308.122 184.432 308.581 186.282 308.895C187.369 309.079 188.16 309.213 188.443 308.939C188.675 308.715 188.796 308.239 188.962 307.589C189.345 306.089 189.965 303.661 192.718 301.272C195.461 298.891 199.424 299.169 202.008 299.35C203.141 299.429 204.009 299.49 204.394 299.301C204.723 299.138 205.229 298.594 205.907 297.864L205.907 297.864C207.83 295.796 211.132 292.243 215.692 291.706C221.86 290.979 225.848 293.765 227.738 295.217C229.628 296.668 231.021 298.851 230.831 299.931C230.641 301.011 229.228 301.473 229.228 301.473L175.924 316.785C175.924 316.785 174.828 317.167 174.261 316.502ZM283.147 332.475C282.706 331.804 283.002 330.659 283.147 330.313C284.126 327.979 285.775 326.277 288.094 325.206C290.611 324.045 293.318 324.504 295.168 324.818C296.255 325.002 297.046 325.136 297.33 324.862C297.53 324.668 297.39 324.182 297.187 323.484C296.618 321.522 295.562 317.879 300.233 314.301C305.244 310.461 314.646 312.792 318.947 313.857C320.081 314.139 320.86 314.332 321.11 314.301C321.442 314.259 321.513 313.853 321.619 313.25C321.897 311.667 322.412 308.733 328.481 307.511C336.861 305.824 344.032 310.978 344.803 311.84C345.574 312.703 345.825 313.322 345.574 314.227C345.322 315.132 343.934 315.571 343.934 315.571L284.707 332.86C284.707 332.86 283.588 333.146 283.147 332.475Z" fill="white"/>
</g>
<path fill-rule="evenodd" clip-rule="evenodd" d="M453.668 123.037C495.273 123.037 529 158.036 529 201.209V295.014C529 338.187 495.273 373.186 453.668 373.186C412.063 373.186 378.335 338.187 378.335 295.014V201.209C378.335 158.036 412.063 123.037 453.668 123.037Z" fill="url(#paint2_linear_51_5062)"/>
<mask id="mask1_51_5062" style="mask-type:luminance" maskUnits="userSpaceOnUse" x="378" y="123" width="151" height="251">
<path fill-rule="evenodd" clip-rule="evenodd" d="M453.668 123.037C495.273 123.037 529 158.036 529 201.209V295.014C529 338.187 495.273 373.186 453.668 373.186C412.063 373.186 378.335 338.187 378.335 295.014V201.209C378.335 158.036 412.063 123.037 453.668 123.037Z" fill="white"/>
</mask>
<g mask="url(#mask1_51_5062)">
<path opacity="0.4" fill-rule="evenodd" clip-rule="evenodd" d="M418.223 276.306L372.644 288.999V278.592C372.644 278.592 380.09 282.058 384.659 281.069C389.229 280.079 390.685 274.963 396.397 273.543C401.654 272.237 407.87 275.465 417.175 275.661L418.223 276.306Z" fill="#0053A6"/>
<path fill-rule="evenodd" clip-rule="evenodd" d="M440.951 263.394L451.628 260.416C460.314 257.992 462.131 264.117 462.131 264.117L442.758 269.498L433.712 284.442L429.143 285.549L432.022 272.48L415.631 277.033L408.954 268.477C408.954 268.477 410.225 267.965 412.121 268.187C414.016 268.409 416.401 270.243 416.401 270.243L430.605 266.28L421.822 256.739L426.495 255.408L440.951 263.394Z" fill="#0053A6"/>
<path opacity="0.4" fill-rule="evenodd" clip-rule="evenodd" d="M431.351 233.029L368.291 251.043V236.274C368.291 236.274 376.579 242.235 384.915 239.788C393.251 237.341 393.251 231.123 401.155 229.108C408.427 227.255 417.412 233.461 429.901 232.113L431.351 233.029Z" fill="white"/>
<path fill-rule="evenodd" clip-rule="evenodd" d="M438.736 203.194L452.791 218.462L468.749 213.94L445.706 201.209L438.736 203.194Z" fill="#CBDCEB"/>
<path fill-rule="evenodd" clip-rule="evenodd" d="M419.545 220.701L429.503 233.461L498.854 214.198C498.854 214.198 496.145 205.063 483.191 208.678L430.652 223.334C430.652 223.334 427.094 220.599 424.267 220.268C421.44 219.938 419.545 220.701 419.545 220.701Z" fill="white"/>
<path fill-rule="evenodd" clip-rule="evenodd" d="M455.083 223.661L449.656 248.303L456.47 246.652L473.533 218.462L455.083 223.661Z" fill="url(#paint3_linear_51_5062)"/>
<path fill-rule="evenodd" clip-rule="evenodd" d="M468.905 181.431C468.798 181.684 468.524 182.862 469.029 183.457C469.533 184.052 470.6 183.716 470.6 183.716L509.252 172.006C509.252 172.006 510.391 171.678 510.554 170.825C510.717 169.971 510.215 169.411 509.734 168.917C506.457 165.55 502.93 164.213 499.153 164.906C494.444 165.77 492.336 168.28 491.197 169.637C490.765 170.152 490.472 170.501 490.229 170.531C490.038 170.554 489.703 170.513 489.267 170.46C487.685 170.265 484.766 169.906 482.49 171.863C480.464 173.606 480.008 175.377 479.726 176.471C479.603 176.945 479.514 177.293 479.344 177.456C479.135 177.656 478.553 177.558 477.753 177.423C476.391 177.194 474.399 176.859 472.546 177.707C470.84 178.488 469.626 179.729 468.905 181.431ZM368.477 332.942C368.11 332.486 368.383 331.732 368.477 331.494C369.111 329.894 370.179 328.727 371.681 327.993C373.31 327.196 375.063 327.511 376.262 327.726C376.965 327.853 377.478 327.945 377.661 327.757C377.811 327.604 377.89 327.277 377.997 326.832C378.245 325.803 378.646 324.138 380.429 322.5C382.206 320.868 384.771 321.058 386.445 321.183H386.445C387.179 321.237 387.741 321.279 387.99 321.149C388.203 321.037 388.531 320.664 388.97 320.164C390.215 318.746 392.353 316.31 395.306 315.942C399.3 315.443 401.882 317.354 403.106 318.349C404.33 319.343 405.232 320.84 405.109 321.581C404.986 322.321 404.071 322.638 404.071 322.638L369.555 333.136C369.555 333.136 368.845 333.398 368.477 332.942ZM470.563 350.286C470.269 349.833 470.466 349.062 470.563 348.828C471.216 347.255 472.316 346.108 473.863 345.386C475.541 344.603 477.346 344.913 478.58 345.124C479.305 345.249 479.833 345.339 480.022 345.154C480.156 345.023 480.062 344.696 479.927 344.225C479.547 342.902 478.843 340.447 481.958 338.035C485.3 335.447 491.571 337.018 494.439 337.736C495.195 337.926 495.715 338.056 495.882 338.035C496.103 338.007 496.15 337.733 496.221 337.327C496.406 336.26 496.75 334.282 500.797 333.459C506.386 332.322 511.169 335.795 511.683 336.377C512.197 336.958 512.364 337.375 512.197 337.985C512.029 338.596 511.104 338.891 511.104 338.891L471.603 350.545C471.603 350.545 470.857 350.738 470.563 350.286Z" fill="#0053A6"/>
<path fill-rule="evenodd" clip-rule="evenodd" d="M472.315 161.572C472.169 161.918 471.796 163.533 472.482 164.349C473.168 165.164 474.618 164.705 474.618 164.705L527.132 148.649C527.132 148.649 528.679 148.199 528.901 147.029C529.123 145.86 528.441 145.092 527.787 144.414C523.335 139.798 518.543 137.965 513.411 138.915C507.013 140.1 504.15 143.54 502.602 145.401C502.014 146.107 501.616 146.586 501.286 146.627C501.026 146.659 500.572 146.603 499.979 146.529C497.83 146.262 493.864 145.77 490.772 148.454C488.019 150.843 487.399 153.271 487.016 154.771C486.85 155.421 486.728 155.897 486.497 156.121C486.214 156.395 485.423 156.261 484.336 156.077C482.486 155.763 479.778 155.304 477.262 156.465C474.943 157.536 473.294 159.238 472.315 161.572ZM363.429 316.502C362.861 315.836 363.283 314.736 363.429 314.39C364.408 312.056 366.057 310.354 368.376 309.283C370.892 308.122 373.6 308.581 375.45 308.895C376.537 309.079 377.328 309.213 377.611 308.939C377.843 308.715 377.964 308.239 378.13 307.589C378.513 306.089 379.133 303.661 381.886 301.272C384.629 298.891 388.592 299.169 391.176 299.35C392.309 299.429 393.177 299.49 393.562 299.301C393.891 299.138 394.397 298.594 395.075 297.864L395.075 297.864C396.997 295.796 400.3 292.243 404.86 291.706C411.028 290.979 415.015 293.765 416.906 295.217C418.796 296.668 420.189 298.851 419.999 299.931C419.809 301.011 418.396 301.473 418.396 301.473L365.092 316.785C365.092 316.785 363.996 317.167 363.429 316.502ZM472.315 332.475C471.874 331.804 472.169 330.659 472.315 330.313C473.294 327.979 474.943 326.277 477.262 325.206C479.778 324.045 482.486 324.504 484.336 324.818C485.423 325.002 486.214 325.136 486.497 324.862C486.698 324.668 486.557 324.182 486.355 323.484C485.786 321.522 484.73 317.879 489.401 314.301C494.412 310.461 503.814 312.792 508.114 313.857C509.248 314.139 510.028 314.332 510.278 314.301C510.609 314.259 510.681 313.853 510.787 313.25C511.065 311.667 511.58 308.733 517.648 307.511C526.029 305.824 533.2 310.978 533.971 311.84C534.741 312.703 534.992 313.322 534.741 314.227C534.49 315.132 533.102 315.571 533.102 315.571L473.874 332.86C473.874 332.86 472.756 333.146 472.315 332.475Z" fill="white"/>
</g>
<path fill-rule="evenodd" clip-rule="evenodd" d="M75.3323 123.037C116.937 123.037 150.665 158.036 150.665 201.209V295.014C150.665 338.187 116.937 373.186 75.3323 373.186C33.7274 373.186 0 338.187 0 295.014V201.209C0 158.036 33.7274 123.037 75.3323 123.037Z" fill="url(#paint4_linear_51_5062)"/>
<mask id="mask2_51_5062" style="mask-type:luminance" maskUnits="userSpaceOnUse" x="0" y="123" width="151" height="251">
<path fill-rule="evenodd" clip-rule="evenodd" d="M75.3323 123.037C116.937 123.037 150.665 158.036 150.665 201.209V295.014C150.665 338.187 116.937 373.186 75.3323 373.186C33.7274 373.186 0 338.187 0 295.014V201.209C0 158.036 33.7274 123.037 75.3323 123.037Z" fill="white"/>
</mask>
<g mask="url(#mask2_51_5062)">
<path opacity="0.4" fill-rule="evenodd" clip-rule="evenodd" d="M39.8878 276.306L-5.69177 288.999V278.592C-5.69177 278.592 1.7544 282.058 6.32381 281.069C10.8932 280.079 12.349 274.963 18.0617 273.543C23.3185 272.237 29.5348 275.465 38.8394 275.661L39.8878 276.306Z" fill="#0053A6"/>
<path fill-rule="evenodd" clip-rule="evenodd" d="M62.615 263.394L73.2927 260.416C81.9785 257.992 83.7949 264.117 83.7949 264.117L64.4227 269.498L55.3769 284.442L50.808 285.549L53.6863 272.48L37.2958 277.033L30.6188 268.477C30.6188 268.477 31.8896 267.965 33.785 268.187C35.6805 268.409 38.0658 270.243 38.0658 270.243L52.2699 266.28L43.4862 256.739L48.1593 255.408L62.615 263.394Z" fill="#0053A6"/>
<path opacity="0.4" fill-rule="evenodd" clip-rule="evenodd" d="M53.0157 233.029L-10.0443 251.043V236.274C-10.0443 236.274 -1.75645 242.235 6.57943 239.788C14.9153 237.341 14.9153 231.123 22.819 229.108C30.0919 227.255 39.0768 233.461 51.5652 232.113L53.0157 233.029Z" fill="white"/>
<path fill-rule="evenodd" clip-rule="evenodd" d="M60.4004 203.194L74.4556 218.462L90.4135 213.94L67.3701 201.209L60.4004 203.194Z" fill="#CBDCEB"/>
<path fill-rule="evenodd" clip-rule="evenodd" d="M41.2092 220.701L51.1677 233.461L120.519 214.198C120.519 214.198 117.81 205.063 104.855 208.678L52.3161 223.334C52.3161 223.334 48.7585 220.599 45.9316 220.268C43.1046 219.938 41.2092 220.701 41.2092 220.701Z" fill="white"/>
<path fill-rule="evenodd" clip-rule="evenodd" d="M76.7473 223.661L71.3204 248.303L78.1347 246.652L95.1976 218.462L76.7473 223.661Z" fill="url(#paint5_linear_51_5062)"/>
<path fill-rule="evenodd" clip-rule="evenodd" d="M90.5697 181.431C90.4628 181.684 90.1882 182.862 90.6931 183.457C91.198 184.052 92.265 183.716 92.265 183.716L130.917 172.006C130.917 172.006 132.055 171.678 132.218 170.825C132.382 169.971 131.879 169.411 131.398 168.917C128.121 165.55 124.594 164.213 120.818 164.906C116.108 165.77 114.001 168.28 112.862 169.637C112.429 170.152 112.136 170.501 111.893 170.531C111.702 170.554 111.368 170.513 110.931 170.46C109.35 170.265 106.43 169.906 104.155 171.863C102.128 173.606 101.672 175.377 101.39 176.471C101.268 176.945 101.179 177.293 101.008 177.456C100.8 177.656 100.218 177.558 99.4175 177.423C98.0557 177.194 96.0631 176.859 94.2109 177.707C92.5041 178.488 91.2904 179.729 90.5697 181.431ZM-9.85804 332.942C-10.2254 332.486 -9.95215 331.732 -9.85804 331.494C-9.22403 329.894 -8.1562 328.727 -6.65454 327.993C-5.025 327.196 -3.27197 327.511 -2.07382 327.726C-1.36997 327.853 -0.857604 327.945 -0.67425 327.757C-0.524515 327.604 -0.445813 327.277 -0.338368 326.832C-0.0902839 325.803 0.311032 324.138 2.09379 322.5C3.87005 320.868 6.43593 321.058 8.10951 321.183H8.10965C8.84316 321.237 9.40525 321.279 9.65429 321.149C9.86739 321.037 10.1952 320.664 10.6343 320.164C11.8791 318.746 14.0178 316.31 16.9704 315.942C20.9646 315.443 23.5466 317.354 24.7706 318.349C25.9947 319.343 26.8966 320.84 26.7736 321.581C26.6505 322.321 25.7356 322.638 25.7356 322.638L-8.78081 333.136C-8.78081 333.136 -9.49066 333.398 -9.85804 332.942ZM92.2278 350.286C91.9336 349.833 92.1309 349.062 92.2278 348.828C92.8808 347.255 93.9806 346.108 95.5272 345.386C97.2055 344.603 99.0109 344.913 100.245 345.124C100.97 345.249 101.498 345.339 101.686 345.154C101.82 345.023 101.726 344.696 101.591 344.225C101.212 342.902 100.508 340.447 103.623 338.035C106.965 335.447 113.235 337.018 116.103 337.736C116.86 337.926 117.379 338.056 117.546 338.035C117.767 338.007 117.815 337.733 117.885 337.327C118.071 336.26 118.415 334.282 122.462 333.459C128.051 332.322 132.833 335.795 133.347 336.377C133.861 336.958 134.029 337.375 133.861 337.985C133.694 338.596 132.768 338.891 132.768 338.891L93.268 350.545C93.268 350.545 92.522 350.738 92.2278 350.286Z" fill="#0053A6"/>
<path fill-rule="evenodd" clip-rule="evenodd" d="M93.9793 161.572C93.8339 161.918 93.4609 163.533 94.1469 164.349C94.8329 165.164 96.2825 164.705 96.2825 164.705L148.797 148.649C148.797 148.649 150.344 148.199 150.566 147.029C150.788 145.86 150.105 145.092 149.452 144.414C144.999 139.798 140.207 137.965 135.076 138.915C128.677 140.1 125.814 143.54 124.266 145.401C123.679 146.107 123.281 146.586 122.951 146.627C122.691 146.659 122.236 146.603 121.643 146.529C119.495 146.262 115.529 145.77 112.436 148.454C109.683 150.843 109.064 153.271 108.68 154.771C108.515 155.421 108.393 155.897 108.162 156.121C107.879 156.395 107.087 156.261 106 156.077C104.15 155.763 101.443 155.304 98.9264 156.465C96.6074 157.536 94.9584 159.238 93.9793 161.572ZM-14.9067 316.502C-15.474 315.836 -15.052 314.736 -14.9067 314.39C-13.9276 312.056 -12.2785 310.354 -9.95952 309.283C-7.44303 308.122 -4.73583 308.581 -2.88553 308.895C-1.79857 309.079 -1.00732 309.213 -0.724166 308.939C-0.492929 308.715 -0.371389 308.239 -0.205462 307.589C0.177654 306.089 0.797406 303.661 3.55051 301.272C6.29359 298.891 10.2561 299.169 12.8406 299.35C13.9734 299.429 14.8416 299.49 15.2262 299.301C15.5553 299.138 16.0615 298.594 16.7395 297.864L16.7396 297.864C18.6619 295.796 21.9647 292.243 26.5245 291.706C32.6927 290.979 36.68 293.765 38.5703 295.217C40.4607 296.668 41.8534 298.851 41.6635 299.931C41.4735 301.011 40.0605 301.473 40.0605 301.473L-13.2431 316.785C-13.2431 316.785 -14.3393 317.167 -14.9067 316.502ZM93.9793 332.475C93.5382 331.804 93.834 330.659 93.9793 330.313C94.9584 327.979 96.6075 326.277 98.9265 325.206C101.443 324.045 104.15 324.504 106 324.818C107.087 325.002 107.879 325.136 108.162 324.862C108.363 324.668 108.222 324.182 108.019 323.484C107.451 321.522 106.395 317.879 111.065 314.301C116.076 310.461 125.478 312.792 129.779 313.857C130.913 314.139 131.692 314.332 131.943 314.301C132.274 314.259 132.345 313.853 132.451 313.25C132.729 311.667 133.244 308.733 139.313 307.511C147.693 305.824 154.864 310.978 155.635 311.84C156.406 312.703 156.657 313.322 156.406 314.227C156.155 315.132 154.767 315.571 154.767 315.571L95.539 332.86C95.539 332.86 94.4204 333.146 93.9793 332.475Z" fill="white"/>
</g>
<path d="M301.483 284.265C297.245 284.951 293.182 286.509 289.548 288.841C280.067 294.749 274.97 303.822 278.163 309.104C281.357 314.386 291.63 313.875 301.111 307.967C304.803 305.732 308.011 302.761 310.535 299.237C311.701 297.53 311.768 295.299 310.705 293.547L306.557 286.685C305.5 284.928 303.51 283.979 301.483 284.265Z" fill="#D5D6DB"/>
<path d="M269.76 192.483C266.686 192.981 263.74 194.112 261.105 195.803C254.232 200.086 250.534 206.664 252.847 210.491C255.161 214.318 262.613 213.947 269.485 209.665C272.163 208.043 274.488 205.887 276.319 203.332C277.163 202.095 277.211 200.478 276.441 199.207L273.437 194.239C272.672 192.965 271.229 192.276 269.76 192.483Z" fill="#D5D6DB"/>
<path d="M229.342 193.163C228.639 193.029 227.911 193.167 227.299 193.55L211.156 203.612C209.805 204.45 209.372 206.23 210.19 207.587C210.377 207.898 210.621 208.17 210.91 208.387L255.021 241.811L308.851 208.261L229.342 193.163Z" fill="#001083"/>
<path d="M408.078 202.455L261.494 292.508L173.126 323.642L127.339 329.81L121.546 320.308L366.121 173.463C373.409 169.066 381.711 166.657 390.19 166.481C393.905 166.425 397.608 166.835 401.213 167.701C404.407 168.442 407.473 169.637 410.321 171.25C413.5 173.075 419.341 173.7 421.464 177.016C421.47 177.011 427.004 191.915 408.078 202.455V202.455Z" fill="#E1E6E9"/>
<path d="M262.537 279.202L204.131 385.599C203.415 387.101 204.039 388.892 205.525 389.598C206.437 390.032 207.509 389.969 208.374 389.432L224.508 379.429C227.611 377.504 230.297 374.964 232.399 371.966L349.88 222.369L262.537 279.202Z" fill="#001083"/>
<path d="M93.9964 262.729C92.8545 262.246 91.5461 262.353 90.4841 263.014L77.1497 271.319C75.3327 272.45 74.753 274.844 75.8544 276.668C76.0642 277.015 76.3263 277.326 76.6324 277.589L118.392 313.575L157.712 289.642L93.9964 262.729Z" fill="#001083"/>
<path d="M132.01 320.524L113.159 349.986C112.882 350.409 112.997 350.975 113.415 351.25C113.716 351.448 114.108 351.446 114.411 351.245L126.876 343.528C126.973 343.468 127.059 343.39 127.128 343.299L155.116 306.234L132.01 320.524Z" fill="#001083"/>
<path d="M398.782 168.848C395.07 167.953 391.256 167.533 387.43 167.596C384.088 172.81 382.15 178.804 381.808 184.981C381.842 186.23 382.873 187.205 384.11 187.159C384.495 187.144 384.87 187.031 385.2 186.828L408.165 172.528C405.231 170.854 402.072 169.615 398.782 168.848Z" fill="#001083"/>
<path d="M348.329 194.521L363.328 185.27L379.968 212.587L364.968 221.837L348.329 194.521Z" fill="#D5D6DB"/>
<path d="M339.171 204.132C337.364 205.25 336.784 207.619 337.878 209.423L339.65 212.345C340.804 214.11 343.174 214.584 344.944 213.405C346.628 212.282 347.175 210.049 346.192 208.296L344.421 205.374C343.328 203.572 340.979 203.015 339.171 204.132V204.132Z" fill="#3A556A"/>
<path d="M325.678 212.289C323.871 213.408 323.291 215.777 324.385 217.58L326.156 220.503C327.31 222.267 329.68 222.742 331.45 221.562C333.135 220.439 333.681 218.207 332.699 216.453L330.927 213.531C329.834 211.73 327.484 211.173 325.678 212.289V212.289Z" fill="#3A556A"/>
<path d="M312.18 220.449C310.375 221.569 309.798 223.936 310.89 225.738L312.662 228.66C313.816 230.424 316.186 230.899 317.956 229.72C319.641 228.596 320.187 226.364 319.205 224.611L317.433 221.689C316.34 219.885 313.988 219.33 312.18 220.449V220.449Z" fill="#3A556A"/>
<path d="M298.687 228.606C296.881 229.727 296.304 232.093 297.397 233.895L299.169 236.817C300.323 238.582 302.693 239.056 304.463 237.877C306.148 236.754 306.694 234.521 305.712 232.768L303.94 229.846C302.845 228.043 300.494 227.488 298.687 228.606V228.606Z" fill="#3A556A"/>
<path d="M285.194 236.764C283.388 237.885 282.811 240.253 283.904 242.056L285.677 244.979C286.77 246.781 289.12 247.336 290.927 246.218C292.734 245.1 293.312 242.733 292.22 240.93L290.447 238.007C289.356 236.203 287.006 235.646 285.198 236.762C285.197 236.763 285.196 236.763 285.194 236.764Z" fill="#3A556A"/>
<path d="M271.701 244.922C269.895 246.042 269.317 248.41 270.411 250.213L272.183 253.136C273.276 254.938 275.627 255.493 277.434 254.375C279.24 253.257 279.819 250.89 278.726 249.088L276.953 246.164C275.863 244.361 273.513 243.804 271.705 244.919C271.703 244.92 271.702 244.921 271.701 244.922Z" fill="#3A556A"/>
<path d="M258.207 253.079C256.401 254.2 255.823 256.568 256.916 258.371L258.689 261.294C259.784 263.095 262.136 263.646 263.94 262.526C265.742 261.408 266.319 259.046 265.231 257.246L263.458 254.323C262.366 252.519 260.015 251.963 258.207 253.079Z" fill="#3A556A"/>
<path d="M244.713 261.237C242.907 262.358 242.329 264.725 243.422 266.528L245.195 269.451C246.29 271.252 248.642 271.803 250.446 270.683C252.248 269.566 252.825 267.203 251.737 265.403L249.964 262.48C248.872 260.677 246.521 260.12 244.713 261.237Z" fill="#3A556A"/>
<path d="M231.219 269.394C229.413 270.515 228.836 272.882 229.929 274.685L231.702 277.609C232.797 279.409 235.148 279.96 236.953 278.841C238.755 277.723 239.332 275.36 238.244 273.561L236.471 270.637C235.378 268.834 233.027 268.278 231.219 269.394Z" fill="#3A556A"/>
<path d="M217.722 277.554C215.915 278.672 215.336 281.039 216.429 282.841L216.431 282.845L218.204 285.769C219.299 287.569 221.651 288.12 223.455 287C225.257 285.883 225.834 283.52 224.746 281.72L222.973 278.797C221.881 276.994 219.53 276.437 217.722 277.554Z" fill="#3A556A"/>
<path d="M204.232 285.709C202.425 286.827 201.846 289.194 202.939 290.996L202.941 291L204.714 293.923C205.809 295.724 208.161 296.275 209.965 295.155C211.767 294.037 212.344 291.675 211.256 289.875L209.483 286.952C208.39 285.149 206.039 284.593 204.232 285.709Z" fill="#3A556A"/>
<defs>
<linearGradient id="paint0_linear_51_5062" x1="192.524" y1="134.181" x2="192.524" y2="373.186" gradientUnits="userSpaceOnUse">
<stop stop-color="#7AB7FF"/>
<stop offset="1" stop-color="#68B4E8"/>
</linearGradient>
<linearGradient id="paint1_linear_51_5062" x1="262.365" y1="215.634" x2="249.435" y2="238.608" gradientUnits="userSpaceOnUse">
<stop stop-color="#DBE5E8"/>
<stop offset="1" stop-color="#91D3FF"/>
</linearGradient>
<linearGradient id="paint2_linear_51_5062" x1="381.691" y1="134.181" x2="381.691" y2="373.186" gradientUnits="userSpaceOnUse">
<stop stop-color="#7AB7FF"/>
<stop offset="1" stop-color="#68B4E8"/>
</linearGradient>
<linearGradient id="paint3_linear_51_5062" x1="451.532" y1="215.634" x2="438.603" y2="238.608" gradientUnits="userSpaceOnUse">
<stop stop-color="#DBE5E8"/>
<stop offset="1" stop-color="#91D3FF"/>
</linearGradient>
<linearGradient id="paint4_linear_51_5062" x1="3.356" y1="134.181" x2="3.356" y2="373.186" gradientUnits="userSpaceOnUse">
<stop stop-color="#7AB7FF"/>
<stop offset="1" stop-color="#68B4E8"/>
</linearGradient>
<linearGradient id="paint5_linear_51_5062" x1="73.1969" y1="215.634" x2="60.2674" y2="238.608" gradientUnits="userSpaceOnUse">
<stop stop-color="#DBE5E8"/>
<stop offset="1" stop-color="#91D3FF"/>
</linearGradient>
</defs>
</svg>
