<svg width="114" height="185" viewBox="0 0 114 185" fill="none" xmlns="http://www.w3.org/2000/svg">
<path d="M20.079 69.4603C20.0349 69.4167 19.9836 69.3811 19.9272 69.3553C18.5556 68.5896 17.3137 67.6116 16.2476 66.4576C16.204 66.4111 16.1517 66.3735 16.0936 66.3472C16.0355 66.3208 15.9728 66.3062 15.909 66.304C15.8453 66.3019 15.7817 66.3124 15.722 66.3349C15.6623 66.3573 15.6076 66.3913 15.5611 66.4349C15.5145 66.4785 15.477 66.5309 15.4506 66.589C15.4243 66.6471 15.4096 66.7099 15.4075 66.7736C15.4054 66.8374 15.4159 66.901 15.4383 66.9607C15.4608 67.0204 15.4948 67.0752 15.5384 67.1217C16.6717 68.3521 17.9961 69.3915 19.4605 70.1996C19.5159 70.2316 19.577 70.2523 19.6404 70.2605C19.7038 70.2687 19.7682 70.2643 19.8299 70.2476C19.8916 70.2308 19.9493 70.2021 19.9999 70.1629C20.0504 70.1237 20.0927 70.075 20.1244 70.0194C20.173 69.9322 20.1947 69.8325 20.1866 69.733C20.1786 69.6334 20.1411 69.5385 20.079 69.4603ZM12.4191 57.7348C12.3669 57.68 12.3035 57.6369 12.2333 57.6085C12.1631 57.5802 12.0876 57.5671 12.012 57.5702C11.9483 57.5754 11.8864 57.5932 11.8297 57.6227C11.7731 57.6522 11.7229 57.6927 11.6822 57.7419C11.6414 57.7911 11.611 57.848 11.5926 57.9092C11.5742 57.9703 11.5682 58.0346 11.5751 58.0981C11.6049 58.5806 11.6659 59.0787 11.7255 59.5924C11.9158 60.7565 12.2662 61.8887 12.7666 62.9569C12.8187 63.073 12.9148 63.1636 13.0337 63.2089C13.1526 63.2541 13.2846 63.2503 13.4007 63.1981C13.5168 63.146 13.6074 63.0499 13.6526 62.9309C13.6978 62.812 13.6939 62.6799 13.6418 62.5638C13.1881 61.5699 12.8685 60.5201 12.6914 59.4419C12.6305 58.9751 12.5709 58.4912 12.5411 58.0229C12.5318 57.9177 12.4891 57.8182 12.4191 57.7391V57.7348ZM29.4524 70.2763C29.3841 70.1994 29.2943 70.1447 29.1947 70.1194C29.0951 70.0941 28.9901 70.0993 28.8935 70.1344C27.4529 70.7059 25.8962 70.923 24.3543 70.7673C24.2909 70.7613 24.2269 70.7679 24.166 70.7867C24.1051 70.8054 24.0485 70.836 23.9995 70.8767C23.9504 70.9173 23.9098 70.9672 23.8801 71.0236C23.8503 71.0799 23.8319 71.1416 23.8259 71.205C23.82 71.2685 23.8265 71.3325 23.8453 71.3934C23.8641 71.4543 23.8946 71.5109 23.9353 71.56C23.9759 71.6091 24.0258 71.6497 24.0821 71.6795C24.1385 71.7093 24.2001 71.7276 24.2635 71.7336C25.9594 71.9077 27.6723 71.6696 29.2566 71.0397C29.3165 71.0164 29.3711 70.9814 29.4173 70.9368C29.4635 70.8921 29.5004 70.8387 29.5257 70.7797C29.5511 70.7206 29.5644 70.6571 29.565 70.5929C29.5656 70.5286 29.5533 70.4649 29.529 70.4054C29.5173 70.3521 29.4913 70.303 29.4538 70.2635L29.4524 70.2763ZM14.3525 48.3649C14.315 48.3312 14.2747 48.3008 14.2319 48.2741C14.1783 48.2384 14.1178 48.2142 14.0544 48.2032C13.9909 48.1922 13.9258 48.1946 13.8633 48.2103C13.8008 48.2259 13.7422 48.2544 13.6914 48.294C13.6406 48.3336 13.5986 48.3834 13.5681 48.4402C12.7029 49.8823 12.1047 51.4686 11.802 53.123C11.7793 53.2503 11.8078 53.3815 11.8815 53.4879C11.9551 53.5942 12.0678 53.6671 12.195 53.6906C12.2574 53.7018 12.3215 53.7005 12.3834 53.6867C12.4453 53.673 12.5039 53.6471 12.5558 53.6105C12.6076 53.574 12.6517 53.5275 12.6855 53.4737C12.7192 53.42 12.742 53.3601 12.7524 53.2975C13.0406 51.7585 13.5976 50.2824 14.3979 48.9368C14.4521 48.8498 14.477 48.7477 14.4688 48.6455C14.4607 48.5433 14.4199 48.4465 14.3525 48.3692V48.3649ZM36.2342 63.5642C36.1933 63.5213 36.1453 63.4858 36.0923 63.4592C36.037 63.4292 35.9762 63.4105 35.9136 63.4041C35.8509 63.3977 35.7877 63.4037 35.7274 63.4219C35.6671 63.4402 35.611 63.4701 35.5624 63.5101C35.5138 63.5501 35.4736 63.5994 35.4441 63.6551C34.69 65.0441 33.7567 66.328 32.6681 67.4737C32.6227 67.5198 32.5871 67.5746 32.5632 67.6347C32.5394 67.6949 32.5278 67.7592 32.5293 67.8239C32.5308 67.8886 32.5452 67.9524 32.5717 68.0114C32.5982 68.0704 32.6363 68.1235 32.6837 68.1676C32.7291 68.2113 32.7828 68.2456 32.8415 68.2684C32.9003 68.2913 32.9629 68.3024 33.026 68.3009C33.089 68.2995 33.1511 68.2855 33.2087 68.26C33.2663 68.2344 33.3183 68.1977 33.3617 68.152C34.5091 66.9429 35.4929 65.5884 36.2881 64.1233C36.3387 64.0358 36.3601 63.9345 36.3494 63.8341C36.3387 63.7336 36.2964 63.6391 36.2285 63.5642H36.2342ZM101.973 139.314C101.927 139.262 101.87 139.221 101.807 139.193C101.749 139.165 101.687 139.149 101.623 139.145C101.56 139.141 101.496 139.15 101.435 139.171C101.375 139.192 101.319 139.225 101.272 139.268C101.224 139.311 101.186 139.362 101.159 139.42C100.492 140.875 99.7258 142.282 98.8649 143.63C98.802 143.74 98.7838 143.87 98.8142 143.993C98.8445 144.116 98.9211 144.223 99.0279 144.291C99.1347 144.359 99.2636 144.383 99.3878 144.358C99.512 144.334 99.6219 144.262 99.6947 144.158C100.567 142.769 101.353 141.328 102.048 139.842C102.085 139.755 102.098 139.66 102.085 139.567C102.071 139.474 102.033 139.386 101.973 139.314ZM21.723 42.2787C21.6589 42.1962 21.5691 42.1375 21.4679 42.1118C21.3667 42.0861 21.2598 42.0949 21.1641 42.1368C19.632 42.7921 18.1919 43.6446 16.8803 44.6726C16.8306 44.7121 16.7893 44.761 16.7586 44.8165C16.728 44.872 16.7086 44.9331 16.7016 44.9961C16.6946 45.0592 16.7002 45.123 16.7179 45.1838C16.7357 45.2447 16.7653 45.3015 16.8051 45.3509C16.8423 45.4034 16.8899 45.4477 16.9449 45.481C17 45.5143 17.0613 45.5358 17.125 45.5444C17.1888 45.5529 17.2536 45.5481 17.3155 45.5305C17.3773 45.5128 17.4349 45.4826 17.4845 45.4417C18.7286 44.4598 20.0982 43.6485 21.557 43.0294C21.6726 42.9767 21.7628 42.8806 21.8079 42.7618C21.8531 42.643 21.8496 42.5112 21.7982 42.3951C21.782 42.3499 21.7564 42.3088 21.723 42.2744V42.2787ZM39.5237 54.4313C39.4563 54.3548 39.3664 54.3017 39.2669 54.2795C39.2035 54.2649 39.1379 54.2632 39.0738 54.2743C39.0098 54.2855 38.9486 54.3094 38.8939 54.3446C38.8391 54.3797 38.792 54.4255 38.7552 54.4791C38.7184 54.5328 38.6927 54.5932 38.6797 54.6569C38.3356 56.2197 37.9022 57.7614 37.3817 59.2745C37.3388 59.3942 37.3445 59.5261 37.3975 59.6417C37.4505 59.7573 37.5467 59.8476 37.6654 59.8932C37.7894 59.9366 37.9255 59.9293 38.0442 59.873C38.1629 59.8167 38.2546 59.7159 38.2995 59.5924C38.8401 58.0416 39.2835 56.4587 39.6272 54.8528C39.6486 54.7787 39.65 54.7004 39.6313 54.6256C39.6126 54.5508 39.5745 54.4823 39.5208 54.4271L39.5237 54.4313ZM104.899 130.079C104.83 129.988 104.728 129.929 104.615 129.913C104.553 129.901 104.489 129.902 104.427 129.916C104.365 129.93 104.306 129.956 104.254 129.992C104.202 130.029 104.158 130.075 104.124 130.129C104.09 130.183 104.067 130.243 104.057 130.306C103.759 131.876 103.371 133.427 102.896 134.953C102.859 135.077 102.871 135.211 102.93 135.326C102.989 135.441 103.09 135.529 103.213 135.572C103.273 135.591 103.336 135.597 103.399 135.592C103.462 135.586 103.524 135.568 103.58 135.539C103.636 135.509 103.685 135.469 103.726 135.42C103.766 135.372 103.797 135.316 103.815 135.255C104.309 133.691 104.707 132.098 105.007 130.486C105.022 130.415 105.02 130.341 105.002 130.27C104.983 130.2 104.949 130.134 104.902 130.079H104.899ZM31.1546 40.0082C31.1034 39.9461 31.038 39.8973 30.9639 39.8659C30.8898 39.8345 30.8092 39.8215 30.729 39.828C29.0954 39.9964 27.4735 40.2632 25.8721 40.6269C25.8083 40.6402 25.7479 40.6661 25.6942 40.703C25.6406 40.7399 25.5949 40.7872 25.5597 40.8421C25.5246 40.8969 25.5007 40.9582 25.4896 41.0224C25.4784 41.0866 25.4802 41.1524 25.4948 41.2158C25.5285 41.3397 25.6082 41.446 25.7176 41.5133C25.8269 41.5805 25.9577 41.6035 26.0834 41.5777C27.6438 41.2183 29.2259 40.9613 30.8198 40.8086C30.9081 40.7995 30.9923 40.7668 31.0636 40.7139C31.1349 40.661 31.1907 40.5899 31.2249 40.5079C31.2592 40.426 31.2708 40.3364 31.2584 40.2484C31.246 40.1605 31.2101 40.0775 31.1546 40.0082ZM40.7492 44.7918C40.7081 44.7392 40.6553 44.6968 40.595 44.668C40.5347 44.6392 40.4685 44.6247 40.4017 44.6258C40.2716 44.62 40.1445 44.666 40.0483 44.7538C39.952 44.8416 39.8945 44.9639 39.8882 45.0941C39.8442 46.6791 39.7081 48.2926 39.5123 49.9074C39.5044 49.9711 39.5091 50.0357 39.5263 50.0975C39.5434 50.1594 39.5725 50.2172 39.6121 50.2677C39.6516 50.3182 39.7008 50.3604 39.7567 50.3919C39.8126 50.4233 39.8742 50.4434 39.9379 50.4509C40.0652 50.4608 40.1917 50.4226 40.2923 50.3438C40.3928 50.265 40.4602 50.1513 40.4811 50.0252C40.6769 48.3805 40.8131 46.7359 40.8741 45.121C40.8731 44.9998 40.8305 44.8826 40.7535 44.789L40.7492 44.7918ZM105.654 120.391C105.607 120.337 105.549 120.295 105.483 120.266C105.418 120.238 105.348 120.223 105.277 120.225C105.212 120.225 105.149 120.238 105.09 120.263C105.031 120.289 104.978 120.326 104.935 120.372C104.891 120.419 104.857 120.474 104.835 120.535C104.813 120.595 104.804 120.659 104.808 120.723C104.838 122.352 104.794 123.987 104.667 125.536C104.662 125.6 104.67 125.664 104.69 125.724C104.711 125.785 104.743 125.84 104.785 125.888C104.827 125.936 104.878 125.975 104.936 126.003C104.993 126.031 105.055 126.047 105.119 126.05C105.182 126.057 105.245 126.05 105.306 126.032C105.366 126.013 105.422 125.982 105.47 125.941C105.518 125.9 105.557 125.85 105.585 125.793C105.613 125.736 105.629 125.675 105.633 125.612C105.753 124.012 105.799 122.368 105.774 120.707C105.773 120.591 105.73 120.479 105.654 120.391ZM5.68834 0.18161C5.64215 0.126038 5.58456 0.0810394 5.51945 0.0496979C5.45435 0.0183563 5.38326 0.00140381 5.31102 -3.05176e-05C3.66002 0.0285492 2.01458 0.199936 0.393112 0.512222C0.330704 0.524155 0.271263 0.548279 0.21817 0.583176C0.165077 0.618088 0.119377 0.663116 0.0836792 0.715698C0.0479813 0.768265 0.0229874 0.827377 0.0101242 0.889618C-0.00274658 0.951843 -0.00322723 1.01599 0.00869751 1.07841C0.0206146 1.14085 0.0447159 1.20033 0.0796127 1.25345C0.114502 1.30656 0.159515 1.35226 0.212074 1.38797C0.264633 1.42368 0.3237 1.44868 0.385918 1.46155C0.448128 1.47443 0.512268 1.47493 0.574669 1.46301C2.14082 1.16205 3.73055 1.00058 5.3252 0.980515C5.38891 0.979446 5.45175 0.965591 5.51002 0.939804C5.56828 0.914017 5.62077 0.876831 5.66441 0.830399C5.70805 0.783966 5.74194 0.729248 5.76408 0.669479C5.78622 0.609711 5.79617 0.546112 5.79331 0.482437C5.79305 0.373215 5.75608 0.267273 5.68834 0.18161ZM104.658 110.733C104.604 110.667 104.534 110.617 104.455 110.588C104.375 110.559 104.289 110.551 104.206 110.567C104.143 110.577 104.083 110.6 104.029 110.634C103.975 110.667 103.929 110.711 103.892 110.763C103.856 110.815 103.83 110.874 103.816 110.936C103.802 110.998 103.801 111.062 103.813 111.125C104.096 112.739 104.326 114.354 104.492 115.908C104.499 115.973 104.518 116.035 104.549 116.092C104.58 116.149 104.622 116.2 104.673 116.24C104.723 116.281 104.781 116.312 104.843 116.33C104.906 116.348 104.971 116.354 105.035 116.347C105.164 116.33 105.282 116.264 105.363 116.163C105.444 116.062 105.484 115.933 105.472 115.803C105.291 114.218 105.065 112.589 104.763 110.959C104.753 110.874 104.716 110.795 104.658 110.733ZM40.3223 35.07C40.2722 35.0073 40.2065 34.9589 40.1318 34.9298C40.0571 34.9006 39.976 34.8917 39.8967 34.904C39.8327 34.9108 39.7708 34.9304 39.7145 34.9616C39.6582 34.9928 39.6087 35.035 39.5691 35.0857C39.5294 35.1364 39.5003 35.1945 39.4834 35.2566C39.4666 35.3188 39.4625 35.3837 39.4712 35.4475C39.6533 36.8638 39.7542 38.2894 39.7733 39.7173C38.3704 39.6265 36.9831 39.5754 35.6256 39.5754C35.5613 39.5762 35.4977 39.5896 35.4385 39.615C35.3793 39.6404 35.3257 39.6772 35.2807 39.7233C35.2358 39.7695 35.2004 39.824 35.1766 39.8839C35.1528 39.9437 35.141 40.0077 35.1419 40.0721C35.1455 40.1993 35.1976 40.3203 35.2876 40.4103C35.3775 40.5003 35.4985 40.5524 35.6256 40.556C37.1945 40.556 38.8073 40.6156 40.4485 40.7362C40.5762 40.7473 40.7032 40.7077 40.8019 40.6259C40.9007 40.5441 40.9633 40.4267 40.9762 40.2992C40.985 40.21 40.9684 40.1201 40.9282 40.0399C40.8881 39.9598 40.826 39.8927 40.7492 39.8465C40.7322 38.3327 40.6265 36.8212 40.4329 35.3197C40.4175 35.2245 40.3758 35.1355 40.3123 35.0629L40.3223 35.07ZM15.2362 1.72267C15.1791 1.65602 15.1065 1.60437 15.0249 1.57225C13.4688 1.0322 11.8689 0.628143 10.2431 0.364639C10.1796 0.352722 10.1142 0.353958 10.0512 0.36824C9.9881 0.382538 9.92862 0.409607 9.87639 0.447754C9.82417 0.485916 9.7803 0.534317 9.7475 0.590073C9.71469 0.645828 9.69365 0.707733 9.68566 0.771927C9.66531 0.897766 9.69482 1.02657 9.76794 1.13098C9.84105 1.23538 9.95198 1.30716 10.0772 1.33101C11.6502 1.59091 13.1992 1.9796 14.7085 2.49319C14.769 2.51439 14.833 2.52338 14.8969 2.51962C14.9608 2.51588 15.0234 2.49948 15.0809 2.47137C15.1384 2.44325 15.1898 2.40396 15.2321 2.35583C15.2743 2.30769 15.3066 2.25166 15.327 2.19096C15.3546 2.11185 15.3607 2.02682 15.3448 1.94456C15.3288 1.8623 15.2914 1.78574 15.2362 1.72267ZM50.4886 41.3776C50.4258 41.2967 50.3345 41.2429 50.2333 41.2272C48.6332 40.8639 47.019 40.5773 45.4104 40.3361C45.3478 40.3254 45.2837 40.3276 45.2219 40.3426C45.1602 40.3575 45.1022 40.3849 45.0514 40.423C45.0005 40.4611 44.958 40.5091 44.9263 40.5642C44.8946 40.6193 44.8745 40.6802 44.8671 40.7433C44.856 40.8069 44.8578 40.872 44.8725 40.9349C44.8871 40.9978 44.9142 41.0571 44.9522 41.1092C44.9901 41.1614 45.0382 41.2054 45.0936 41.2386C45.1489 41.2718 45.2103 41.2935 45.2742 41.3024C46.8573 41.528 48.4573 41.8303 50.0262 42.178C50.151 42.1993 50.2794 42.1721 50.3848 42.102C50.4903 42.0318 50.565 41.9239 50.5936 41.8005C50.6162 41.7266 50.6182 41.6479 50.5994 41.5729C50.5807 41.4979 50.5419 41.4294 50.4872 41.3748L50.4886 41.3776ZM102.32 101.286C102.26 101.213 102.178 101.159 102.087 101.132C101.995 101.105 101.898 101.107 101.807 101.136C101.684 101.174 101.581 101.258 101.519 101.37C101.457 101.483 101.441 101.615 101.475 101.739C101.973 103.309 102.41 104.878 102.787 106.402C102.802 106.464 102.829 106.523 102.867 106.575C102.904 106.627 102.952 106.671 103.006 106.705C103.061 106.739 103.122 106.761 103.185 106.771C103.249 106.781 103.313 106.779 103.376 106.764C103.438 106.749 103.497 106.722 103.549 106.684C103.601 106.647 103.645 106.599 103.679 106.544C103.712 106.49 103.735 106.429 103.745 106.366C103.755 106.302 103.752 106.237 103.737 106.175C103.346 104.614 102.908 103.036 102.41 101.452C102.389 101.393 102.359 101.336 102.32 101.286ZM37.969 25.6519C37.8964 25.5609 37.7936 25.499 37.6792 25.4775C37.5649 25.4561 37.4466 25.4765 37.346 25.535C37.2454 25.5934 37.1692 25.6861 37.1312 25.7962C37.0932 25.9062 37.0961 26.0262 37.1392 26.1343C37.6961 27.6377 38.1743 29.169 38.5718 30.7221C38.5869 30.7841 38.6142 30.8424 38.6521 30.8936C38.69 30.9448 38.7379 30.9879 38.7928 31.0204C38.8476 31.0528 38.9085 31.0738 38.9716 31.0823C39.0348 31.0908 39.099 31.0865 39.1605 31.0697C39.2864 31.0394 39.3952 30.9604 39.463 30.8501C39.5308 30.7397 39.5521 30.6069 39.5222 30.4808C39.1168 28.8904 38.6233 27.3238 38.0442 25.7881C38.0288 25.7363 38.0032 25.688 37.969 25.6462V25.6519ZM23.7784 6.29196C23.7609 6.26028 23.7349 6.23425 23.7032 6.21678C22.3816 5.23195 20.9902 4.34457 19.5399 3.56174C19.4275 3.50449 19.2973 3.49289 19.1765 3.52937C19.0557 3.56587 18.9537 3.64763 18.8917 3.75758C18.8594 3.81367 18.8388 3.87573 18.8312 3.94002C18.8235 4.0043 18.8291 4.06947 18.8474 4.13156C18.8657 4.19366 18.8964 4.25139 18.9377 4.30125C18.9789 4.35112 19.0299 4.39209 19.0874 4.42168C20.4934 5.18108 21.8443 6.03839 23.1301 6.9873C23.224 7.0623 23.3427 7.09908 23.4624 7.0903C23.5822 7.08153 23.6943 7.02785 23.7762 6.93999C23.8581 6.85211 23.9038 6.73656 23.9042 6.61639C23.9047 6.49625 23.8597 6.38037 23.7784 6.29196ZM33.6284 16.9617C33.5517 16.8727 33.4454 16.8145 33.3291 16.7978C33.2128 16.7811 33.0944 16.8071 32.9958 16.8709C32.9411 16.9035 32.8936 16.9469 32.8562 16.9984C32.8187 17.0499 32.7921 17.1084 32.7779 17.1705C32.7637 17.2325 32.7623 17.2968 32.7736 17.3595C32.785 17.4221 32.8089 17.4818 32.844 17.535C33.709 18.8869 34.5044 20.2822 35.2271 21.7155C35.2548 21.7731 35.2936 21.8246 35.3413 21.8671C35.389 21.9097 35.4446 21.9424 35.505 21.9633C35.5654 21.9843 35.6293 21.9931 35.6931 21.9893C35.7569 21.9855 35.8193 21.9691 35.8767 21.9411C35.992 21.8803 36.0788 21.7766 36.1184 21.6524C36.1579 21.5281 36.147 21.3933 36.0881 21.277C35.355 19.8113 34.5439 18.3859 33.6582 17.0071C33.644 16.9915 33.6284 16.9759 33.6284 16.9617ZM30.0694 12.1781C29.2396 11.2118 28.3488 10.2766 27.4594 9.40108C27.3648 9.31223 27.2391 9.26405 27.1094 9.26698C26.9796 9.2699 26.8562 9.32365 26.7657 9.41667C26.7218 9.46196 26.6873 9.5155 26.6642 9.57423C26.6411 9.63297 26.6299 9.69569 26.6312 9.75879C26.6325 9.82188 26.6463 9.88411 26.6719 9.94182C26.6974 9.99953 26.7341 10.0516 26.7799 10.095C27.9265 11.2161 29.0096 12.4005 30.024 13.6426C30.0633 13.6959 30.1131 13.7406 30.1702 13.7741C30.2273 13.8076 30.2907 13.8291 30.3564 13.8373C30.4221 13.8455 30.4888 13.8402 30.5524 13.8218C30.616 13.8034 30.6752 13.7722 30.7264 13.7302C30.7776 13.6881 30.8197 13.6361 30.8501 13.5773C30.8806 13.5184 30.8987 13.454 30.9035 13.3879C30.9082 13.3219 30.8995 13.2555 30.8778 13.1929C30.8561 13.1303 30.8219 13.0728 30.7772 13.0239C30.5517 12.7401 30.3106 12.4662 30.068 12.1796L30.0694 12.1781ZM98.9401 92.1564C98.8753 92.0752 98.7858 92.0174 98.6852 91.9918C98.5845 91.9662 98.4783 91.9741 98.3826 92.0145C98.2655 92.0657 98.173 92.1607 98.1251 92.2793C98.0771 92.3978 98.0774 92.5304 98.1259 92.6488C98.7741 94.1586 99.3628 95.6827 99.9217 97.1613C99.9435 97.2207 99.9768 97.2752 100.02 97.3217C100.063 97.3681 100.114 97.4056 100.172 97.432C100.229 97.4584 100.291 97.4731 100.355 97.4754C100.418 97.4776 100.481 97.4673 100.54 97.4451C100.662 97.3984 100.76 97.3054 100.813 97.1866C100.866 97.0677 100.87 96.9326 100.824 96.8108C100.281 95.3166 99.6621 93.7925 99.028 92.2699C99.0069 92.2236 98.9759 92.1824 98.9373 92.1493L98.9401 92.1564ZM59.8266 44.1235C59.775 44.0596 59.7075 44.0106 59.6308 43.9815C58.1513 43.4224 56.5981 42.8946 54.9838 42.4206C54.8599 42.3854 54.7271 42.4006 54.6142 42.4627C54.5013 42.5249 54.4175 42.6291 54.381 42.7527C54.3619 42.8131 54.3549 42.8768 54.3605 42.9399C54.366 43.0031 54.384 43.0646 54.4134 43.1207C54.4428 43.1769 54.4831 43.2267 54.5318 43.2673C54.5805 43.3079 54.6367 43.3384 54.6973 43.3572C56.2959 43.824 57.835 44.3377 59.2833 44.8954C59.4051 44.9401 59.5395 44.9354 59.658 44.8824C59.7764 44.8294 59.8695 44.7322 59.9173 44.6116C59.9445 44.5275 59.9504 44.438 59.9346 44.3511C59.9187 44.2642 59.8816 44.1826 59.8266 44.1135V44.1235ZM94.7768 83.3584C94.7056 83.2719 94.6067 83.2127 94.4968 83.1907C94.387 83.1688 94.273 83.1854 94.174 83.2377C94.0629 83.3027 93.9808 83.4076 93.9445 83.531C93.9081 83.6544 93.9202 83.787 93.9782 83.9018C94.7328 85.3365 95.4563 86.7995 96.1343 88.2327C96.1621 88.2903 96.2009 88.3419 96.2485 88.3845C96.2962 88.427 96.3518 88.4598 96.4121 88.4809C96.4725 88.502 96.5364 88.511 96.6002 88.5073C96.664 88.5037 96.7264 88.4876 96.784 88.4598C96.9011 88.4048 96.992 88.3061 97.0371 88.1849C97.0822 88.0636 97.0779 87.9294 97.0251 87.8113C96.3315 86.3624 95.5925 84.898 94.8378 83.4492C94.8248 83.4146 94.804 83.3834 94.7768 83.3584ZM89.9355 74.908C89.8615 74.8195 89.7576 74.7614 89.6436 74.7447C89.5295 74.7279 89.4133 74.7537 89.317 74.8172C89.2617 74.8491 89.2133 74.8917 89.1748 74.9427C89.1363 74.9937 89.1085 75.052 89.093 75.114C89.0775 75.1759 89.0746 75.2404 89.0846 75.3035C89.0946 75.3667 89.1172 75.4271 89.1511 75.4813C90.0107 76.8549 90.8405 78.2583 91.6391 79.6461C91.7041 79.7572 91.81 79.8384 91.934 79.8723C92.0581 79.9063 92.1905 79.8903 92.303 79.8278C92.3593 79.797 92.4089 79.7551 92.4487 79.7047C92.4886 79.6543 92.5178 79.5963 92.5348 79.5343C92.5517 79.4723 92.556 79.4076 92.5474 79.3439C92.5388 79.2802 92.5174 79.2189 92.4845 79.1637C91.6845 77.7603 90.8405 76.3568 89.9809 74.969C89.9653 74.9534 89.9497 74.9236 89.9355 74.908ZM68.4396 48.6204C68.4099 48.6062 68.3787 48.5764 68.3489 48.5608C67.0271 47.5713 65.6184 46.7036 64.1402 45.9682C64.022 45.9114 63.8863 45.9032 63.7622 45.9454C63.6381 45.9876 63.5354 46.0768 63.4763 46.1938C63.4184 46.3081 63.4081 46.4407 63.4477 46.5625C63.4873 46.6843 63.5736 46.7855 63.6877 46.8437C65.1195 47.5541 66.4873 48.3868 67.7758 49.3327C67.8263 49.3715 67.884 49.3999 67.9455 49.4164C68.0071 49.4328 68.0713 49.437 68.1344 49.4285C68.1975 49.4201 68.2584 49.3992 68.3134 49.3672C68.3685 49.3352 68.4167 49.2926 68.4553 49.2419C68.5189 49.1506 68.5518 49.0413 68.5489 48.93C68.5461 48.8187 68.5078 48.7112 68.4396 48.6232V48.6204ZM84.5041 66.8195C84.4267 66.7256 84.3159 66.6654 84.1951 66.6514C84.0743 66.6373 83.9527 66.6706 83.8558 66.7443C83.8039 66.7817 83.7599 66.8291 83.7265 66.8836C83.6931 66.9382 83.6708 66.9989 83.661 67.0622C83.6513 67.1254 83.6542 67.19 83.6696 67.2521C83.685 67.3142 83.7126 67.3727 83.7509 67.424C84.6857 68.721 85.6204 70.0648 86.5254 71.4072C86.5603 71.4617 86.6057 71.5086 86.659 71.5452C86.7122 71.5818 86.7723 71.6073 86.8356 71.6203C86.8989 71.6333 86.9641 71.6335 87.0275 71.6208C87.0909 71.6082 87.1511 71.5829 87.2045 71.5466C87.258 71.5103 87.3036 71.4636 87.3388 71.4094C87.3739 71.3551 87.3978 71.2944 87.4091 71.2307C87.4204 71.1671 87.4188 71.1018 87.4044 71.0388C87.39 70.9757 87.3632 70.9162 87.3255 70.8637C86.4205 69.5057 85.4814 68.1676 84.5353 66.8507C84.5353 66.8351 84.5197 66.8351 84.5041 66.8195ZM75.3491 55.4573H75.3335C74.2172 54.2199 73.0852 53.0279 71.9689 51.9097C71.8782 51.8211 71.7565 51.7715 71.6298 51.7716C71.5031 51.7716 71.3814 51.8212 71.2908 51.9098C71.2002 51.9984 71.1478 52.119 71.1449 52.2457C71.142 52.3725 71.1888 52.4953 71.2752 52.588C72.3774 53.7048 73.5079 54.8826 74.6087 56.1044C74.6977 56.1991 74.8203 56.2553 74.9501 56.2609C75.08 56.2664 75.2069 56.221 75.3037 56.1342C75.397 56.0486 75.4538 55.9304 75.4622 55.8041C75.4707 55.6778 75.4302 55.5531 75.3491 55.4559V55.4573ZM78.5322 59.1383C78.4918 59.0896 78.4421 59.0494 78.386 59.0201C78.33 58.9907 78.2686 58.9728 78.2056 58.9672C78.1426 58.9617 78.0791 58.9687 78.0188 58.9878C77.9585 59.0069 77.9025 59.0378 77.8542 59.0787C77.7589 59.1623 77.6995 59.2793 77.6881 59.4056C77.6768 59.5319 77.7144 59.6577 77.7932 59.757C78.8188 60.9802 79.8458 62.2474 80.8401 63.5458C80.9218 63.6436 81.0381 63.7061 81.1647 63.7201C81.2914 63.7341 81.4185 63.6986 81.5196 63.621C81.5703 63.5824 81.6128 63.5342 81.6448 63.4791C81.6769 63.424 81.6977 63.3632 81.7061 63.3C81.7145 63.2368 81.7104 63.1726 81.694 63.1111C81.6776 63.0495 81.6491 62.9918 81.6104 62.9413C80.599 61.6443 79.5734 60.3615 78.5478 59.1383H78.5322Z" fill="white"/>
<path d="M80.8018 181.202C80.877 180.84 85.0714 171.151 85.0714 171.151C81.0131 163.592 77.4385 157.012 73.1235 149.331L74.0895 147.324L78.5549 151.942C78.9308 151.473 79.6102 150.734 79.9124 150.9C80.2145 151.066 79.7606 152.244 79.4868 152.908L82.0004 155.518C82.0004 155.518 83.2373 153.889 83.66 154.099C84.0828 154.309 83.026 156.573 83.026 156.573L85.2743 158.896C85.2743 158.896 86.6318 157.222 87.1751 157.619C87.7184 158.017 86.6474 160.396 86.6474 160.396L88.7751 162.841C90.6974 158.331 92.8833 153.937 95.3215 149.683L92.049 142.561L93.1044 140.914C98.2109 147.781 97.5244 147.072 105.669 146.449L105.549 148.305L97.9655 150.889C97.9655 150.889 97.7854 151.688 97.001 153.74C96.2165 155.792 92.7455 164.425 92.7455 164.425L95.8378 164.198C95.8378 164.198 96.9542 161.814 97.3755 161.889C97.7967 161.964 97.0918 164.425 97.0918 164.425L101.029 164.5C101.029 164.5 101.844 162.417 102.306 162.613C102.769 162.809 102.366 164.485 102.366 164.485L105.669 164.53C106.051 163.89 106.694 162.885 106.996 163.039C107.252 163.159 107.146 163.96 107.011 164.548L113.663 164.624L112.834 167.178C104.342 168.999 96.8308 170.535 88.7127 172.921C84.9268 180.737 84.3154 182.095 84.3154 182.095C81.8203 185.702 79.667 186.532 80.8018 181.202Z" fill="white"/>
</svg>
