<svg width="115" height="38" viewBox="0 0 115 38" fill="none" xmlns="http://www.w3.org/2000/svg">
<line x1="22" y1="29.5" x2="46" y2="29.5" stroke="white"/>
<g clip-path="url(#clip0_60_5335)">
<path d="M64.849 28.428C65.409 28.708 66 29.213 66 30C66 30.787 65.408 31.292 64.849 31.572C64.27 31.861 63.569 32 63 32L59.309 32L56.724 37.17C56.5995 37.4194 56.408 37.6291 56.171 37.7757C55.9339 37.9223 55.6607 38 55.382 38L54 38C53.9274 38 53.8557 37.9841 53.7899 37.9536C53.724 37.9231 53.6656 37.8786 53.6187 37.8232C53.5718 37.7678 53.5375 37.7029 53.5182 37.6329C53.4989 37.5629 53.4951 37.4896 53.507 37.418L54.425 31.911L52.172 31.536L50.854 32.854C50.7841 32.9241 50.6949 32.9719 50.5978 32.9912C50.5007 33.0106 50.4 33.0007 50.3085 32.9628C50.2171 32.9249 50.1389 32.8606 50.084 32.7783C50.0291 32.6959 49.9998 32.599 50 32.5L50 27.5C49.9998 27.401 50.0291 27.3041 50.084 27.2217C50.1389 27.1394 50.2171 27.0751 50.3085 27.0372C50.4 26.9993 50.5007 26.9894 50.5978 27.0088C50.6949 27.0281 50.7841 27.0759 50.854 27.146L52.172 28.465L54.425 28.089L53.507 22.582C53.4951 22.5104 53.4989 22.4371 53.5182 22.3671C53.5375 22.2971 53.5718 22.2322 53.6187 22.1768C53.6656 22.1214 53.724 22.0769 53.7899 22.0464C53.8557 22.0159 53.9274 22 54 22L55.382 22C55.6607 22 55.9339 22.0777 56.171 22.2243C56.408 22.3709 56.5995 22.5806 56.724 22.83L59.309 28L63 28C63.568 28 64.271 28.14 64.849 28.428Z" fill="white"/>
</g>
<line x1="70" y1="29.5" x2="94" y2="29.5" stroke="white"/>
<path d="M2.448 22C2.288 22 2.152 21.944 2.04 21.832C1.928 21.72 1.872 21.584 1.872 21.424V5.8C1.872 5.624 1.928 5.48 2.04 5.368C2.152 5.256 2.288 5.2 2.448 5.2H8.88C10.128 5.2 11.216 5.4 12.144 5.8C13.072 6.184 13.792 6.776 14.304 7.576C14.816 8.36 15.072 9.344 15.072 10.528C15.072 11.728 14.816 12.72 14.304 13.504C13.792 14.272 13.072 14.848 12.144 15.232C11.216 15.616 10.128 15.808 8.88 15.808H5.304V21.424C5.304 21.584 5.248 21.72 5.136 21.832C5.04 21.944 4.904 22 4.728 22H2.448ZM5.256 13.144H8.76C9.688 13.144 10.4 12.928 10.896 12.496C11.392 12.048 11.64 11.392 11.64 10.528C11.64 9.728 11.408 9.088 10.944 8.608C10.48 8.112 9.752 7.864 8.76 7.864H5.256V13.144ZM20.7705 22.24C19.9385 22.24 19.1865 22.08 18.5145 21.76C17.8425 21.424 17.3065 20.984 16.9065 20.44C16.5225 19.88 16.3305 19.256 16.3305 18.568C16.3305 17.448 16.7785 16.56 17.6745 15.904C18.5865 15.232 19.7865 14.784 21.2745 14.56L24.5625 14.08V13.576C24.5625 12.904 24.3945 12.384 24.0585 12.016C23.7225 11.648 23.1465 11.464 22.3305 11.464C21.7545 11.464 21.2825 11.584 20.9145 11.824C20.5625 12.048 20.2985 12.352 20.1225 12.736C19.9945 12.944 19.8105 13.048 19.5705 13.048H17.6745C17.4985 13.048 17.3625 13 17.2665 12.904C17.1865 12.808 17.1465 12.68 17.1465 12.52C17.1625 12.264 17.2665 11.952 17.4585 11.584C17.6505 11.216 17.9545 10.864 18.3705 10.528C18.7865 10.176 19.3225 9.88 19.9785 9.64C20.6345 9.4 21.4265 9.28 22.3545 9.28C23.3625 9.28 24.2105 9.408 24.8985 9.664C25.6025 9.904 26.1625 10.232 26.5785 10.648C26.9945 11.064 27.2985 11.552 27.4905 12.112C27.6825 12.672 27.7785 13.264 27.7785 13.888V21.424C27.7785 21.584 27.7225 21.72 27.6105 21.832C27.4985 21.944 27.3625 22 27.2025 22H25.2585C25.0825 22 24.9385 21.944 24.8265 21.832C24.7305 21.72 24.6825 21.584 24.6825 21.424V20.488C24.4745 20.792 24.1945 21.08 23.8425 21.352C23.4905 21.608 23.0585 21.824 22.5465 22C22.0505 22.16 21.4585 22.24 20.7705 22.24ZM21.5865 19.96C22.1465 19.96 22.6505 19.84 23.0985 19.6C23.5625 19.36 23.9225 18.992 24.1785 18.496C24.4505 17.984 24.5865 17.344 24.5865 16.576V16.072L22.1865 16.456C21.2425 16.6 20.5385 16.832 20.0745 17.152C19.6105 17.472 19.3785 17.864 19.3785 18.328C19.3785 18.68 19.4825 18.984 19.6905 19.24C19.9145 19.48 20.1945 19.664 20.5305 19.792C20.8665 19.904 21.2185 19.96 21.5865 19.96ZM36.3803 22C35.4203 22 34.6123 21.832 33.9563 21.496C33.3003 21.16 32.8123 20.664 32.4923 20.008C32.1723 19.336 32.0123 18.504 32.0123 17.512V12.064H30.1163C29.9563 12.064 29.8203 12.008 29.7083 11.896C29.5963 11.784 29.5403 11.648 29.5403 11.488V10.096C29.5403 9.936 29.5963 9.8 29.7083 9.688C29.8203 9.576 29.9563 9.52 30.1163 9.52H32.0123V5.536C32.0123 5.376 32.0603 5.24 32.1562 5.128C32.2682 5.016 32.4123 4.96 32.5883 4.96H34.5323C34.6923 4.96 34.8283 5.016 34.9403 5.128C35.0523 5.24 35.1083 5.376 35.1083 5.536V9.52H38.1083C38.2683 9.52 38.4043 9.576 38.5163 9.688C38.6283 9.8 38.6843 9.936 38.6843 10.096V11.488C38.6843 11.648 38.6283 11.784 38.5163 11.896C38.4043 12.008 38.2683 12.064 38.1083 12.064H35.1083V17.272C35.1083 17.928 35.2203 18.44 35.4443 18.808C35.6843 19.176 36.0923 19.36 36.6683 19.36H38.3243C38.4843 19.36 38.6203 19.416 38.7323 19.528C38.8443 19.64 38.9003 19.776 38.9003 19.936V21.424C38.9003 21.584 38.8443 21.72 38.7323 21.832C38.6203 21.944 38.4843 22 38.3243 22H36.3803ZM41.6293 22C41.4693 22 41.3333 21.944 41.2213 21.832C41.1093 21.72 41.0533 21.584 41.0533 21.424V5.536C41.0533 5.376 41.1093 5.24 41.2213 5.128C41.3333 5.016 41.4693 4.96 41.6293 4.96H43.7653C43.9413 4.96 44.0773 5.016 44.1733 5.128C44.2853 5.24 44.3413 5.376 44.3413 5.536V11.008C44.7733 10.496 45.3013 10.08 45.9253 9.76C46.5493 9.44 47.3173 9.28 48.2293 9.28C49.2053 9.28 50.0533 9.504 50.7733 9.952C51.5093 10.384 52.0773 11 52.4773 11.8C52.8773 12.6 53.0773 13.56 53.0773 14.68V21.424C53.0773 21.584 53.0213 21.72 52.9093 21.832C52.7973 21.944 52.6613 22 52.5013 22H50.3413C50.1813 22 50.0453 21.944 49.9333 21.832C49.8213 21.72 49.7653 21.584 49.7653 21.424V14.824C49.7653 13.896 49.5333 13.168 49.0693 12.64C48.6213 12.112 47.9653 11.848 47.1013 11.848C46.2693 11.848 45.5973 12.112 45.0853 12.64C44.5893 13.168 44.3413 13.896 44.3413 14.824V21.424C44.3413 21.584 44.2853 21.72 44.1733 21.832C44.0773 21.944 43.9413 22 43.7653 22H41.6293ZM59.7471 22.24C58.9151 22.24 58.1631 22.08 57.4911 21.76C56.8191 21.424 56.2831 20.984 55.8831 20.44C55.4991 19.88 55.3071 19.256 55.3071 18.568C55.3071 17.448 55.7551 16.56 56.6511 15.904C57.5631 15.232 58.7631 14.784 60.2511 14.56L63.5391 14.08V13.576C63.5391 12.904 63.3711 12.384 63.0351 12.016C62.6991 11.648 62.1231 11.464 61.3071 11.464C60.7311 11.464 60.2591 11.584 59.8911 11.824C59.5391 12.048 59.2751 12.352 59.0991 12.736C58.9711 12.944 58.7871 13.048 58.5471 13.048H56.6511C56.4751 13.048 56.3391 13 56.2431 12.904C56.1631 12.808 56.1231 12.68 56.1231 12.52C56.1391 12.264 56.2431 11.952 56.4351 11.584C56.6271 11.216 56.9311 10.864 57.3471 10.528C57.7631 10.176 58.2991 9.88 58.9551 9.64C59.6111 9.4 60.4031 9.28 61.3311 9.28C62.3391 9.28 63.1871 9.408 63.8751 9.664C64.5791 9.904 65.1391 10.232 65.5551 10.648C65.9711 11.064 66.2751 11.552 66.4671 12.112C66.6591 12.672 66.7551 13.264 66.7551 13.888V21.424C66.7551 21.584 66.6991 21.72 66.5871 21.832C66.4751 21.944 66.3391 22 66.1791 22H64.2351C64.0591 22 63.9151 21.944 63.8031 21.832C63.7071 21.72 63.6591 21.584 63.6591 21.424V20.488C63.4511 20.792 63.1711 21.08 62.8191 21.352C62.4671 21.608 62.0351 21.824 61.5231 22C61.0271 22.16 60.4351 22.24 59.7471 22.24ZM60.5631 19.96C61.1231 19.96 61.6271 19.84 62.0751 19.6C62.5391 19.36 62.8991 18.992 63.1551 18.496C63.4271 17.984 63.5631 17.344 63.5631 16.576V16.072L61.1631 16.456C60.2191 16.6 59.5151 16.832 59.0511 17.152C58.5871 17.472 58.3551 17.864 58.3551 18.328C58.3551 18.68 58.4591 18.984 58.6671 19.24C58.8911 19.48 59.1711 19.664 59.5071 19.792C59.8431 19.904 60.1951 19.96 60.5631 19.96ZM73.1248 22C72.9008 22 72.7328 21.944 72.6208 21.832C72.5088 21.72 72.4128 21.576 72.3328 21.4L68.9008 10.264C68.8848 10.184 68.8768 10.112 68.8768 10.048C68.8768 9.904 68.9248 9.784 69.0208 9.688C69.1328 9.576 69.2528 9.52 69.3808 9.52H71.1568C71.3488 9.52 71.5008 9.576 71.6128 9.688C71.7248 9.784 71.7888 9.88 71.8048 9.976L74.1568 17.92L76.6528 10.048C76.6848 9.936 76.7568 9.824 76.8688 9.712C76.9808 9.584 77.1488 9.52 77.3728 9.52H78.5728C78.7968 9.52 78.9648 9.584 79.0768 9.712C79.1888 9.824 79.2608 9.936 79.2928 10.048L81.7888 17.92L84.1408 9.976C84.1568 9.88 84.2128 9.784 84.3088 9.688C84.4208 9.576 84.5728 9.52 84.7648 9.52H86.5408C86.6848 9.52 86.8048 9.576 86.9008 9.688C87.0128 9.784 87.0688 9.904 87.0688 10.048C87.0688 10.112 87.0528 10.184 87.0208 10.264L83.5888 21.4C83.5408 21.576 83.4528 21.72 83.3248 21.832C83.2128 21.944 83.0448 22 82.8208 22H81.2608C81.0368 22 80.8608 21.944 80.7328 21.832C80.6048 21.72 80.5168 21.576 80.4688 21.4L77.9728 13.816L75.4768 21.4C75.4128 21.576 75.3168 21.72 75.1888 21.832C75.0768 21.944 74.9008 22 74.6608 22H73.1248ZM92.6533 22.24C91.8213 22.24 91.0693 22.08 90.3973 21.76C89.7253 21.424 89.1893 20.984 88.7893 20.44C88.4053 19.88 88.2133 19.256 88.2133 18.568C88.2133 17.448 88.6613 16.56 89.5573 15.904C90.4693 15.232 91.6693 14.784 93.1573 14.56L96.4453 14.08V13.576C96.4453 12.904 96.2773 12.384 95.9413 12.016C95.6053 11.648 95.0293 11.464 94.2133 11.464C93.6373 11.464 93.1653 11.584 92.7973 11.824C92.4453 12.048 92.1813 12.352 92.0053 12.736C91.8773 12.944 91.6933 13.048 91.4533 13.048H89.5573C89.3813 13.048 89.2453 13 89.1493 12.904C89.0693 12.808 89.0293 12.68 89.0293 12.52C89.0453 12.264 89.1493 11.952 89.3413 11.584C89.5333 11.216 89.8373 10.864 90.2533 10.528C90.6693 10.176 91.2053 9.88 91.8613 9.64C92.5173 9.4 93.3093 9.28 94.2373 9.28C95.2453 9.28 96.0933 9.408 96.7813 9.664C97.4853 9.904 98.0453 10.232 98.4613 10.648C98.8773 11.064 99.1813 11.552 99.3733 12.112C99.5653 12.672 99.6613 13.264 99.6613 13.888V21.424C99.6613 21.584 99.6053 21.72 99.4933 21.832C99.3813 21.944 99.2453 22 99.0853 22H97.1413C96.9653 22 96.8213 21.944 96.7093 21.832C96.6133 21.72 96.5653 21.584 96.5653 21.424V20.488C96.3573 20.792 96.0773 21.08 95.7253 21.352C95.3733 21.608 94.9413 21.824 94.4293 22C93.9333 22.16 93.3413 22.24 92.6533 22.24ZM93.4693 19.96C94.0293 19.96 94.5333 19.84 94.9813 19.6C95.4453 19.36 95.8053 18.992 96.0613 18.496C96.3333 17.984 96.4693 17.344 96.4693 16.576V16.072L94.0693 16.456C93.1253 16.6 92.4213 16.832 91.9573 17.152C91.4933 17.472 91.2613 17.864 91.2613 18.328C91.2613 18.68 91.3653 18.984 91.5733 19.24C91.7973 19.48 92.0773 19.664 92.4133 19.792C92.7493 19.904 93.1013 19.96 93.4693 19.96ZM104.668 26.56C104.54 26.56 104.428 26.512 104.332 26.416C104.236 26.32 104.188 26.208 104.188 26.08C104.188 26.016 104.188 25.952 104.188 25.888C104.204 25.84 104.236 25.776 104.284 25.696L106.156 21.256L101.548 10.384C101.484 10.224 101.452 10.112 101.452 10.048C101.468 9.904 101.524 9.784 101.62 9.688C101.716 9.576 101.836 9.52 101.98 9.52H103.924C104.116 9.52 104.26 9.568 104.356 9.664C104.452 9.76 104.524 9.864 104.572 9.976L107.764 17.824L111.052 9.976C111.1 9.848 111.172 9.744 111.268 9.664C111.364 9.568 111.508 9.52 111.7 9.52H113.62C113.748 9.52 113.86 9.568 113.956 9.664C114.068 9.76 114.124 9.872 114.124 10C114.124 10.096 114.092 10.224 114.028 10.384L107.236 26.104C107.172 26.232 107.092 26.336 106.996 26.416C106.9 26.512 106.756 26.56 106.564 26.56H104.668Z" fill="white"/>
<defs>
<clipPath id="clip0_60_5335">
<rect width="16" height="16" fill="white" transform="translate(66 22) rotate(90)"/>
</clipPath>
</defs>
</svg>
