<svg width="307" height="207" viewBox="0 0 307 207" fill="none" xmlns="http://www.w3.org/2000/svg">
<path d="M106.418 131.235C106.339 131.271 106.269 131.32 106.211 131.379C104.598 132.762 102.733 133.89 100.685 134.722C100.602 134.756 100.529 134.806 100.469 134.867C100.409 134.928 100.364 135 100.337 135.079C100.31 135.158 100.3 135.242 100.309 135.326C100.318 135.411 100.346 135.494 100.39 135.571C100.434 135.648 100.494 135.718 100.567 135.776C100.639 135.834 100.723 135.88 100.813 135.91C100.903 135.941 100.997 135.955 101.091 135.953C101.184 135.951 101.275 135.932 101.358 135.898C103.54 135.015 105.524 133.81 107.233 132.33C107.299 132.275 107.352 132.207 107.388 132.131C107.424 132.056 107.442 131.973 107.442 131.889C107.442 131.804 107.423 131.72 107.387 131.639C107.351 131.559 107.297 131.485 107.23 131.421C107.125 131.323 106.992 131.252 106.847 131.219C106.702 131.186 106.553 131.191 106.418 131.235ZM86.8212 135.72C86.7232 135.761 86.6378 135.822 86.5706 135.897C86.5034 135.973 86.456 136.061 86.4315 136.157C86.4144 136.239 86.4161 136.324 86.4363 136.408C86.4566 136.492 86.4951 136.572 86.5494 136.644C86.6038 136.717 86.673 136.779 86.7529 136.829C86.8329 136.879 86.9219 136.914 87.0148 136.933C87.7121 137.106 88.4434 137.246 89.1965 137.394C90.9241 137.662 92.6676 137.716 94.3774 137.554C94.5623 137.54 94.7279 137.459 94.8377 137.33C94.9475 137.201 94.9925 137.034 94.9628 136.866C94.933 136.698 94.8311 136.543 94.6793 136.435C94.5275 136.327 94.3382 136.274 94.1533 136.289C92.5669 136.425 90.9524 136.368 89.352 136.121C88.665 135.994 87.9544 135.858 87.2773 135.692C87.1242 135.658 86.9664 135.668 86.8272 135.721L86.8212 135.72ZM111.163 119.866C111.027 119.918 110.915 120.007 110.841 120.12C110.767 120.234 110.734 120.368 110.747 120.504C111.009 122.554 110.722 124.595 109.911 126.456C109.878 126.533 109.863 126.616 109.867 126.7C109.87 126.784 109.892 126.868 109.931 126.947C109.97 127.026 110.025 127.099 110.094 127.16C110.163 127.222 110.243 127.272 110.331 127.307C110.419 127.342 110.513 127.362 110.606 127.365C110.7 127.368 110.792 127.354 110.878 127.325C110.963 127.295 111.04 127.25 111.104 127.193C111.168 127.135 111.217 127.066 111.25 126.989C112.146 124.944 112.463 122.698 112.173 120.443C112.163 120.358 112.134 120.274 112.088 120.197C112.042 120.12 111.98 120.051 111.906 119.993C111.832 119.936 111.747 119.892 111.656 119.863C111.564 119.834 111.469 119.822 111.375 119.827C111.295 119.818 111.215 119.829 111.145 119.859L111.163 119.866ZM74.2408 129.229C74.1786 129.261 74.1199 129.299 74.0656 129.341C73.9943 129.392 73.9369 129.457 73.897 129.532C73.8571 129.606 73.8356 129.689 73.8339 129.774C73.8322 129.859 73.8504 129.944 73.8872 130.025C73.9241 130.106 73.9788 130.18 74.0478 130.243C75.767 131.952 77.7932 133.389 80.0293 134.487C80.2016 134.571 80.399 134.592 80.5784 134.546C80.7577 134.5 80.9044 134.391 80.9864 134.242C81.0262 134.169 81.0488 134.088 81.053 134.005C81.0571 133.921 81.0427 133.837 81.0105 133.756C80.9784 133.675 80.9292 133.6 80.8657 133.535C80.8023 133.469 80.7258 133.414 80.6408 133.374C78.5633 132.345 76.6779 131.007 75.0711 129.421C74.9683 129.315 74.8326 129.24 74.6842 129.206C74.5358 129.171 74.3825 129.18 74.2469 129.231L74.2408 129.229ZM104.214 108.467C104.138 108.5 104.069 108.544 104.011 108.599C103.947 108.655 103.897 108.723 103.864 108.798C103.831 108.874 103.815 108.956 103.818 109.039C103.821 109.122 103.842 109.205 103.881 109.284C103.919 109.362 103.974 109.434 104.041 109.495C105.728 111.041 107.196 112.767 108.408 114.626C108.456 114.703 108.521 114.771 108.597 114.827C108.673 114.883 108.76 114.926 108.853 114.952C108.945 114.978 109.042 114.988 109.136 114.981C109.23 114.973 109.32 114.948 109.401 114.908C109.48 114.87 109.549 114.818 109.604 114.755C109.659 114.691 109.699 114.618 109.721 114.538C109.743 114.459 109.747 114.375 109.733 114.292C109.718 114.209 109.686 114.128 109.638 114.054C108.358 112.093 106.808 110.274 105.03 108.643C104.925 108.541 104.789 108.47 104.642 108.44C104.495 108.41 104.345 108.422 104.212 108.474L104.214 108.467ZM237.032 59.1674C236.941 59.2021 236.861 59.2551 236.797 59.3226C236.735 59.3821 236.688 59.453 236.658 59.5312C236.629 59.6093 236.617 59.6931 236.624 59.7777C236.631 59.8624 236.656 59.9461 236.699 60.0241C236.742 60.1021 236.801 60.1728 236.872 60.2321C238.685 61.6978 240.392 63.2678 241.98 64.9307C242.112 65.0571 242.29 65.1363 242.477 65.1518C242.663 65.1673 242.844 65.1179 242.981 65.0138C243.119 64.9097 243.202 64.759 243.215 64.5929C243.227 64.4269 243.167 64.2583 243.048 64.1222C241.407 62.427 239.658 60.8175 237.811 59.3028C237.703 59.2187 237.573 59.1615 237.435 59.1376C237.298 59.1137 237.158 59.124 237.032 59.1674ZM68.4074 117.366C68.2657 117.41 68.1479 117.497 68.0726 117.612C67.9974 117.728 67.969 117.865 67.992 118.003C68.3377 120.204 68.9988 122.376 69.9586 124.463C69.9958 124.542 70.0495 124.615 70.1167 124.678C70.1839 124.74 70.2633 124.791 70.3502 124.827C70.4372 124.863 70.53 124.884 70.6233 124.888C70.7167 124.892 70.8087 124.88 70.8941 124.852C70.983 124.828 71.0641 124.788 71.1325 124.733C71.2008 124.679 71.255 124.612 71.2915 124.536C71.328 124.46 71.346 124.377 71.3446 124.291C71.3431 124.206 71.3222 124.121 71.2831 124.041C70.3629 122.059 69.7333 119.993 69.4111 117.899C69.3804 117.732 69.2782 117.577 69.1266 117.469C68.9751 117.361 68.7864 117.308 68.6016 117.322C68.5312 117.323 68.463 117.337 68.4013 117.364L68.4074 117.366ZM92.4895 100.384C92.355 100.435 92.245 100.524 92.1754 100.639C92.1305 100.712 92.1029 100.793 92.0943 100.878C92.0857 100.963 92.0962 101.05 92.1253 101.134C92.1544 101.217 92.2014 101.296 92.2636 101.365C92.3258 101.435 92.4019 101.493 92.4875 101.537C94.5773 102.647 96.6032 103.859 98.5552 105.167C98.709 105.273 98.8985 105.323 99.0832 105.307C99.2679 105.291 99.4329 105.21 99.5431 105.081C99.6522 104.945 99.6939 104.772 99.6593 104.599C99.6246 104.426 99.5163 104.267 99.3579 104.158C97.3602 102.808 95.2796 101.565 93.1282 100.437C93.0311 100.378 92.9202 100.342 92.8068 100.333C92.6934 100.324 92.5814 100.342 92.4823 100.385L92.4895 100.384ZM225.023 51.4938C224.868 51.5408 224.744 51.6424 224.679 51.7764C224.639 51.8497 224.616 51.9305 224.611 52.0141C224.607 52.0977 224.621 52.1824 224.654 52.2634C224.686 52.3443 224.735 52.4198 224.799 52.4856C224.862 52.5513 224.939 52.6059 225.024 52.6463C227.142 53.7011 229.199 54.86 231.187 56.1173C231.349 56.2176 231.543 56.2605 231.73 56.2369C231.916 56.2133 232.08 56.125 232.187 55.9905C232.237 55.9233 232.271 55.8468 232.287 55.7656C232.303 55.6843 232.301 55.5999 232.28 55.5171C232.26 55.4343 232.222 55.3547 232.168 55.283C232.115 55.2112 232.046 55.1487 231.968 55.099C229.933 53.8019 227.821 52.612 225.643 51.5359C225.548 51.4867 225.442 51.4569 225.335 51.449C225.227 51.4411 225.121 51.4552 225.024 51.4902L225.023 51.4938ZM68.7864 104.583C68.6785 104.62 68.5841 104.68 68.5111 104.759C68.4382 104.838 68.3889 104.933 68.3674 105.037C67.9821 107.153 67.7412 109.297 67.6459 111.458C67.6404 111.544 67.654 111.631 67.686 111.714C67.718 111.797 67.7678 111.875 67.8323 111.943C67.8968 112.01 67.9749 112.067 68.0618 112.109C68.1488 112.151 68.243 112.177 68.3388 112.186C68.5278 112.198 68.7094 112.144 68.8468 112.037C68.9841 111.929 69.0669 111.776 69.0783 111.607C69.164 109.5 69.4037 107.409 69.7961 105.349C69.817 105.235 69.8027 105.115 69.7548 105.003C69.7068 104.891 69.627 104.79 69.5236 104.712C69.4202 104.633 69.2972 104.58 69.1675 104.557C69.0377 104.534 68.9061 104.543 68.7864 104.583ZM79.2552 94.6613C79.1646 94.6899 79.0842 94.7376 79.0202 94.8004C78.9562 94.8633 78.9104 94.9398 78.8863 95.0238C78.8283 95.184 78.8452 95.363 78.9331 95.5215C79.0211 95.68 79.173 95.8052 79.3556 95.8696C81.592 96.6134 83.8335 97.485 86.0543 98.4316C86.1418 98.4692 86.2354 98.4914 86.3298 98.4968C86.4243 98.5023 86.5177 98.4909 86.6046 98.4634C86.6915 98.4359 86.7703 98.3928 86.8363 98.3365C86.9024 98.2803 86.9545 98.212 86.9896 98.1356C87.0523 97.9806 87.0463 97.8058 86.9728 97.6458C86.8992 97.4857 86.7634 97.352 86.5921 97.2711C84.3291 96.3115 82.0432 95.4264 79.7709 94.6483C79.5982 94.5968 79.4153 94.5991 79.2528 94.6547L79.2552 94.6613ZM211.54 46.3396C211.446 46.3751 211.364 46.4294 211.298 46.4984C211.232 46.5674 211.185 46.6497 211.16 46.7393C211.135 46.8194 211.13 46.9044 211.143 46.989C211.157 47.0736 211.189 47.156 211.239 47.2312C211.289 47.3063 211.354 47.3727 211.432 47.426C211.509 47.4793 211.597 47.5186 211.689 47.5413C214.016 48.212 216.323 48.9775 218.477 49.8106C218.566 49.844 218.66 49.8616 218.753 49.8624C218.847 49.8633 218.939 49.8472 219.023 49.8153C219.107 49.7834 219.182 49.7363 219.243 49.6766C219.305 49.617 219.351 49.546 219.381 49.4679C219.414 49.3922 219.429 49.3101 219.426 49.2265C219.422 49.1429 219.4 49.0596 219.36 48.9817C219.32 48.9037 219.263 48.8328 219.194 48.7732C219.124 48.7137 219.042 48.6667 218.954 48.6351C216.726 47.7892 214.406 47.0177 212.036 46.3263C211.87 46.2771 211.694 46.2818 211.54 46.3396ZM2.43356 119.125C2.33688 119.158 2.25089 119.211 2.18144 119.279C2.112 119.347 2.06072 119.428 2.03107 119.518C1.44038 121.595 1.0548 123.728 0.878729 125.891C0.871807 125.975 0.883368 126.059 0.912693 126.141C0.942007 126.223 0.988543 126.299 1.04964 126.367C1.11073 126.434 1.18518 126.491 1.26874 126.534C1.35229 126.578 1.4433 126.606 1.53659 126.618C1.62989 126.631 1.72367 126.626 1.81251 126.606C1.90136 126.585 1.98353 126.549 2.0544 126.498C2.12526 126.448 2.18339 126.385 2.22546 126.313C2.26755 126.241 2.29281 126.161 2.29971 126.078C2.47076 123.988 2.84912 121.929 3.43037 119.926C3.4532 119.846 3.45755 119.761 3.44317 119.677C3.42879 119.593 3.396 119.512 3.34669 119.437C3.29736 119.362 3.23253 119.296 3.15604 119.242C3.07955 119.188 2.99293 119.148 2.90132 119.124C2.74596 119.077 2.58122 119.077 2.43356 119.125ZM197.431 43.3876C197.317 43.426 197.218 43.4922 197.146 43.579C197.075 43.6659 197.031 43.7704 197.021 43.8814C197.012 43.9642 197.021 44.0491 197.049 44.131C197.076 44.213 197.121 44.2904 197.181 44.3587C197.241 44.427 197.314 44.4849 197.397 44.5289C197.48 44.5729 197.571 44.6023 197.664 44.6152C200.068 44.9622 202.452 45.3766 204.724 45.8444C204.818 45.864 204.915 45.8669 205.007 45.853C205.1 45.839 205.188 45.8084 205.265 45.763C205.342 45.7176 205.408 45.6582 205.457 45.5882C205.507 45.5183 205.54 45.4392 205.555 45.3554C205.58 45.187 205.532 45.0115 205.419 44.8657C205.306 44.7198 205.138 44.6149 204.949 44.5728C202.627 44.111 200.225 43.6851 197.791 43.3544C197.667 43.3298 197.541 43.3415 197.431 43.3876ZM65.2721 90.9702C65.1638 91.0055 65.0699 91.0666 64.9999 91.1474C64.9298 91.2282 64.8862 91.3258 64.8733 91.4302C64.8585 91.5132 64.8627 91.5993 64.8855 91.6832C64.9084 91.7672 64.9495 91.8474 65.0063 91.919C65.0632 91.9907 65.1347 92.0524 65.2166 92.1004C65.2985 92.1484 65.3892 92.1819 65.4832 92.1987C67.5662 92.5864 69.6314 93.0798 71.6685 93.6765C71.003 95.3917 70.3999 97.1046 69.8808 98.8024C69.8572 98.8833 69.852 98.9687 69.8654 99.0537C69.8789 99.1388 69.9107 99.2218 69.9591 99.2981C70.0075 99.3743 70.0716 99.4423 70.1475 99.4981C70.2235 99.5539 70.3099 99.5964 70.4018 99.6233C70.584 99.6741 70.776 99.6615 70.9383 99.5881C71.1006 99.5147 71.221 99.3861 71.2747 99.2286C71.8746 97.2664 72.576 95.2751 73.375 93.2748C73.4397 93.1199 73.4319 92.9439 73.3533 92.7849C73.2748 92.6258 73.132 92.4965 72.9555 92.4249C72.8321 92.3751 72.698 92.3568 72.5687 92.3723C72.4394 92.3877 72.3204 92.4361 72.2252 92.512C70.0668 91.8755 67.8778 91.3507 65.6694 90.9403C65.5282 90.9182 65.3857 90.9317 65.2582 90.9795L65.2721 90.9702ZM8.27518 107.853C8.15859 107.895 8.05743 107.964 7.98053 108.052C6.61783 109.763 5.43168 111.589 4.43541 113.508C4.39417 113.582 4.37094 113.664 4.36714 113.749C4.36333 113.834 4.37906 113.921 4.41333 114.002C4.4476 114.084 4.49964 114.16 4.56635 114.226C4.63307 114.291 4.71302 114.344 4.80122 114.382C4.97232 114.462 5.16671 114.481 5.34308 114.435C5.51945 114.389 5.6639 114.281 5.74568 114.135C6.71662 112.281 7.86148 110.512 9.16873 108.848C9.22196 108.781 9.25923 108.705 9.27833 108.624C9.29745 108.542 9.29806 108.457 9.28009 108.373C9.26212 108.288 9.22591 108.207 9.17364 108.133C9.12137 108.059 9.05407 107.995 8.97558 107.943C8.87366 107.874 8.75517 107.829 8.63213 107.814C8.5091 107.798 8.38591 107.811 8.27518 107.853ZM78.126 80.9962C77.987 81.0396 77.8756 81.1305 77.8145 81.2502C76.6863 83.0935 75.6616 84.9879 74.7036 86.895C74.6645 86.9687 74.6431 87.0498 74.6408 87.1335C74.6384 87.2172 74.6551 87.3017 74.6898 87.3818C74.7246 87.462 74.7766 87.536 74.8428 87.5996C74.9089 87.6631 74.9879 87.7148 75.0747 87.7515C75.1609 87.793 75.2542 87.819 75.3491 87.8281C75.4441 87.8371 75.5387 87.829 75.6274 87.8042C75.7161 87.7793 75.797 87.7383 75.8654 87.6835C75.9337 87.6287 75.988 87.5613 76.0252 87.4853C76.9513 85.6034 77.9928 83.7335 79.0869 81.9224C79.165 81.7755 79.1754 81.6032 79.116 81.4408C79.0566 81.2784 78.9318 81.1381 78.7673 81.0487C78.6708 80.9883 78.5597 80.9516 78.4459 80.9425C78.3321 80.9333 78.22 80.9521 78.1214 80.9968L78.126 80.9962ZM183.108 42.2059C182.98 42.2496 182.872 42.328 182.799 42.4309C182.726 42.5338 182.691 42.6564 182.698 42.7827C182.705 42.9526 182.785 43.1183 182.921 43.2446C183.057 43.371 183.239 43.4482 183.428 43.46C185.85 43.5194 188.248 43.655 190.559 43.8455C190.653 43.8539 190.747 43.8457 190.835 43.8212C190.924 43.7967 191.004 43.7564 191.073 43.7027C191.142 43.6489 191.197 43.5827 191.236 43.5078C191.274 43.433 191.295 43.351 191.298 43.2664C191.301 43.1819 191.285 43.0965 191.251 43.0152C191.217 42.9339 191.167 42.8581 191.102 42.7924C191.037 42.7266 190.959 42.672 190.873 42.6318C190.787 42.5917 190.694 42.5666 190.599 42.5581C188.231 42.3694 185.82 42.2318 183.378 42.1662C183.285 42.1656 183.194 42.179 183.108 42.2059ZM50.984 89.8203C50.8269 89.8715 50.6996 89.9732 50.6254 90.1069C50.5512 90.2406 50.5349 90.3974 50.5796 90.5486C50.6243 90.6999 50.7269 90.8355 50.8688 90.9308C51.0107 91.0261 51.1824 91.0748 51.3525 91.0678C53.7025 91.0247 56.0622 91.0921 58.422 91.2698C58.5158 91.278 58.6092 91.2692 58.6965 91.244C58.7839 91.2188 58.8634 91.1777 58.9305 91.1232C58.9976 91.0686 59.0508 91.0017 59.087 90.9263C59.1232 90.851 59.1417 90.7688 59.1413 90.6846C59.1464 90.514 59.0757 90.3436 58.9447 90.2108C58.8137 90.0781 58.6331 89.9937 58.4425 89.9763C56.0266 89.7922 53.6109 89.7285 51.2064 89.7854C51.1269 89.7822 51.0485 89.7932 50.9759 89.8178L50.984 89.8203ZM18.037 99.1548C17.9853 99.1629 17.9383 99.1842 17.9014 99.2162C15.996 100.441 14.2025 101.796 12.5351 103.269C12.4108 103.385 12.3445 103.543 12.3502 103.71C12.3558 103.877 12.4331 104.04 12.5657 104.165C12.633 104.23 12.7134 104.283 12.8019 104.32C12.8903 104.358 12.9851 104.379 13.0804 104.383C13.1756 104.387 13.2694 104.374 13.3561 104.344C13.4428 104.314 13.5205 104.268 13.5846 104.209C15.2017 102.781 16.937 101.464 18.7775 100.268C18.92 100.183 19.0177 100.051 19.051 99.897C19.0844 99.7433 19.0509 99.5799 18.9573 99.4392C18.8637 99.2986 18.7169 99.1912 18.5463 99.1384C18.3757 99.0857 18.1938 99.0915 18.037 99.1548ZM36.9709 91.4723C36.815 91.5296 36.6916 91.6373 36.6234 91.7755C36.5552 91.9137 36.5468 92.073 36.5998 92.2241C36.6253 92.3067 36.6688 92.3849 36.7277 92.4541C36.7866 92.5233 36.8596 92.5821 36.9424 92.6268C37.0252 92.6715 37.1161 92.7013 37.2095 92.7143C37.3029 92.7273 37.3969 92.7233 37.4859 92.7026C39.7385 92.2082 42.0261 91.8198 44.3398 91.5389C44.4323 91.5292 44.5204 91.5031 44.5991 91.4619C44.6778 91.4207 44.7456 91.3654 44.7984 91.299C44.8513 91.2326 44.8883 91.1565 44.9073 91.075C44.9262 90.9936 44.9268 90.9084 44.909 90.8244C44.8667 90.6538 44.7524 90.5001 44.5909 90.3967C44.4294 90.2932 44.2336 90.2482 44.0457 90.2714C41.6818 90.5513 39.3455 90.9463 37.0468 91.4548C37.0192 91.4658 36.991 91.4785 36.9709 91.4723ZM28.8099 93.8447C27.1189 94.4626 25.449 95.1703 23.8643 95.9022C23.7018 95.9819 23.5852 96.1181 23.5398 96.2817C23.4943 96.4452 23.5235 96.6229 23.6212 96.7765C23.6687 96.8512 23.7317 96.9176 23.8063 96.972C23.881 97.0264 23.9659 97.0677 24.0561 97.0935C24.1462 97.1193 24.24 97.129 24.3318 97.1222C24.4236 97.1153 24.5116 97.092 24.5908 97.0536C26.623 96.1067 28.7208 95.2669 30.8743 94.5379C30.9652 94.5119 31.0478 94.4692 31.1172 94.4123C31.1867 94.3553 31.2415 94.2854 31.2783 94.2068C31.315 94.1282 31.333 94.0425 31.3312 93.9549C31.3293 93.8673 31.3076 93.7797 31.2675 93.6975C31.2273 93.6152 31.1694 93.5399 31.0974 93.4763C31.0254 93.4126 30.9408 93.3619 30.8487 93.3273C30.7565 93.2926 30.6589 93.2747 30.5616 93.2747C30.4643 93.2746 30.3695 93.2924 30.2829 93.3269C29.7932 93.4857 29.3117 93.6683 28.8114 93.8471L28.8099 93.8447ZM168.837 42.4656C168.697 42.5114 168.58 42.5982 168.505 42.713C168.431 42.8277 168.401 42.964 168.422 43.1012C168.45 43.27 168.55 43.4269 168.7 43.5384C168.85 43.65 169.039 43.7072 169.225 43.698C171.62 43.5434 174.011 43.4695 176.327 43.4131C176.42 43.4117 176.51 43.3937 176.592 43.3602C176.675 43.3267 176.748 43.2783 176.807 43.2179C176.867 43.1574 176.912 43.0861 176.939 43.008C176.966 42.93 176.976 42.8467 176.967 42.7629C176.947 42.5906 176.852 42.4276 176.704 42.3094C176.555 42.1912 176.364 42.1276 176.174 42.1324C173.842 42.1625 171.439 42.2737 169.032 42.405C168.958 42.4114 168.888 42.4322 168.826 42.4661L168.837 42.4656ZM85.6 70.5104C85.4895 70.5471 85.3941 70.6103 85.3234 70.6936C83.9629 72.301 82.6185 74.0143 81.3275 75.8273C81.2301 75.967 81.2008 76.1397 81.2461 76.3079C81.2913 76.476 81.4073 76.6261 81.569 76.7256C81.6477 76.7757 81.7355 76.8121 81.8274 76.8326C81.9194 76.8531 82.0136 76.8573 82.1047 76.8449C82.1958 76.8326 82.282 76.8039 82.3583 76.7606C82.4346 76.7173 82.4995 76.6603 82.5493 76.5927C83.8243 74.7961 85.143 73.0944 86.4896 71.5254C86.5997 71.3924 86.6444 71.2223 86.6144 71.0511C86.5843 70.88 86.4818 70.7213 86.3286 70.609C86.2195 70.5385 86.0946 70.4922 85.9649 70.4743C85.8353 70.4563 85.7051 70.4672 85.5859 70.5061L85.6 70.5104ZM154.738 43.8491C154.588 43.9006 154.466 43.9986 154.393 44.1264C154.32 44.2542 154.3 44.4041 154.336 44.5507C154.386 44.7178 154.504 44.866 154.665 44.9651C154.827 45.0643 155.02 45.1068 155.205 45.0841C157.533 44.7638 159.89 44.4948 162.186 44.2697C162.279 44.26 162.367 44.2338 162.446 44.1927C162.524 44.1516 162.592 44.0963 162.645 44.03C162.698 43.9637 162.736 43.8877 162.755 43.8064C162.774 43.725 162.775 43.6398 162.758 43.5558C162.724 43.3854 162.619 43.2289 162.463 43.1198C162.308 43.0106 162.116 42.9577 161.928 42.9723C159.603 43.2102 157.239 43.4981 154.891 43.8123C154.836 43.8134 154.784 43.826 154.738 43.8491ZM140.874 46.2316C140.72 46.2857 140.598 46.3904 140.531 46.5258C140.463 46.6611 140.455 46.8177 140.509 46.9657C140.533 47.0488 140.575 47.1279 140.633 47.1982C140.691 47.2685 140.763 47.3286 140.845 47.3749C140.927 47.4212 141.018 47.4528 141.111 47.4678C141.205 47.4827 141.299 47.4807 141.389 47.4619C143.671 46.9838 145.983 46.5558 148.261 46.1601C148.444 46.1271 148.6 46.03 148.696 45.8896C148.791 45.7491 148.819 45.5766 148.773 45.4088C148.751 45.3249 148.711 45.2447 148.654 45.1729C148.598 45.1012 148.527 45.0394 148.445 44.9913C148.363 44.9431 148.273 44.9096 148.179 44.8928C148.085 44.8759 147.99 44.876 147.899 44.8931C145.598 45.2837 143.28 45.7294 140.979 46.2014C140.95 46.2141 140.902 46.2207 140.874 46.2316ZM95.286 61.6922C95.2544 61.7233 95.2002 61.7494 95.1666 61.7798C93.2546 63.003 91.4824 64.3877 89.8718 65.917C89.7459 66.0401 89.6823 66.2062 89.6948 66.3798C89.7074 66.5534 89.7949 66.7205 89.9387 66.8453C90.0789 66.9675 90.2635 67.038 90.4518 67.0414C90.6402 67.0448 90.817 66.9808 90.9434 66.8634C92.5007 65.3814 94.2075 64.0326 96.0448 62.8321C96.1193 62.7858 96.1818 62.726 96.2286 62.6562C96.2755 62.5863 96.3059 62.5079 96.3181 62.4252C96.3302 62.3426 96.3239 62.2575 96.2994 62.1747C96.275 62.0919 96.2328 62.0131 96.1755 61.9428C96.07 61.8235 95.9272 61.7349 95.7679 61.6901C95.6087 61.6452 95.4412 61.6464 95.29 61.6934L95.286 61.6922ZM127.299 49.5095C127.136 49.5655 127.008 49.6779 126.942 49.8229C126.876 49.9679 126.877 50.1345 126.945 50.2876C126.978 50.3688 127.029 50.4444 127.093 50.5099C127.158 50.5755 127.236 50.6297 127.322 50.6694C127.408 50.7091 127.501 50.7335 127.595 50.7412C127.69 50.749 127.783 50.7398 127.871 50.7143C130.072 50.1088 132.34 49.5237 134.594 48.9752C134.685 48.9553 134.769 48.9189 134.841 48.8682C134.914 48.8175 134.973 48.7535 135.016 48.6799C135.058 48.6064 135.083 48.5249 135.09 48.4401C135.096 48.3553 135.083 48.2691 135.052 48.1864C135.021 48.1038 134.972 48.0264 134.908 47.9589C134.844 47.8914 134.767 47.8351 134.681 47.7933C134.595 47.7515 134.501 47.7252 134.406 47.7157C134.311 47.7063 134.216 47.714 134.127 47.7384C131.851 48.2801 129.59 48.873 127.356 49.484C127.334 49.4773 127.328 49.4968 127.299 49.5095ZM107.647 56.0217L107.641 56.0412C105.455 56.8997 103.328 57.7974 101.311 58.7077C101.151 58.7826 101.034 58.9132 100.985 59.0718C100.937 59.2302 100.961 59.404 101.052 59.5559C101.144 59.7077 101.295 59.8256 101.474 59.8843C101.653 59.943 101.846 59.9379 102.01 59.87C104.019 58.9769 106.126 58.0748 108.284 57.2291C108.452 57.1589 108.579 57.03 108.637 56.87C108.694 56.71 108.678 56.5315 108.592 56.3727C108.506 56.2188 108.36 56.0965 108.183 56.031C108.007 55.9655 107.814 55.962 107.645 56.0211L107.647 56.0217ZM114.097 53.6403C114.012 53.6698 113.936 53.7145 113.873 53.7718C113.81 53.8292 113.761 53.8981 113.729 53.9745C113.697 54.0509 113.682 54.1334 113.687 54.2171C113.691 54.3009 113.713 54.3843 113.753 54.4625C113.835 54.6179 113.979 54.7432 114.154 54.8123C114.329 54.8814 114.522 54.889 114.694 54.8335C116.825 54.0825 119.019 53.3487 121.245 52.6693C121.415 52.6097 121.548 52.4914 121.617 52.3391C121.685 52.1868 121.683 52.0124 121.611 51.8522C121.576 51.7721 121.524 51.6979 121.458 51.6339C121.392 51.5699 121.313 51.5174 121.226 51.4794C121.14 51.4414 121.047 51.4187 120.953 51.4125C120.86 51.4062 120.767 51.4167 120.68 51.4433C118.449 52.1445 116.234 52.8697 114.103 53.6208L114.097 53.6403Z" fill="white"/>
<path d="M288.483 103.851C287.997 103.6 275.827 94.1431 275.827 94.1431C263.53 95.9336 252.809 97.5447 240.24 99.6033L237.757 97.5231L246.029 93.9449C245.507 93.2712 244.716 92.1001 245.067 91.7944C245.419 91.4886 246.919 92.5682 247.759 93.1993L252.43 91.1896C252.43 91.1896 250.587 88.9346 251.047 88.4972C251.507 88.0598 254.323 90.3658 254.323 90.3658L258.484 88.5633C258.484 88.5633 256.623 86.1378 257.396 85.6309C258.168 85.1241 261.142 87.4978 261.142 87.4978L265.431 85.8992C259.754 81.5345 254.344 76.891 249.229 71.9927L237.853 72.9903L235.916 70.955C247.63 67.5524 246.359 68.1027 248.588 57.6448L251.181 58.6023L251.954 69.2099C251.954 69.2099 253.021 69.7825 255.638 71.6553C258.255 73.5282 269.2 81.6217 269.2 81.6217L270.06 77.6554C270.06 77.6554 267.098 75.223 267.366 74.7288C267.634 74.2346 270.862 76.1857 270.862 76.1857L272.475 71.2934C272.475 71.2934 269.825 69.3697 270.28 68.8764C270.735 68.3832 272.964 69.6154 272.964 69.6154L274.292 65.5031C273.528 64.7477 272.345 63.5074 272.679 63.1961C272.948 62.9274 274.045 63.4083 274.831 63.8328L277.481 55.5465L280.795 57.6927C280.136 69.1058 279.449 79.1678 279.735 90.3579C289.398 98.49 291.095 99.8448 291.095 99.8448C295.269 104.533 295.625 107.587 288.483 103.851Z" fill="white"/>
</svg>
