<svg width="479" height="445" viewBox="0 0 479 445" fill="none" xmlns="http://www.w3.org/2000/svg">
<path d="M321.862 110.207C320.526 110.207 319.191 109.879 318.022 109.222C285.967 92.9646 258.252 86.0675 225.028 86.0675C191.971 86.0675 160.584 93.7857 132.035 109.222C128.028 111.357 123.019 109.879 120.682 105.938C118.511 101.997 120.014 96.9059 124.021 94.771C155.074 78.1851 189.133 69.6458 225.028 69.6458C260.59 69.6458 291.643 77.364 325.702 94.6068C329.876 96.7416 331.379 101.668 329.208 105.609C327.706 108.565 324.867 110.207 321.862 110.207V110.207ZM82.9498 196.422C81.2802 196.422 79.6107 195.929 78.1081 194.944C74.2681 192.316 73.4334 187.225 76.1046 183.448C92.6332 160.458 113.669 142.394 138.713 129.749C191.137 103.146 258.252 102.982 310.843 129.585C335.886 142.23 356.923 160.13 373.451 182.956C376.122 186.569 375.288 191.824 371.448 194.451C367.608 197.079 362.432 196.257 359.761 192.48C344.735 171.789 325.702 155.531 303.163 144.2C255.247 120.061 193.975 120.061 146.226 144.365C123.52 155.86 104.487 172.282 89.461 192.973C88.1254 195.272 85.6211 196.422 82.9498 196.422V196.422ZM187.297 394.632C185.126 394.632 182.956 393.811 181.453 392.169C166.928 377.882 159.081 368.686 147.895 348.815C136.375 328.617 130.365 303.984 130.365 277.545C130.365 228.772 172.771 189.032 224.861 189.032C276.951 189.032 319.358 228.772 319.358 277.545C319.358 282.143 315.685 285.756 311.01 285.756C306.335 285.756 302.662 282.143 302.662 277.545C302.662 237.804 267.769 205.454 224.861 205.454C181.954 205.454 147.06 237.804 147.06 277.545C147.06 301.192 152.403 323.033 162.587 340.769C173.272 359.654 180.618 367.7 193.474 380.509C196.646 383.794 196.646 388.885 193.474 392.169C191.637 393.811 189.467 394.632 187.297 394.632ZM307.003 364.252C287.136 364.252 269.605 359.325 255.247 349.637C230.371 333.051 215.512 306.119 215.512 277.545C215.512 272.947 219.185 269.334 223.86 269.334C228.534 269.334 232.207 272.947 232.207 277.545C232.207 300.7 244.228 322.541 264.597 336.006C276.45 343.889 290.308 347.666 307.003 347.666C311.01 347.666 317.688 347.173 324.366 346.024C328.874 345.203 333.215 348.159 334.05 352.757C334.885 357.191 331.879 361.46 327.205 362.281C317.688 364.088 309.341 364.252 307.003 364.252V364.252ZM273.445 398.081C272.777 398.081 271.943 397.916 271.275 397.752C244.729 390.527 227.366 380.838 209.168 363.267C185.794 340.44 172.938 310.06 172.938 277.545C172.938 250.942 195.978 229.265 224.361 229.265C252.743 229.265 275.783 250.942 275.783 277.545C275.783 295.116 291.309 309.403 310.509 309.403C329.709 309.403 345.236 295.116 345.236 277.545C345.236 215.635 290.976 165.385 224.194 165.385C176.778 165.385 133.37 191.331 113.836 231.564C107.325 244.866 103.986 260.466 103.986 277.545C103.986 290.354 105.155 310.553 115.172 336.828C116.842 341.097 114.671 345.86 110.33 347.337C105.99 348.98 101.148 346.681 99.6453 342.575C91.4645 321.063 87.4576 299.714 87.4576 277.545C87.4576 257.839 91.2975 239.939 98.8105 224.339C121.015 178.522 170.267 148.799 224.194 148.799C300.158 148.799 361.931 206.439 361.931 277.381C361.931 303.984 338.892 325.661 310.509 325.661C282.127 325.661 259.087 303.984 259.087 277.381C259.087 259.81 243.56 245.523 224.361 245.523C205.161 245.523 189.634 259.81 189.634 277.381C189.634 305.462 200.653 331.737 220.854 351.443C236.715 366.879 251.908 375.419 275.449 381.823C279.956 382.973 282.461 387.571 281.292 391.84C280.457 395.617 276.951 398.081 273.445 398.081V398.081Z" fill="url(#paint0_linear_85_17800)"/>
<path d="M278.005 255.761C274.192 256.379 270.537 257.78 267.267 259.878C258.739 265.194 254.153 273.357 257.026 278.109C259.898 282.862 269.141 282.403 277.67 277.087C280.992 275.076 283.877 272.402 286.149 269.232C287.198 267.696 287.257 265.689 286.302 264.112L282.57 257.938C281.619 256.357 279.828 255.504 278.005 255.761Z" fill="#D5D6DB"/>
<path d="M249.466 173.183C246.7 173.631 244.05 174.648 241.679 176.169C235.496 180.023 232.169 185.942 234.25 189.385C236.331 192.828 243.036 192.494 249.218 188.641C251.627 187.182 253.719 185.242 255.366 182.943C256.126 181.83 256.169 180.376 255.476 179.233L252.773 174.762C252.085 173.616 250.787 172.997 249.466 173.183Z" fill="#D5D6DB"/>
<path d="M213.103 173.795C212.471 173.674 211.816 173.798 211.266 174.142L196.742 183.195C195.527 183.95 195.138 185.551 195.873 186.772C196.041 187.052 196.261 187.296 196.521 187.492L236.205 217.564L284.633 187.378L213.103 173.795Z" fill="#078CDE"/>
<path d="M373.902 182.154L242.029 263.178L162.529 291.19L121.337 296.74L116.125 288.19L336.157 156.07C342.712 152.113 350.182 149.946 357.81 149.788C361.152 149.738 364.483 150.107 367.726 150.885C370.6 151.552 373.359 152.627 375.92 154.079C378.781 155.72 384.035 156.283 385.945 159.266C385.95 159.262 390.929 172.671 373.902 182.154V182.154Z" fill="#E1E6E9"/>
<path d="M242.968 251.206L190.423 346.934C189.778 348.286 190.34 349.897 191.677 350.532C192.497 350.922 193.461 350.866 194.239 350.383L208.755 341.383C211.546 339.651 213.963 337.366 215.854 334.669L321.545 200.072L242.968 251.206Z" fill="#078CDE"/>
<path d="M91.3416 236.389C90.3143 235.955 89.1372 236.05 88.1817 236.645L76.1848 244.114C74.55 245.131 74.0283 247.285 75.0191 248.927C75.2078 249.239 75.4436 249.519 75.719 249.755L113.285 282.14L148.661 260.615L91.3416 236.389Z" fill="#078CDE"/>
<path d="M125.539 288.384L108.581 314.893C108.331 315.273 108.434 315.782 108.811 316.029C109.082 316.207 109.434 316.206 109.707 316.025L120.921 309.082C121.008 309.028 121.085 308.958 121.147 308.876L146.326 275.527L125.539 288.384Z" fill="#078CDE"/>
<path d="M365.54 151.918C362.2 151.112 358.769 150.734 355.327 150.791C352.32 155.482 350.576 160.875 350.269 166.433C350.3 167.556 351.227 168.433 352.34 168.392C352.686 168.379 353.024 168.277 353.321 168.094L373.981 155.228C371.342 153.722 368.5 152.607 365.54 151.918Z" fill="#078CDE"/>
<path d="M320.149 175.016L333.644 166.693L348.614 191.27L335.119 199.593L320.149 175.016Z" fill="#D5D6DB"/>
<path d="M311.911 183.663C310.285 184.669 309.764 186.801 310.748 188.424L312.342 191.053C313.379 192.64 315.512 193.067 317.104 192.006C318.62 190.996 319.111 188.987 318.228 187.41L316.634 184.781C315.651 183.159 313.537 182.659 311.911 183.663V183.663Z" fill="#3A556A"/>
<path d="M299.771 191.003C298.146 192.009 297.624 194.14 298.608 195.763L300.202 198.392C301.24 199.98 303.372 200.407 304.965 199.346C306.48 198.335 306.972 196.327 306.088 194.749L304.494 192.12C303.51 190.499 301.397 189.998 299.771 191.003V191.003Z" fill="#3A556A"/>
<path d="M287.628 198.344C286.004 199.352 285.485 201.481 286.468 203.103L288.062 205.732C289.1 207.319 291.232 207.746 292.825 206.685C294.341 205.674 294.832 203.666 293.948 202.089L292.354 199.46C291.37 197.837 289.255 197.337 287.628 198.344V198.344Z" fill="#3A556A"/>
<path d="M275.489 205.683C273.865 206.691 273.346 208.821 274.329 210.442L275.923 213.071C276.961 214.659 279.093 215.086 280.686 214.025C282.201 213.014 282.693 211.006 281.809 209.428L280.215 206.799C279.23 205.176 277.115 204.677 275.489 205.683V205.683Z" fill="#3A556A"/>
<path d="M263.351 213.024C261.726 214.032 261.206 216.162 262.19 217.784L263.785 220.414C264.768 222.036 266.883 222.535 268.508 221.529C270.134 220.523 270.654 218.393 269.671 216.772L268.076 214.142C267.095 212.519 264.981 212.018 263.354 213.021C263.353 213.022 263.352 213.023 263.351 213.024Z" fill="#3A556A"/>
<path d="M251.211 220.363C249.587 221.371 249.067 223.501 250.051 225.124L251.645 227.754C252.629 229.375 254.743 229.874 256.369 228.869C257.994 227.863 258.515 225.733 257.532 224.111L255.937 221.481C254.956 219.858 252.842 219.357 251.215 220.361C251.213 220.362 251.212 220.363 251.211 220.363Z" fill="#3A556A"/>
<path d="M239.071 227.703C237.447 228.711 236.927 230.841 237.911 232.463L239.505 235.094C240.491 236.714 242.606 237.209 244.23 236.202C245.85 235.196 246.37 233.071 245.391 231.452L243.796 228.821C242.813 227.199 240.698 226.698 239.071 227.703Z" fill="#3A556A"/>
<path d="M226.932 235.042C225.307 236.051 224.787 238.181 225.771 239.803L227.366 242.433C228.351 244.053 230.466 244.549 232.09 243.542C233.71 242.536 234.23 240.41 233.251 238.791L231.656 236.161C230.673 234.538 228.558 234.037 226.932 235.042Z" fill="#3A556A"/>
<path d="M214.792 242.382C213.168 243.39 212.648 245.52 213.632 247.142L215.226 249.772C216.212 251.392 218.327 251.888 219.951 250.881C221.571 249.875 222.091 247.75 221.112 246.13L219.517 243.5C218.533 241.878 216.419 241.377 214.792 242.382Z" fill="#3A556A"/>
<path d="M202.649 249.723C201.024 250.729 200.503 252.859 201.486 254.48L201.489 254.484L203.083 257.114C204.069 258.734 206.184 259.23 207.808 258.222C209.428 257.216 209.948 255.091 208.969 253.472L207.374 250.841C206.391 249.219 204.276 248.718 202.649 249.723Z" fill="#3A556A"/>
<path d="M190.513 257.061C188.888 258.067 188.367 260.196 189.35 261.818L189.352 261.821L190.946 264.452C191.932 266.072 194.047 266.568 195.671 265.561C197.291 264.556 197.811 262.431 196.832 260.811L195.238 258.181C194.254 256.558 192.139 256.057 190.513 257.061Z" fill="#3A556A"/>
<defs>
<linearGradient id="paint0_linear_85_17800" x1="224.778" y1="69.6458" x2="224.778" y2="398.081" gradientUnits="userSpaceOnUse">
<stop stop-color="#91D3FF"/>
<stop offset="1" stop-color="#0053A6" stop-opacity="0.4"/>
</linearGradient>
</defs>
</svg>
