<svg width="280" height="278" viewBox="0 0 280 278" fill="none" xmlns="http://www.w3.org/2000/svg">
<path d="M155.15 55.6922C154.775 55.9581 142.892 60.7258 142.892 60.7258C139.804 70.6355 137.16 79.278 134.204 89.5291L131.648 90.4414L131.853 82.7033C131.128 82.7729 129.928 82.8363 129.808 82.4544C129.687 82.0725 131.097 81.4209 131.905 81.0841L132.012 76.7263C132.012 76.7263 129.568 77.0775 129.408 76.5425C129.248 76.0075 132.061 74.9387 132.061 74.9387L132.177 71.0582C132.177 71.0582 129.583 71.3504 129.478 70.5493C129.374 69.7482 132.307 68.6196 132.307 68.6196L132.598 64.7157C127.092 66.9567 121.464 68.874 115.743 70.4577L112.373 79.3367L110.062 79.8598C111.648 69.6511 111.636 70.8474 104.207 64.4816L105.911 63.0037L114.545 67.1969C114.545 67.1969 115.383 66.6739 117.818 65.572C120.254 64.4702 130.613 60.0076 130.613 60.0076L127.804 57.5877C127.804 57.5877 124.81 58.6989 124.514 58.2605C124.218 57.8222 126.93 56.3385 126.93 56.3385L123.673 52.9637C123.673 52.9637 121.196 54.0455 120.974 53.4702C120.753 52.8948 122.533 51.8294 122.533 51.8294L119.77 49.0062C118.919 49.2369 117.494 49.5441 117.351 49.1648C117.244 48.8235 118.028 48.2436 118.645 47.8592L113.092 42.1606L116.007 40.6851C124.738 46.2902 132.415 51.3228 141.307 56.1341C151.261 52.6175 152.957 51.9693 152.957 51.9693C158.184 50.9873 160.72 52.1035 155.157 55.6888L155.15 55.6922Z" fill="white"/>
<path d="M53.1976 106.394L53.2374 106.359C54.5662 104.999 55.9865 103.628 57.4471 102.271C57.5055 102.22 57.5533 102.158 57.5877 102.089C57.6221 102.02 57.6424 101.944 57.6473 101.868C57.6523 101.791 57.6418 101.715 57.6166 101.643C57.5913 101.571 57.5518 101.505 57.5003 101.449C57.3932 101.337 57.2462 101.272 57.0902 101.267C56.9343 101.262 56.7814 101.318 56.6638 101.422C55.1738 102.783 53.7455 104.184 52.3961 105.565C52.3416 105.621 52.2987 105.688 52.2699 105.761C52.2409 105.833 52.2266 105.911 52.2277 105.988C52.2287 106.066 52.2451 106.143 52.276 106.214C52.3068 106.284 52.3514 106.348 52.4074 106.402C52.5129 106.5 52.6527 106.555 52.7986 106.554C52.9446 106.553 53.0858 106.498 53.1938 106.398L53.1976 106.394ZM66.5326 94.7312C66.6487 94.6312 66.7218 94.4906 66.7365 94.3393C66.7511 94.188 66.7061 94.038 66.6111 93.9212C66.516 93.8044 66.3784 93.73 66.2275 93.7139C66.0766 93.6978 65.9243 93.7412 65.8031 93.8349C64.1932 95.0618 62.6343 96.2886 61.14 97.5076C61.0222 97.6108 60.9473 97.7542 60.9306 97.9087C60.9139 98.0632 60.9565 98.2172 61.0498 98.3397C61.1496 98.4575 61.2919 98.5313 61.4468 98.5457C61.6018 98.56 61.7573 98.5137 61.8807 98.4166C63.3496 97.1977 64.9088 95.9684 66.5056 94.7554L66.5326 94.7312ZM45.5928 115.44C45.6318 115.41 45.6646 115.372 45.6895 115.329C46.8038 113.797 47.9971 112.242 49.2914 110.72C49.3948 110.602 49.4478 110.448 49.4388 110.293C49.4297 110.138 49.3595 109.993 49.2432 109.891C49.122 109.792 48.9661 109.744 48.8083 109.758C48.6505 109.772 48.5033 109.847 48.3979 109.966C47.0891 111.527 45.8564 113.092 44.7425 114.673C44.6548 114.798 44.6187 114.951 44.6421 115.1C44.6655 115.249 44.7464 115.382 44.8677 115.471C44.9754 115.544 45.1045 115.579 45.2354 115.571C45.3663 115.563 45.4917 115.513 45.5924 115.427L45.5928 115.44ZM76.2463 87.9833C76.3464 87.8867 76.4118 87.7601 76.4321 87.6235C76.4524 87.4869 76.4264 87.3482 76.3582 87.2296C76.3174 87.1643 76.2638 87.1081 76.2005 87.0643C76.1372 87.0205 76.0655 86.9899 75.9896 86.9744C75.9138 86.959 75.8354 86.959 75.759 86.9744C75.6826 86.9897 75.6098 87.0202 75.545 87.064C73.8536 88.1432 72.1819 89.2547 70.6133 90.3468C70.5458 90.3895 70.4874 90.4453 70.4417 90.5108C70.3959 90.5762 70.3638 90.6501 70.3473 90.7278C70.3307 90.8055 70.3301 90.8855 70.3454 90.9629C70.3607 91.0404 70.3915 91.1136 70.4362 91.1783C70.4809 91.243 70.5384 91.2977 70.6052 91.3392C70.6721 91.3807 70.7469 91.4081 70.8251 91.4198C70.9034 91.4314 70.9835 91.4271 71.0606 91.407C71.1377 91.3869 71.2101 91.3515 71.2736 91.3029C72.8434 90.2121 74.4906 89.1224 76.1708 88.0282C76.2011 88.0196 76.2285 88.0028 76.2502 87.9798L76.2463 87.9833ZM86.3957 81.9124C86.4961 81.8248 86.5632 81.7054 86.5854 81.5749C86.6076 81.4444 86.5835 81.3111 86.5172 81.198C86.4813 81.13 86.4322 81.07 86.3725 81.0215C86.3129 80.973 86.244 80.937 86.1698 80.9156C86.0957 80.8942 86.0177 80.8877 85.9405 80.8967C85.8634 80.9056 85.7884 80.9298 85.7202 80.9677C83.9845 81.9432 82.2601 82.9313 80.5876 83.923C80.5213 83.9637 80.4634 84.017 80.4174 84.0797C80.3713 84.1425 80.338 84.2134 80.3193 84.2886C80.3006 84.3637 80.2969 84.4415 80.3084 84.5176C80.3199 84.5937 80.3463 84.6665 80.3862 84.7318C80.4656 84.8612 80.5926 84.9542 80.7406 84.9912C80.8886 85.0282 81.0462 85.0065 81.1804 84.9305C82.8416 83.9262 84.5532 82.9496 86.2889 81.9741C86.3298 81.958 86.3669 81.9333 86.3976 81.9016L86.3957 81.9124ZM39.8923 125.73C39.9585 125.661 40.0116 125.581 40.0489 125.494C40.6741 123.872 41.4045 122.291 42.2354 120.761L42.5126 120.246C42.5524 120.18 42.5788 120.108 42.5906 120.032C42.6023 119.957 42.599 119.88 42.5809 119.806C42.5629 119.733 42.5303 119.664 42.4852 119.603C42.4401 119.542 42.3833 119.491 42.3181 119.453C42.1821 119.379 42.0217 119.36 41.8702 119.401C41.7188 119.441 41.5879 119.539 41.5048 119.672L41.2006 120.211C40.3551 121.792 39.6003 123.418 38.94 125.081C38.8898 125.229 38.8966 125.389 38.9592 125.531C39.0219 125.672 39.1357 125.783 39.2783 125.843C39.3807 125.878 39.4911 125.886 39.5985 125.866C39.7058 125.846 39.8067 125.799 39.8912 125.729L39.8923 125.73ZM96.8788 76.4645C96.9857 76.3705 97.0555 76.2417 97.0754 76.1018C97.0954 75.962 97.0642 75.8205 96.9875 75.7035C96.9108 75.5865 96.7938 75.5018 96.6581 75.4651C96.5224 75.4284 96.3772 75.4421 96.2491 75.5037C94.4555 76.3603 92.6864 77.2702 90.9532 78.1683C90.8836 78.2027 90.8216 78.2508 90.7707 78.3095C90.7199 78.3683 90.6814 78.4365 90.6575 78.51C90.6336 78.5836 90.6248 78.661 90.6317 78.7375C90.6386 78.8141 90.661 78.8881 90.6975 78.9553C90.7321 79.0229 90.7798 79.0829 90.838 79.1317C90.8962 79.1805 90.9636 79.2172 91.0365 79.2397C91.1093 79.2621 91.1862 79.2699 91.2626 79.2626C91.339 79.2553 91.4134 79.233 91.4817 79.197C93.1997 78.3103 94.9799 77.4155 96.7534 76.5519C96.7945 76.5151 96.8467 76.4933 96.8878 76.4564L96.8788 76.4645ZM107.634 71.5917C107.725 71.5099 107.79 71.4034 107.82 71.2858C107.85 71.1682 107.845 71.0449 107.805 70.9316C107.745 70.7857 107.63 70.6702 107.484 70.6102C107.339 70.5503 107.174 70.5507 107.027 70.6114C105.227 71.3782 103.398 72.1703 101.595 72.9878C101.525 73.0196 101.462 73.0649 101.409 73.121C101.356 73.1771 101.315 73.2429 101.288 73.3146C101.261 73.3864 101.248 73.4625 101.25 73.5387C101.252 73.6149 101.27 73.6896 101.302 73.7585C101.332 73.8294 101.377 73.8933 101.433 73.9465C101.489 73.9997 101.555 74.0411 101.627 74.0684C101.7 74.0957 101.777 74.1083 101.855 74.1055C101.933 74.1027 102.01 74.0846 102.081 74.0521C103.872 73.2461 105.672 72.454 107.473 71.6884C107.535 71.6716 107.59 71.6381 107.634 71.5917ZM36.7439 137.055C36.845 136.968 36.9123 136.848 36.9337 136.717C37.3023 134.738 37.732 132.828 38.2337 131.023C38.2739 130.872 38.2524 130.711 38.1739 130.577C38.0953 130.443 37.9662 130.347 37.8149 130.309C37.6635 130.272 37.5024 130.296 37.3669 130.377C37.2314 130.457 37.1327 130.588 37.0924 130.74C36.5903 132.569 36.1437 134.518 35.7723 136.522C35.7587 136.597 35.7601 136.674 35.7766 136.749C35.7931 136.823 35.8243 136.894 35.8684 136.956C35.9125 137.017 35.9686 137.07 36.0334 137.11C36.0983 137.149 36.1706 137.176 36.2462 137.187C36.333 137.207 36.4237 137.206 36.5105 137.183C36.5972 137.16 36.6774 137.116 36.7439 137.055ZM35.4151 148.705C35.4734 148.652 35.5207 148.588 35.5539 148.517C35.5871 148.445 35.6057 148.368 35.6084 148.29C35.709 146.336 35.8693 144.375 36.0654 142.481C36.0771 142.403 36.0731 142.325 36.0535 142.249C36.034 142.174 35.9993 142.104 35.9515 142.043C35.9038 141.981 35.8439 141.931 35.7757 141.894C35.7074 141.857 35.6321 141.834 35.5543 141.827C35.4765 141.82 35.3977 141.829 35.3229 141.853C35.248 141.877 35.1785 141.915 35.1186 141.967C35.0586 142.018 35.0095 142.081 34.9741 142.151C34.9388 142.221 34.9179 142.298 34.9128 142.376C34.6884 144.296 34.5394 146.271 34.4385 148.249C34.4325 148.326 34.4422 148.404 34.4669 148.478C34.4916 148.551 34.5309 148.619 34.5825 148.676C34.6341 148.734 34.6969 148.78 34.7672 148.813C34.8375 148.845 34.9139 148.863 34.9918 148.866C35.1483 148.87 35.3014 148.815 35.4196 148.71L35.4151 148.705ZM35.5235 160.421C35.5935 160.36 35.6482 160.283 35.6829 160.197C35.7176 160.112 35.7314 160.019 35.723 159.928C35.5857 158.018 35.5178 156.046 35.4974 154.127C35.4951 153.97 35.4317 153.822 35.3206 153.714C35.2096 153.605 35.0597 153.545 34.9031 153.546C34.8247 153.548 34.7471 153.565 34.6751 153.598C34.6031 153.63 34.5381 153.676 34.4839 153.734C34.4297 153.791 34.3875 153.859 34.3598 153.932C34.3321 154.006 34.3195 154.084 34.3227 154.162C34.3414 156.108 34.423 158.093 34.5433 160.041C34.5485 160.117 34.5688 160.191 34.603 160.259C34.6372 160.328 34.6847 160.388 34.7427 160.437C34.8007 160.487 34.8681 160.524 34.941 160.547C35.0139 160.57 35.0909 160.578 35.1675 160.571C35.2997 160.565 35.426 160.512 35.5235 160.421ZM37.0197 172.008C37.1 171.94 37.1604 171.853 37.1945 171.754C37.2285 171.655 37.2348 171.549 37.2126 171.448C36.8539 169.591 36.5368 167.672 36.286 165.718C36.2675 165.567 36.1901 165.431 36.0705 165.338C35.9509 165.246 35.7988 165.205 35.6473 165.225C35.5697 165.232 35.494 165.255 35.4252 165.293C35.3564 165.331 35.2958 165.382 35.2472 165.444C35.1987 165.505 35.1632 165.576 35.143 165.652C35.1228 165.727 35.1183 165.806 35.1297 165.882C35.3788 167.863 35.6931 169.807 36.0638 171.704C36.0782 171.779 36.1077 171.851 36.1506 171.915C36.1935 171.978 36.2489 172.032 36.3135 172.074C36.378 172.115 36.4505 172.143 36.5266 172.156C36.6027 172.169 36.6809 172.166 36.7565 172.148C36.8565 172.127 36.9488 172.078 37.0223 172.006L37.0197 172.008ZM95.139 132.108C95.2114 132.041 95.2664 131.957 95.2991 131.864C95.3318 131.771 95.3412 131.672 95.3265 131.576C95.3165 131.498 95.2908 131.424 95.2509 131.357C95.2109 131.291 95.1577 131.233 95.0943 131.188C95.031 131.143 94.9588 131.111 94.8823 131.095C94.8058 131.079 94.7266 131.079 94.6495 131.094C92.6155 131.425 90.6822 132.237 89.0115 133.46C88.8897 133.556 88.8086 133.694 88.7848 133.847C88.761 133.999 88.7963 134.153 88.8835 134.278C88.9271 134.341 88.9834 134.395 89.0488 134.435C89.1142 134.475 89.1874 134.501 89.2638 134.512C89.3403 134.523 89.4184 134.518 89.4934 134.497C89.5683 134.477 89.6386 134.442 89.6999 134.393C91.2249 133.279 92.9904 132.544 94.8466 132.25C94.9546 132.229 95.0555 132.18 95.139 132.108ZM40.1259 183.247C40.2154 183.166 40.2799 183.061 40.3115 182.945C40.3431 182.829 40.3406 182.706 40.3042 182.593C39.652 180.876 39.0498 179.021 38.5273 177.092C38.5068 177.018 38.4718 176.95 38.4244 176.89C38.3769 176.83 38.318 176.78 38.2509 176.743C38.1839 176.707 38.1099 176.683 38.0334 176.675C37.9569 176.667 37.8793 176.674 37.805 176.696C37.7307 176.718 37.6611 176.754 37.6003 176.802C37.5396 176.851 37.4887 176.91 37.4507 176.978C37.4127 177.045 37.3882 177.12 37.3788 177.196C37.3693 177.273 37.375 177.35 37.3956 177.424C37.9305 179.367 38.5306 181.274 39.1926 183.027C39.2197 183.098 39.2607 183.162 39.3132 183.217C39.3656 183.271 39.4285 183.315 39.4982 183.344C39.568 183.374 39.6432 183.39 39.7194 183.39C39.7957 183.391 39.8716 183.376 39.9427 183.347C40.009 183.327 40.069 183.29 40.1167 183.239L40.1259 183.247ZM84.026 144.377C84.1227 144.286 84.189 144.167 84.2158 144.038C84.5536 142.167 85.1811 140.355 86.0756 138.667C86.1145 138.598 86.1395 138.523 86.1491 138.445C86.1587 138.367 86.1527 138.289 86.1315 138.214C86.1102 138.139 86.0742 138.069 86.0254 138.009C85.9766 137.948 85.9162 137.898 85.8474 137.862C85.7787 137.825 85.7032 137.803 85.6252 137.796C85.5473 137.789 85.4684 137.798 85.3933 137.821C85.3182 137.845 85.2484 137.884 85.1878 137.934C85.1273 137.985 85.0773 138.047 85.0408 138.117C84.0814 139.914 83.4114 141.846 83.0557 143.842C83.038 143.961 83.0569 144.083 83.1097 144.19C83.1626 144.298 83.247 144.386 83.3519 144.444C83.4568 144.502 83.5773 144.526 83.6976 144.514C83.8178 144.502 83.9323 144.454 84.026 144.377ZM106.467 134.16C106.516 134.112 106.559 134.058 106.594 133.998C106.665 133.858 106.679 133.697 106.633 133.549C106.587 133.4 106.483 133.277 106.346 133.205C105.746 132.893 105.117 132.61 104.5 132.356C103.272 131.874 102.004 131.496 100.71 131.228C100.558 131.197 100.399 131.228 100.268 131.313C100.136 131.399 100.044 131.532 100.01 131.684C99.9912 131.76 99.988 131.838 100.001 131.914C100.013 131.991 100.041 132.063 100.083 132.128C100.125 132.192 100.18 132.247 100.244 132.29C100.308 132.332 100.381 132.361 100.457 132.374C101.683 132.628 102.884 132.984 104.048 133.44C104.625 133.673 105.225 133.957 105.799 134.241C105.904 134.296 106.024 134.317 106.142 134.302C106.26 134.286 106.372 134.235 106.461 134.156L106.467 134.16ZM84.6345 155.961C84.7149 155.885 84.7738 155.79 84.8052 155.685C84.8366 155.58 84.8392 155.469 84.8128 155.364C84.3123 153.523 84.0048 151.633 83.8951 149.723C83.8862 149.567 83.8154 149.422 83.6983 149.319C83.5812 149.217 83.4273 149.166 83.2706 149.178C83.1139 149.189 82.9672 149.263 82.8627 149.381C82.7582 149.5 82.7045 149.654 82.7134 149.81C82.8329 151.799 83.1528 153.766 83.6684 155.684C83.689 155.758 83.724 155.826 83.7715 155.886C83.819 155.946 83.878 155.995 83.9452 156.032C84.0124 156.068 84.0864 156.091 84.1629 156.099C84.2394 156.106 84.3169 156.099 84.391 156.076C84.4813 156.064 84.5656 156.023 84.631 155.959L84.6345 155.961ZM45.6367 193.45C45.7489 193.351 45.8193 193.213 45.8334 193.066C45.8475 192.918 45.8041 192.771 45.7123 192.656C44.563 191.134 43.5326 189.525 42.6298 187.843C42.5541 187.709 42.4289 187.61 42.2804 187.567C42.1319 187.525 41.9715 187.541 41.8328 187.613C41.7642 187.65 41.7034 187.7 41.654 187.761C41.6045 187.821 41.5673 187.89 41.5446 187.965C41.5219 188.039 41.514 188.117 41.5216 188.194C41.5291 188.271 41.5518 188.345 41.5885 188.412C42.5189 190.149 43.5858 191.807 44.7792 193.372C44.8724 193.493 45.0093 193.572 45.1615 193.594C45.3136 193.615 45.4691 193.577 45.5956 193.487L45.6367 193.45ZM114.983 141.887C115.091 141.791 115.16 141.66 115.178 141.518C115.196 141.376 115.162 141.233 115.082 141.116C114.405 140.136 113.671 139.198 112.883 138.307C112.353 137.716 111.797 137.149 111.224 136.622C111.111 136.518 110.961 136.464 110.806 136.471C110.651 136.478 110.504 136.546 110.397 136.66C110.29 136.776 110.232 136.928 110.234 137.085C110.236 137.241 110.299 137.389 110.41 137.498C110.957 138 111.49 138.538 111.995 139.102C112.758 139.956 113.466 140.856 114.117 141.799C114.207 141.923 114.343 142.007 114.495 142.033C114.648 142.059 114.806 142.024 114.935 141.937L114.983 141.887ZM89.456 166.49C89.5657 166.401 89.6389 166.274 89.6618 166.135C89.6847 165.996 89.6555 165.854 89.58 165.737C88.5293 164.14 87.5919 162.47 86.7744 160.74C86.747 160.665 86.7044 160.597 86.6492 160.541C86.5941 160.484 86.5275 160.439 86.4538 160.409C86.3801 160.379 86.3007 160.365 86.2207 160.367C86.1407 160.37 86.0618 160.388 85.9888 160.423C85.9158 160.457 85.8504 160.505 85.7966 160.565C85.7429 160.625 85.7019 160.696 85.6763 160.772C85.6507 160.848 85.641 160.928 85.6479 161.007C85.6547 161.087 85.6779 161.164 85.716 161.233C86.5403 163.022 87.4996 164.744 88.5857 166.385C88.6751 166.514 88.812 166.601 88.967 166.63C89.1221 166.658 89.2831 166.624 89.4156 166.536L89.456 166.49ZM53.8116 201.673L53.8797 201.612C53.9299 201.55 53.9673 201.48 53.9894 201.404C54.0115 201.328 54.018 201.249 54.0084 201.171C53.9988 201.094 53.9733 201.019 53.9335 200.952C53.8938 200.885 53.8405 200.827 53.7771 200.782C52.2755 199.596 50.8421 198.327 49.4834 196.982C49.4315 196.926 49.3688 196.881 49.299 196.851C49.2292 196.82 49.1538 196.803 49.077 196.802C49.0002 196.801 48.9237 196.815 48.852 196.844C48.7803 196.873 48.7148 196.915 48.6593 196.969C48.6033 197.024 48.5585 197.089 48.5274 197.161C48.4964 197.233 48.4797 197.31 48.4784 197.388C48.4771 197.465 48.4911 197.542 48.5197 197.614C48.5484 197.686 48.591 197.751 48.6452 197.806C50.0354 199.189 51.5058 200.489 53.0492 201.701C53.1571 201.788 53.2933 201.833 53.4331 201.828C53.573 201.822 53.7073 201.767 53.8116 201.673ZM119.891 152.408C119.974 152.329 120.033 152.228 120.06 152.117C120.088 152.007 120.083 151.891 120.046 151.784C119.469 149.902 118.773 148.061 117.961 146.271C117.896 146.132 117.78 146.026 117.636 145.974C117.492 145.921 117.333 145.927 117.191 145.991C117.12 146.024 117.055 146.072 117.001 146.13C116.947 146.188 116.906 146.257 116.878 146.331C116.851 146.405 116.838 146.483 116.841 146.562C116.844 146.64 116.863 146.717 116.896 146.788C117.688 148.531 118.367 150.324 118.93 152.157C118.981 152.303 119.088 152.424 119.227 152.493C119.366 152.562 119.528 152.573 119.678 152.526C119.758 152.504 119.832 152.463 119.893 152.407L119.891 152.408ZM97.0486 175.283L97.1038 175.233C97.206 175.114 97.2581 174.961 97.2491 174.806C97.2402 174.651 97.1707 174.507 97.0557 174.405C95.8444 173.312 94.6738 172.132 93.583 170.916C93.4019 170.714 93.2349 170.502 93.0538 170.3C93.0035 170.241 92.942 170.194 92.8728 170.16C92.8036 170.126 92.7281 170.106 92.6507 170.101C92.5732 170.096 92.4953 170.107 92.4214 170.132C92.3475 170.157 92.2791 170.197 92.2201 170.248C92.1064 170.355 92.0366 170.501 92.0246 170.655C92.0125 170.81 92.0592 170.962 92.1552 171.082L92.7085 171.7C93.8276 172.948 95.026 174.148 96.2683 175.286C96.3765 175.379 96.5151 175.43 96.6592 175.43C96.8033 175.429 96.9435 175.378 97.0546 175.284L97.0486 175.283ZM63.6477 207.857C63.7009 207.805 63.7481 207.747 63.7883 207.684C63.8535 207.543 63.8629 207.383 63.8145 207.237C63.7661 207.092 63.6635 206.971 63.5277 206.899C61.7922 206.033 60.1008 205.082 58.4901 204.081C58.4268 204.04 58.3558 204.012 58.2813 203.999C58.2067 203.986 58.1301 203.988 58.0558 204.005C57.9816 204.022 57.9112 204.054 57.8488 204.098C57.7864 204.142 57.7332 204.198 57.6924 204.263C57.6482 204.328 57.6174 204.401 57.6018 204.478C57.5862 204.555 57.5862 204.634 57.6017 204.71C57.6172 204.787 57.6479 204.859 57.6921 204.922C57.7362 204.986 57.7929 205.04 57.8587 205.081C59.5001 206.114 61.2225 207.074 62.9971 207.956C63.1021 208.005 63.2198 208.021 63.3355 208.004C63.4512 207.986 63.5597 207.935 63.6477 207.857ZM122.481 163.789C122.559 163.719 122.617 163.631 122.651 163.533C122.685 163.435 122.693 163.33 122.674 163.229C122.33 161.114 121.962 159.218 121.57 157.464C121.533 157.313 121.439 157.184 121.307 157.103C121.175 157.023 121.016 156.997 120.864 157.032C120.714 157.074 120.585 157.171 120.503 157.303C120.42 157.436 120.39 157.593 120.419 157.745C120.812 159.475 121.183 161.344 121.515 163.444C121.534 163.546 121.58 163.64 121.647 163.718C121.714 163.796 121.801 163.855 121.899 163.89C121.996 163.924 122.102 163.932 122.204 163.914C122.307 163.896 122.404 163.851 122.485 163.785L122.481 163.789ZM106.556 181.935C106.604 181.886 106.646 181.832 106.682 181.774C106.754 181.634 106.768 181.472 106.721 181.323C106.675 181.175 106.571 181.051 106.433 180.98C104.734 180.093 103.098 179.094 101.535 177.988C101.472 177.945 101.4 177.914 101.325 177.898C101.249 177.883 101.171 177.882 101.095 177.897C101.019 177.911 100.946 177.94 100.88 177.983C100.815 178.025 100.758 178.08 100.714 178.144C100.669 178.208 100.637 178.28 100.62 178.355C100.603 178.431 100.601 178.509 100.615 178.585C100.628 178.661 100.656 178.733 100.697 178.798C100.739 178.862 100.792 178.918 100.856 178.961C102.466 180.088 104.148 181.111 105.891 182.023C105.996 182.078 106.116 182.099 106.234 182.083C106.352 182.068 106.464 182.017 106.553 181.938L106.556 181.935ZM74.5222 212.082C74.6011 212.005 74.6603 211.911 74.6946 211.807C74.7346 211.655 74.7147 211.495 74.6391 211.36C74.5635 211.224 74.438 211.124 74.2888 211.08C72.4319 210.557 70.6047 209.939 68.8144 209.229C68.6674 209.175 68.5044 209.182 68.3604 209.248C68.2164 209.314 68.1031 209.433 68.0449 209.579C68.016 209.651 68.0015 209.727 68.0023 209.803C68.003 209.88 68.0191 209.955 68.0494 210.025C68.0797 210.094 68.1237 210.157 68.1789 210.209C68.234 210.261 68.2993 210.301 68.3707 210.328C70.1933 211.043 72.0868 211.67 73.9462 212.207C74.0448 212.236 74.1496 212.239 74.2507 212.216C74.3518 212.193 74.4458 212.145 74.5238 212.076L74.5222 212.082ZM124.029 175.35C124.096 175.291 124.149 175.216 124.181 175.132C124.213 175.048 124.225 174.958 124.214 174.87C124.06 173.023 123.847 171.101 123.564 169.037C123.554 168.961 123.528 168.887 123.489 168.821C123.45 168.755 123.399 168.697 123.337 168.651C123.275 168.605 123.205 168.572 123.13 168.554C123.055 168.535 122.977 168.532 122.9 168.543C122.823 168.555 122.749 168.581 122.682 168.622C122.615 168.662 122.556 168.714 122.509 168.777C122.462 168.839 122.428 168.91 122.408 168.985C122.388 169.06 122.383 169.138 122.394 169.215C122.689 171.275 122.904 173.163 123.063 174.989C123.068 175.065 123.088 175.14 123.122 175.208C123.156 175.276 123.203 175.337 123.261 175.386C123.319 175.435 123.387 175.472 123.46 175.495C123.532 175.518 123.61 175.526 123.686 175.518C123.815 175.499 123.935 175.442 124.032 175.354L124.029 175.35ZM117.589 185.531C117.696 185.441 117.768 185.316 117.79 185.179C117.812 185.024 117.772 184.867 117.679 184.742C117.586 184.618 117.447 184.535 117.292 184.513C115.395 184.242 113.526 183.811 111.706 183.226C111.635 183.2 111.559 183.189 111.483 183.193C111.406 183.198 111.332 183.217 111.263 183.252C111.194 183.286 111.133 183.334 111.083 183.392C111.033 183.451 110.996 183.519 110.973 183.592C110.921 183.739 110.929 183.901 110.995 184.041C111.061 184.181 111.179 184.289 111.325 184.341C113.209 184.942 115.141 185.388 117.102 185.675C117.189 185.688 117.277 185.681 117.361 185.656C117.445 185.631 117.523 185.588 117.589 185.531ZM85.9927 214.218C86.0484 214.167 86.0937 214.106 86.1258 214.038C86.158 213.97 86.1764 213.897 86.18 213.822C86.1885 213.746 86.1819 213.67 86.1605 213.598C86.1392 213.525 86.1037 213.458 86.0559 213.399C86.0081 213.341 85.9491 213.293 85.8822 213.258C85.8153 213.223 85.7419 213.201 85.6661 213.195C83.7409 213.032 81.8273 212.768 79.9334 212.403C79.7782 212.378 79.618 212.414 79.4873 212.504C79.3565 212.595 79.2657 212.732 79.2342 212.887C79.219 212.962 79.2188 213.039 79.2337 213.114C79.2486 213.189 79.2782 213.26 79.3208 213.323C79.3634 213.386 79.4183 213.44 79.4821 213.481C79.546 213.522 79.6176 213.55 79.6929 213.564C81.6384 213.926 83.6079 214.195 85.5548 214.362C85.6331 214.369 85.7123 214.36 85.7872 214.334C85.8621 214.309 85.931 214.268 85.9893 214.214L85.9927 214.218ZM129.292 185.618C129.361 185.553 129.415 185.475 129.452 185.388C129.488 185.301 129.506 185.208 129.504 185.114C129.496 185.037 129.473 184.963 129.436 184.896C129.399 184.828 129.348 184.77 129.288 184.722C129.227 184.675 129.157 184.641 129.083 184.621C129.008 184.601 128.93 184.597 128.853 184.607C127.349 184.769 125.862 184.869 124.428 184.918C124.501 183.571 124.537 182.182 124.523 180.767C124.526 180.687 124.512 180.609 124.483 180.535C124.454 180.462 124.411 180.395 124.355 180.339C124.3 180.283 124.234 180.239 124.16 180.21C124.087 180.18 124.008 180.166 123.929 180.167C123.849 180.169 123.771 180.186 123.698 180.218C123.624 180.25 123.558 180.297 123.503 180.355C123.448 180.413 123.404 180.481 123.376 180.556C123.347 180.63 123.334 180.709 123.336 180.788C123.362 182.218 123.326 183.606 123.256 184.928C123.192 184.923 123.127 184.925 123.063 184.933C122.908 184.931 122.757 184.991 122.644 185.099C122.531 185.207 122.464 185.355 122.46 185.51C122.455 185.665 122.512 185.815 122.619 185.926C122.725 186.037 122.873 186.101 123.028 186.103C123.08 186.106 123.118 186.095 123.169 186.097C123.146 186.263 123.136 186.417 123.123 186.593C123.11 186.746 123.158 186.897 123.257 187.013C123.356 187.128 123.498 187.199 123.651 187.21C123.804 187.22 123.956 187.169 124.073 187.068C124.191 186.968 124.264 186.825 124.277 186.672C124.301 186.479 124.327 186.288 124.34 186.083C125.85 186.036 127.389 185.94 128.958 185.768C129.079 185.75 129.193 185.698 129.287 185.618L129.292 185.618ZM97.7033 213.937C97.7739 213.871 97.8286 213.79 97.8633 213.7C97.898 213.61 97.9116 213.514 97.9032 213.418C97.8932 213.342 97.8681 213.268 97.8292 213.201C97.7904 213.135 97.7386 213.077 97.6769 213.031C97.6152 212.985 97.5447 212.952 97.4696 212.933C97.3945 212.915 97.3162 212.911 97.2392 212.923C95.3195 213.196 93.3869 213.353 91.4522 213.392C91.3758 213.395 91.3006 213.413 91.2307 213.445C91.1608 213.477 91.0977 213.523 91.045 213.579C90.9923 213.635 90.9511 213.7 90.9235 213.772C90.896 213.844 90.8828 213.92 90.8847 213.996C90.8827 214.073 90.8965 214.149 90.9252 214.22C90.9538 214.29 90.9968 214.354 91.0514 214.408C91.106 214.461 91.1711 214.502 91.2427 214.529C91.3143 214.556 91.3909 214.568 91.4678 214.564C93.4503 214.526 95.4307 214.368 97.398 214.09C97.5107 214.065 97.6158 214.013 97.7033 213.937ZM121.265 198.431C121.326 198.375 121.374 198.307 121.406 198.231C122.224 196.401 122.871 194.5 123.337 192.555C123.37 192.403 123.344 192.246 123.263 192.115C123.183 191.984 123.054 191.89 122.904 191.853C122.753 191.819 122.593 191.847 122.46 191.93C122.326 192.013 122.231 192.145 122.193 192.297C121.746 194.167 121.126 195.996 120.342 197.758C120.307 197.829 120.287 197.906 120.283 197.984C120.279 198.062 120.29 198.14 120.317 198.213C120.343 198.287 120.384 198.354 120.438 198.41C120.491 198.467 120.555 198.512 120.627 198.543C120.732 198.586 120.847 198.598 120.96 198.578C121.072 198.557 121.177 198.505 121.263 198.428L121.265 198.431ZM195.813 132.425L195.861 132.381C197.12 130.967 198.453 129.62 199.855 128.346L199.983 128.231C200.099 128.127 200.169 127.982 200.179 127.829C200.189 127.675 200.137 127.524 200.035 127.41C199.933 127.297 199.789 127.229 199.635 127.222C199.481 127.215 199.329 127.269 199.214 127.373L199.104 127.471C197.66 128.769 196.29 130.149 195.002 131.604C194.902 131.715 194.847 131.859 194.849 132.008C194.851 132.156 194.91 132.297 195.013 132.402C195.117 132.506 195.257 132.567 195.406 132.572C195.554 132.576 195.7 132.523 195.813 132.425ZM108.981 210.656C109.078 210.576 109.146 210.466 109.174 210.344C109.203 210.222 109.191 210.094 109.14 209.981C109.075 209.841 108.958 209.732 108.814 209.676C108.669 209.621 108.508 209.623 108.363 209.683C106.61 210.501 104.796 211.179 102.94 211.71C102.863 211.728 102.79 211.762 102.726 211.809C102.661 211.856 102.607 211.915 102.565 211.983C102.524 212.051 102.496 212.126 102.484 212.205C102.472 212.283 102.476 212.362 102.495 212.439C102.516 212.513 102.551 212.582 102.598 212.641C102.646 212.701 102.705 212.751 102.772 212.788C102.84 212.824 102.914 212.847 102.99 212.855C103.067 212.863 103.145 212.855 103.219 212.832C105.145 212.296 107.025 211.6 108.84 210.753C108.893 210.727 108.94 210.693 108.981 210.652L108.981 210.656ZM140.796 183.175C140.882 183.104 140.944 183.009 140.976 182.902C141.008 182.796 141.007 182.683 140.975 182.578C140.954 182.505 140.919 182.436 140.872 182.376C140.825 182.316 140.766 182.267 140.699 182.23C140.632 182.193 140.558 182.171 140.481 182.163C140.405 182.155 140.327 182.162 140.253 182.184C138.362 182.767 136.462 183.259 134.596 183.65C134.441 183.683 134.305 183.776 134.216 183.908C134.128 184.04 134.096 184.201 134.126 184.355C134.156 184.509 134.247 184.643 134.378 184.729C134.509 184.815 134.669 184.844 134.824 184.811C136.731 184.409 138.657 183.894 140.589 183.3C140.667 183.276 140.74 183.236 140.802 183.181L140.796 183.175ZM115.402 206.473C116.453 205.526 117.423 204.495 118.302 203.388C118.349 203.327 118.384 203.257 118.404 203.183C118.424 203.109 118.428 203.032 118.418 202.956C118.408 202.881 118.382 202.808 118.343 202.743C118.304 202.678 118.253 202.622 118.191 202.577C118.07 202.485 117.916 202.445 117.764 202.464C117.611 202.484 117.471 202.562 117.373 202.682C116.19 204.198 114.818 205.558 113.292 206.728C113.23 206.775 113.179 206.834 113.14 206.901C113.101 206.968 113.076 207.042 113.067 207.119C113.057 207.195 113.063 207.272 113.083 207.346C113.104 207.42 113.14 207.488 113.188 207.547C113.235 207.609 113.293 207.66 113.361 207.698C113.428 207.737 113.502 207.761 113.579 207.771C113.656 207.78 113.735 207.774 113.81 207.754C113.886 207.733 113.956 207.697 114.019 207.649C114.494 207.272 114.957 206.881 115.407 206.478L115.402 206.473ZM210.026 122.178C210.129 122.088 210.198 121.966 210.222 121.833C210.246 121.699 210.224 121.562 210.159 121.445C210.094 121.327 209.99 121.236 209.865 121.187C209.74 121.138 209.6 121.133 209.47 121.174C207.555 121.801 205.722 122.664 204.015 123.743C203.947 123.782 203.888 123.835 203.841 123.897C203.793 123.96 203.759 124.031 203.741 124.107C203.722 124.183 203.719 124.261 203.731 124.337C203.744 124.414 203.771 124.487 203.813 124.551C203.895 124.68 204.025 124.771 204.174 124.804C204.324 124.838 204.481 124.811 204.614 124.731C206.241 123.702 207.989 122.883 209.816 122.293C209.895 122.269 209.969 122.228 210.031 122.174L210.026 122.178ZM188.564 141.757C188.603 141.727 188.636 141.689 188.661 141.646C189.877 139.902 191.025 138.34 192.117 136.901C192.165 136.84 192.201 136.77 192.222 136.695C192.243 136.621 192.249 136.543 192.24 136.466C192.231 136.39 192.206 136.316 192.169 136.25C192.131 136.183 192.08 136.125 192.019 136.078C191.959 136.032 191.89 135.999 191.816 135.981C191.742 135.962 191.664 135.959 191.589 135.97C191.513 135.982 191.44 136.008 191.374 136.048C191.308 136.088 191.25 136.141 191.205 136.203C190.083 137.644 188.94 139.226 187.721 140.997C187.636 141.114 187.597 141.257 187.612 141.399C187.626 141.541 187.693 141.671 187.799 141.766C187.904 141.86 188.042 141.911 188.185 141.91C188.328 141.909 188.467 141.854 188.574 141.758L188.564 141.757ZM182.066 151.625C182.107 151.582 182.142 151.534 182.17 151.483L182.927 150.322C183.713 149.084 184.528 147.822 185.37 146.537C185.413 146.472 185.442 146.4 185.456 146.324C185.471 146.249 185.47 146.171 185.454 146.096C185.439 146.021 185.408 145.951 185.365 145.888C185.322 145.825 185.266 145.772 185.202 145.731C185.138 145.69 185.066 145.662 184.99 145.649C184.915 145.636 184.837 145.638 184.762 145.655C184.687 145.672 184.615 145.703 184.551 145.747C184.488 145.792 184.433 145.848 184.391 145.913C183.55 147.199 182.735 148.461 181.947 149.697L181.178 150.872C181.095 151.005 181.068 151.164 181.101 151.314C181.135 151.465 181.228 151.596 181.358 151.678C181.466 151.745 181.594 151.776 181.722 151.766C181.851 151.756 181.973 151.705 182.072 151.621L182.066 151.625ZM151.785 178.867C151.895 178.775 151.969 178.645 151.99 178.504C152.012 178.362 151.981 178.218 151.904 178.1C151.826 177.981 151.707 177.896 151.569 177.86C151.431 177.825 151.284 177.841 151.155 177.907C149.388 178.764 147.574 179.544 145.79 180.246C145.644 180.304 145.525 180.417 145.46 180.561C145.395 180.705 145.388 180.867 145.443 181.013C145.47 181.084 145.511 181.148 145.563 181.203C145.616 181.257 145.679 181.3 145.748 181.33C145.818 181.36 145.893 181.376 145.97 181.376C146.046 181.377 146.122 181.362 146.193 181.333C148.012 180.613 149.843 179.827 151.651 178.958C151.703 178.932 151.75 178.897 151.791 178.856L151.785 178.867ZM162.035 173.02C162.142 172.924 162.211 172.793 162.229 172.651C162.247 172.509 162.213 172.367 162.133 172.25C162.092 172.186 162.039 172.131 161.976 172.088C161.913 172.046 161.842 172.016 161.767 172.002C161.692 171.988 161.615 171.989 161.54 172.005C161.465 172.021 161.394 172.053 161.331 172.097C159.731 173.17 158.055 174.212 156.345 175.187C156.276 175.225 156.216 175.276 156.167 175.337C156.119 175.399 156.083 175.469 156.062 175.544C156.042 175.619 156.037 175.698 156.048 175.774C156.059 175.851 156.085 175.924 156.125 175.989C156.201 176.12 156.325 176.215 156.471 176.254C156.617 176.293 156.773 176.274 156.907 176.2C158.644 175.198 160.334 174.145 161.958 173.051C161.983 173.046 162.006 173.034 162.025 173.016L162.035 173.02ZM175.284 161.312C175.31 161.294 175.33 161.268 175.339 161.237C176.045 160.377 176.711 159.525 177.33 158.678C177.811 158.006 178.334 157.271 178.902 156.448C178.982 156.317 179.009 156.162 178.977 156.013C178.945 155.865 178.858 155.736 178.732 155.653C178.606 155.569 178.453 155.537 178.302 155.564C178.152 155.591 178.017 155.675 177.925 155.798C177.371 156.608 176.862 157.332 176.381 158.004C175.774 158.839 175.129 159.685 174.443 160.493C174.343 160.615 174.295 160.77 174.31 160.925C174.324 161.08 174.399 161.221 174.519 161.319C174.624 161.41 174.758 161.46 174.898 161.46C175.038 161.46 175.174 161.409 175.282 161.318L175.284 161.312ZM169.689 167.079C170.236 166.589 170.756 166.097 171.275 165.607C171.332 165.552 171.377 165.487 171.408 165.415C171.439 165.344 171.456 165.267 171.458 165.189C171.459 165.111 171.445 165.034 171.416 164.963C171.388 164.891 171.345 164.826 171.291 164.771C171.181 164.667 171.036 164.608 170.884 164.606C170.731 164.603 170.582 164.658 170.466 164.759C169.061 166.119 167.588 167.408 166.053 168.62C165.929 168.718 165.848 168.861 165.829 169.017C165.81 169.173 165.853 169.329 165.95 169.451C166.046 169.573 166.188 169.651 166.344 169.668C166.5 169.684 166.657 169.639 166.781 169.54C167.798 168.724 168.779 167.894 169.692 167.076L169.689 167.079ZM221.55 122.258C221.628 122.191 221.686 122.104 221.72 122.008C221.769 121.86 221.758 121.7 221.689 121.562C221.621 121.424 221.5 121.319 221.353 121.271C219.449 120.643 217.455 120.308 215.44 120.278C215.363 120.276 215.287 120.289 215.216 120.316C215.144 120.344 215.079 120.385 215.023 120.437C214.967 120.49 214.921 120.553 214.89 120.622C214.858 120.692 214.84 120.767 214.837 120.843C214.832 120.999 214.889 121.15 214.995 121.263C215.101 121.376 215.248 121.442 215.404 121.448C217.3 121.478 219.175 121.792 220.968 122.379C221.067 122.412 221.172 122.418 221.274 122.395C221.377 122.372 221.471 122.321 221.547 122.249L221.55 122.258ZM231.619 127.997L231.688 127.935C231.782 127.81 231.824 127.654 231.806 127.501C231.788 127.347 231.71 127.208 231.59 127.112C230.058 125.889 228.44 124.775 226.749 123.778C226.682 123.74 226.608 123.715 226.531 123.705C226.454 123.695 226.375 123.701 226.3 123.721C226.224 123.742 226.153 123.777 226.091 123.824C226.029 123.872 225.976 123.931 225.936 123.999C225.896 124.064 225.869 124.136 225.857 124.212C225.846 124.287 225.85 124.364 225.869 124.438C225.889 124.511 225.923 124.579 225.97 124.638C226.018 124.697 226.077 124.746 226.144 124.78C227.787 125.76 229.362 126.847 230.858 128.035C230.965 128.124 231.102 128.17 231.242 128.165C231.383 128.16 231.517 128.103 231.62 128.005L231.619 127.997ZM240.318 135.693L240.372 135.645C240.475 135.526 240.528 135.373 240.519 135.217C240.509 135.062 240.439 134.918 240.324 134.816C239.25 133.892 238.215 132.932 237.119 131.929L236.024 130.926C235.908 130.826 235.759 130.774 235.605 130.782C235.451 130.789 235.305 130.854 235.196 130.964C235.143 131.023 235.102 131.091 235.075 131.164C235.048 131.238 235.036 131.316 235.04 131.394C235.043 131.472 235.062 131.549 235.095 131.619C235.128 131.689 235.175 131.752 235.233 131.803L236.317 132.791C237.363 133.766 238.459 134.769 239.546 135.708C239.654 135.8 239.792 135.85 239.935 135.847C240.078 135.844 240.216 135.79 240.324 135.694L240.318 135.693ZM250.088 141.921C250.158 141.863 250.208 141.784 250.23 141.696C250.26 141.625 250.276 141.549 250.277 141.472C250.278 141.395 250.263 141.319 250.234 141.248C250.205 141.177 250.162 141.113 250.108 141.059C250.054 141.005 249.989 140.963 249.918 140.935C248.147 140.239 246.454 139.364 244.866 138.322C244.804 138.277 244.733 138.246 244.657 138.23C244.581 138.214 244.503 138.214 244.427 138.23C244.351 138.246 244.279 138.277 244.215 138.322C244.151 138.367 244.097 138.425 244.056 138.491C244.012 138.555 243.981 138.626 243.965 138.701C243.949 138.777 243.949 138.854 243.963 138.929C243.978 139.004 244.007 139.075 244.05 139.138C244.093 139.201 244.148 139.255 244.212 139.296C245.863 140.389 247.627 141.307 249.474 142.034C249.576 142.072 249.687 142.081 249.795 142.061C249.903 142.041 250.005 141.993 250.088 141.921ZM261.521 144.042C261.642 143.931 261.716 143.778 261.728 143.615C261.733 143.459 261.676 143.308 261.57 143.194C261.464 143.081 261.318 143.014 261.161 143.008C259.231 142.967 257.309 142.781 255.412 142.45C255.337 142.438 255.26 142.441 255.185 142.459C255.111 142.477 255.04 142.509 254.978 142.554C254.915 142.599 254.862 142.655 254.821 142.72C254.78 142.785 254.752 142.858 254.739 142.933C254.725 143.008 254.727 143.085 254.744 143.16C254.76 143.234 254.792 143.304 254.835 143.365C254.879 143.427 254.935 143.479 255 143.519C255.064 143.559 255.136 143.586 255.211 143.597C257.16 143.933 259.131 144.131 261.112 144.191C261.261 144.193 261.408 144.142 261.525 144.047L261.521 144.042ZM275.045 135.308C275.137 135.225 275.201 135.117 275.229 134.997C275.61 133.251 275.738 131.224 275.609 128.993C275.594 128.842 275.521 128.703 275.405 128.607C275.29 128.51 275.14 128.462 274.988 128.473C274.836 128.484 274.693 128.553 274.59 128.666C274.486 128.779 274.429 128.927 274.431 129.079C274.566 131.209 274.446 133.108 274.072 134.75C274.039 134.903 274.067 135.061 274.15 135.19C274.234 135.32 274.366 135.41 274.518 135.441C274.609 135.464 274.704 135.464 274.795 135.441C274.887 135.418 274.972 135.373 275.042 135.31L275.045 135.308ZM271.863 141.018C272.054 140.846 272.26 140.662 272.451 140.465C272.557 140.35 272.613 140.199 272.609 140.045C272.604 139.891 272.538 139.746 272.426 139.641C272.371 139.586 272.305 139.543 272.233 139.515C272.16 139.486 272.083 139.473 272.004 139.475C271.926 139.478 271.848 139.496 271.777 139.529C271.705 139.562 271.641 139.609 271.587 139.667C270.372 140.949 268.796 141.855 266.816 142.394C266.664 142.437 266.534 142.537 266.453 142.673C266.373 142.808 266.348 142.969 266.383 143.121C266.428 143.271 266.529 143.398 266.666 143.473C266.803 143.549 266.965 143.569 267.118 143.528C268.869 143.071 270.494 142.212 271.863 141.018Z" fill="white"/>
</svg>
