<svg width="179" height="282" viewBox="0 0 179 282" fill="none" xmlns="http://www.w3.org/2000/svg">
<path d="M147.379 176.121C147.449 176.187 147.53 176.241 147.618 176.281C149.778 177.448 151.734 178.939 153.413 180.698C153.482 180.769 153.564 180.826 153.656 180.866C153.747 180.906 153.846 180.929 153.946 180.932C154.047 180.935 154.147 180.919 154.241 180.885C154.335 180.851 154.421 180.799 154.494 180.732C154.568 180.666 154.627 180.586 154.668 180.497C154.71 180.409 154.733 180.313 154.736 180.216C154.739 180.119 154.723 180.022 154.688 179.931C154.652 179.84 154.599 179.756 154.53 179.685C152.745 177.81 150.659 176.225 148.353 174.994C148.266 174.945 148.17 174.913 148.07 174.901C147.97 174.888 147.869 174.895 147.772 174.92C147.674 174.946 147.583 174.99 147.504 175.05C147.424 175.109 147.358 175.184 147.308 175.268C147.231 175.401 147.197 175.553 147.21 175.705C147.222 175.857 147.281 176.001 147.379 176.121ZM159.442 193.994C159.525 194.078 159.624 194.143 159.735 194.187C159.845 194.23 159.964 194.25 160.083 194.245C160.184 194.237 160.281 194.21 160.371 194.165C160.46 194.12 160.539 194.058 160.603 193.983C160.667 193.908 160.715 193.822 160.744 193.728C160.773 193.635 160.782 193.537 160.771 193.44C160.725 192.705 160.629 191.946 160.535 191.163C160.235 189.388 159.683 187.662 158.895 186.034C158.813 185.857 158.662 185.719 158.474 185.65C158.287 185.581 158.079 185.587 157.896 185.666C157.714 185.746 157.571 185.892 157.5 186.073C157.429 186.255 157.435 186.456 157.517 186.633C158.231 188.148 158.735 189.748 159.013 191.392C159.109 192.104 159.203 192.841 159.25 193.555C159.265 193.715 159.332 193.867 159.442 193.988V193.994ZM132.618 174.877C132.725 174.994 132.867 175.077 133.023 175.116C133.18 175.154 133.346 175.146 133.498 175.093C135.767 174.222 138.218 173.891 140.646 174.128C140.746 174.137 140.847 174.127 140.943 174.099C141.039 174.07 141.128 174.024 141.205 173.962C141.282 173.9 141.346 173.824 141.393 173.738C141.44 173.652 141.469 173.558 141.478 173.461C141.488 173.364 141.477 173.267 141.448 173.174C141.418 173.081 141.37 172.995 141.306 172.92C141.242 172.845 141.164 172.783 141.075 172.738C140.986 172.692 140.889 172.664 140.789 172.655C138.118 172.39 135.421 172.753 132.926 173.713C132.832 173.749 132.746 173.802 132.673 173.87C132.6 173.938 132.542 174.019 132.502 174.109C132.462 174.199 132.441 174.296 132.44 174.394C132.439 174.492 132.459 174.589 132.497 174.68C132.515 174.761 132.556 174.836 132.615 174.896L132.618 174.877ZM156.398 208.277C156.457 208.328 156.52 208.375 156.587 208.415C156.672 208.47 156.767 208.507 156.867 208.523C156.967 208.54 157.07 208.536 157.168 208.513C157.266 208.489 157.359 208.445 157.439 208.385C157.519 208.325 157.585 208.249 157.633 208.162C158.995 205.964 159.938 203.546 160.414 201.024C160.45 200.83 160.405 200.63 160.289 200.468C160.173 200.306 159.996 200.195 159.795 200.159C159.697 200.142 159.596 200.144 159.499 200.165C159.401 200.186 159.309 200.225 159.227 200.281C159.145 200.337 159.076 200.407 159.023 200.489C158.97 200.571 158.934 200.663 158.917 200.758C158.464 203.104 157.586 205.354 156.326 207.405C156.241 207.538 156.201 207.693 156.214 207.849C156.227 208.005 156.291 208.153 156.398 208.27V208.277ZM121.937 185.108C122.002 185.174 122.077 185.228 122.161 185.268C122.248 185.314 122.344 185.343 122.442 185.352C122.541 185.362 122.641 185.353 122.736 185.325C122.83 185.297 122.919 185.252 122.995 185.191C123.072 185.13 123.135 185.055 123.182 184.97C124.369 182.852 125.839 180.895 127.553 179.149C127.625 179.079 127.681 178.995 127.719 178.903C127.756 178.812 127.774 178.714 127.772 178.615C127.77 178.516 127.747 178.419 127.705 178.329C127.664 178.239 127.604 178.158 127.529 178.091C127.457 178.025 127.373 177.972 127.28 177.937C127.188 177.902 127.089 177.886 126.99 177.888C126.891 177.89 126.793 177.911 126.702 177.95C126.611 177.989 126.529 178.045 126.461 178.115C124.654 179.958 123.105 182.023 121.853 184.256C121.773 184.389 121.739 184.544 121.756 184.697C121.773 184.85 121.839 184.994 121.946 185.108H121.937ZM18.4098 69.6409C18.4818 69.7201 18.5711 69.7829 18.6711 69.8247C18.7615 69.8676 18.8598 69.8927 18.9602 69.8985C19.0607 69.9043 19.1613 69.8907 19.2563 69.8585C19.3513 69.8263 19.4388 69.7761 19.5135 69.7109C19.5883 69.6457 19.649 69.5667 19.692 69.4786C20.7415 67.2611 21.9485 65.1167 23.3042 63.0608C23.4033 62.8933 23.432 62.6952 23.3842 62.5077C23.3364 62.3203 23.2158 62.1579 23.0476 62.0543C22.8793 61.9507 22.6763 61.9139 22.4807 61.9515C22.2851 61.9891 22.112 62.0982 21.9974 62.2561C20.623 64.3733 19.3853 66.5709 18.2914 68.8362C18.2327 68.9679 18.2126 69.1127 18.2335 69.2547C18.2544 69.3967 18.3154 69.5303 18.4098 69.6409ZM144.79 217.554C144.891 217.68 145.033 217.77 145.192 217.809C145.351 217.848 145.52 217.834 145.67 217.771C148.083 216.772 150.351 215.472 152.417 213.905C152.495 213.845 152.56 213.77 152.608 213.686C152.657 213.601 152.687 213.508 152.698 213.412C152.709 213.316 152.7 213.219 152.672 213.126C152.644 213.033 152.598 212.947 152.535 212.871C152.477 212.791 152.402 212.724 152.315 212.673C152.228 212.622 152.132 212.589 152.031 212.576C151.931 212.563 151.829 212.571 151.731 212.597C151.634 212.624 151.543 212.67 151.465 212.733C149.506 214.23 147.349 215.466 145.052 216.41C144.87 216.49 144.728 216.637 144.656 216.818C144.585 216.999 144.591 217.2 144.672 217.377C144.697 217.446 144.738 217.508 144.79 217.561V217.554ZM116.757 199.03C116.863 199.146 117.005 199.227 117.161 199.261C117.261 199.283 117.365 199.286 117.465 199.269C117.566 199.252 117.663 199.216 117.749 199.162C117.835 199.108 117.909 199.039 117.967 198.957C118.025 198.875 118.066 198.783 118.086 198.686C118.628 196.304 119.311 193.954 120.13 191.647C120.198 191.465 120.189 191.264 120.105 191.087C120.022 190.911 119.87 190.773 119.683 190.704C119.488 190.638 119.274 190.649 119.087 190.735C118.9 190.821 118.756 190.974 118.685 191.163C117.834 193.526 117.135 195.939 116.594 198.387C116.56 198.5 116.558 198.62 116.588 198.734C116.617 198.848 116.677 198.952 116.762 199.036L116.757 199.03ZM13.8012 83.7182C13.91 83.8562 14.0705 83.9471 14.248 83.9713C14.3465 83.9886 14.4476 83.9869 14.5454 83.9661C14.6432 83.9453 14.7357 83.9058 14.8176 83.8501C14.8995 83.7943 14.9692 83.7234 15.0225 83.6413C15.0758 83.5592 15.1117 83.4677 15.1282 83.3721C15.5972 80.9789 16.2073 78.6137 16.9555 76.288C17.014 76.099 16.9948 75.8953 16.902 75.7196C16.8092 75.5439 16.6499 75.4097 16.4573 75.3449C16.3623 75.3161 16.2623 75.3057 16.1631 75.3144C16.0639 75.3231 15.9675 75.3506 15.8793 75.3954C15.7911 75.4402 15.7129 75.5014 15.6492 75.5755C15.5855 75.6496 15.5375 75.7352 15.5079 75.8273C14.7306 78.2115 14.1039 80.6394 13.6315 83.0974C13.6085 83.2062 13.6114 83.3187 13.6401 83.4263C13.6687 83.5338 13.7223 83.6337 13.7968 83.7182H13.8012ZM129.937 221.015C130.018 221.11 130.121 221.184 130.237 221.232C130.354 221.28 130.481 221.3 130.607 221.29C133.18 221.033 135.734 220.627 138.256 220.072C138.356 220.052 138.452 220.012 138.536 219.956C138.621 219.9 138.693 219.828 138.748 219.744C138.803 219.661 138.841 219.567 138.858 219.469C138.876 219.371 138.873 219.271 138.85 219.174C138.797 218.986 138.672 218.824 138.499 218.721C138.327 218.619 138.121 218.584 137.923 218.623C135.466 219.171 132.974 219.562 130.464 219.795C130.325 219.809 130.192 219.859 130.08 219.94C129.968 220.02 129.88 220.129 129.826 220.254C129.772 220.378 129.754 220.515 129.774 220.649C129.793 220.783 129.85 220.91 129.937 221.015ZM114.827 213.723C114.892 213.804 114.975 213.868 115.07 213.912C115.165 213.956 115.269 213.978 115.374 213.977C115.579 213.985 115.779 213.915 115.931 213.781C116.082 213.648 116.173 213.461 116.183 213.263C116.252 210.847 116.467 208.387 116.775 205.926C116.787 205.829 116.78 205.73 116.753 205.636C116.726 205.542 116.68 205.453 116.618 205.376C116.555 205.299 116.478 205.235 116.39 205.187C116.302 205.139 116.205 205.109 116.105 205.097C115.904 205.082 115.705 205.14 115.547 205.26C115.388 205.381 115.282 205.554 115.249 205.746C114.941 208.253 114.726 210.76 114.63 213.222C114.632 213.406 114.699 213.585 114.82 213.728L114.827 213.723ZM12.6128 98.4855C12.6869 98.567 12.7784 98.6319 12.881 98.6756C12.9837 98.7193 13.0949 98.7408 13.207 98.7386C13.3079 98.7388 13.4078 98.7189 13.5004 98.6803C13.593 98.6416 13.6765 98.5849 13.7456 98.5137C13.8147 98.4426 13.868 98.3584 13.9021 98.2665C13.9363 98.1746 13.9506 98.0768 13.9442 97.9793C13.8973 95.4961 13.9665 93.0043 14.1676 90.6422C14.1749 90.5453 14.1621 90.4479 14.1301 90.3558C14.098 90.2638 14.0474 90.1788 13.981 90.1059C13.9147 90.033 13.834 89.9736 13.7436 89.9312C13.6533 89.8889 13.5552 89.8644 13.455 89.8592C13.3561 89.8491 13.256 89.8586 13.161 89.8871C13.066 89.9156 12.978 89.9626 12.9023 90.0251C12.8267 90.0876 12.7649 90.1644 12.7209 90.2508C12.6769 90.3372 12.6515 90.4314 12.6463 90.5276C12.4564 92.9653 12.3849 95.4724 12.4229 98.0032C12.4247 98.1807 12.4921 98.3518 12.6128 98.4855ZM170.042 281.724C170.115 281.809 170.206 281.877 170.308 281.925C170.411 281.973 170.523 281.999 170.636 282.001C173.236 281.957 175.828 281.696 178.381 281.22C178.48 281.202 178.573 281.165 178.657 281.112C178.74 281.059 178.812 280.99 178.869 280.91C178.925 280.83 178.964 280.74 178.984 280.645C179.005 280.55 179.005 280.452 178.987 280.357C178.968 280.262 178.93 280.171 178.875 280.09C178.82 280.009 178.749 279.94 178.666 279.885C178.584 279.831 178.491 279.793 178.393 279.773C178.295 279.753 178.194 279.753 178.095 279.771C175.629 280.23 173.125 280.476 170.614 280.506C170.514 280.508 170.415 280.529 170.323 280.568C170.231 280.608 170.149 280.664 170.08 280.735C170.011 280.806 169.958 280.889 169.923 280.98C169.888 281.072 169.872 281.169 169.877 281.266C169.877 281.432 169.936 281.594 170.042 281.724ZM14.181 113.207C14.2654 113.308 14.3761 113.384 14.5015 113.429C14.6268 113.473 14.7623 113.484 14.8936 113.461C14.9923 113.445 15.0867 113.41 15.1715 113.359C15.2562 113.307 15.3295 113.24 15.3871 113.161C15.4447 113.082 15.4855 112.993 15.507 112.898C15.5285 112.803 15.5303 112.706 15.5124 112.61C15.0656 110.149 14.7037 107.687 14.4424 105.319C14.4318 105.22 14.4012 105.125 14.3524 105.038C14.3037 104.951 14.2376 104.874 14.1581 104.812C14.0786 104.75 13.9872 104.704 13.8891 104.676C13.7911 104.648 13.6883 104.639 13.5868 104.65C13.3839 104.676 13.199 104.776 13.0708 104.931C12.9425 105.085 12.8809 105.281 12.8987 105.479C13.1847 107.895 13.5399 110.378 14.0157 112.863C14.031 112.992 14.089 113.113 14.181 113.207ZM115.499 228.543C115.578 228.638 115.682 228.712 115.799 228.757C115.917 228.801 116.045 228.815 116.17 228.796C116.27 228.785 116.368 228.756 116.457 228.708C116.545 228.66 116.623 228.596 116.686 228.519C116.748 228.442 116.794 228.353 116.82 228.258C116.847 228.163 116.853 228.065 116.84 227.967C116.553 225.808 116.394 223.635 116.364 221.459C118.573 221.597 120.758 221.675 122.896 221.675C122.997 221.674 123.097 221.653 123.191 221.615C123.284 221.576 123.368 221.52 123.439 221.45C123.51 221.379 123.565 221.296 123.603 221.205C123.64 221.114 123.659 221.016 123.658 220.918C123.652 220.724 123.57 220.54 123.428 220.402C123.287 220.265 123.096 220.186 122.896 220.18C120.425 220.18 117.885 220.089 115.301 219.906C115.099 219.889 114.9 219.949 114.744 220.074C114.589 220.198 114.49 220.377 114.47 220.572C114.456 220.708 114.482 220.845 114.545 220.967C114.608 221.089 114.706 221.191 114.827 221.262C114.854 223.569 115.02 225.873 115.325 228.162C115.349 228.307 115.415 228.443 115.515 228.554L115.499 228.543ZM155.006 279.375C155.096 279.477 155.21 279.555 155.339 279.604C157.789 280.428 160.309 281.043 162.869 281.445C162.969 281.463 163.072 281.461 163.171 281.44C163.271 281.418 163.364 281.377 163.447 281.318C163.529 281.26 163.598 281.187 163.65 281.102C163.701 281.017 163.734 280.922 163.747 280.824C163.779 280.632 163.733 280.436 163.617 280.277C163.502 280.118 163.328 280.008 163.13 279.972C160.653 279.576 158.214 278.983 155.837 278.201C155.742 278.168 155.641 278.155 155.54 278.16C155.44 278.166 155.341 278.191 155.25 278.234C155.16 278.277 155.079 278.337 155.012 278.41C154.946 278.483 154.895 278.569 154.863 278.661C154.819 278.782 154.81 278.911 154.835 279.037C154.86 279.162 154.919 279.279 155.006 279.375ZM99.489 218.928C99.588 219.051 99.7318 219.133 99.8911 219.157C102.411 219.711 104.953 220.148 107.486 220.516C107.585 220.532 107.686 220.528 107.783 220.506C107.88 220.483 107.972 220.441 108.052 220.383C108.132 220.325 108.199 220.252 108.249 220.168C108.299 220.084 108.33 219.991 108.342 219.895C108.359 219.798 108.357 219.699 108.334 219.603C108.311 219.507 108.268 219.416 108.208 219.337C108.148 219.257 108.072 219.19 107.985 219.14C107.898 219.089 107.801 219.056 107.701 219.042C105.208 218.699 102.688 218.238 100.217 217.708C100.021 217.675 99.8186 217.717 99.6525 217.824C99.4864 217.931 99.3687 218.095 99.3237 218.283C99.2882 218.396 99.285 218.516 99.3145 218.63C99.344 218.745 99.4051 218.849 99.4913 218.932L99.489 218.928ZM17.8625 127.607C17.9579 127.719 18.0861 127.801 18.2303 127.842C18.3745 127.883 18.5281 127.881 18.6711 127.836C18.8644 127.779 19.0269 127.651 19.1244 127.479C19.222 127.307 19.2469 127.106 19.1939 126.917C18.4098 124.525 17.7217 122.132 17.1275 119.809C17.104 119.714 17.0614 119.624 17.0021 119.545C16.9429 119.466 16.868 119.399 16.782 119.347C16.6959 119.296 16.6002 119.262 16.5004 119.246C16.4006 119.231 16.2987 119.235 16.2004 119.258C16.1022 119.28 16.0095 119.322 15.9277 119.379C15.8458 119.436 15.7765 119.509 15.7236 119.592C15.6707 119.676 15.6353 119.768 15.6194 119.865C15.6034 119.961 15.6073 120.06 15.6308 120.155C16.2473 122.535 16.9376 124.94 17.7217 127.354C17.7537 127.445 17.8013 127.531 17.8625 127.607ZM119.205 242.899C119.32 243.038 119.482 243.132 119.662 243.165C119.842 243.198 120.028 243.166 120.186 243.077C120.345 242.988 120.465 242.847 120.525 242.679C120.585 242.511 120.58 242.328 120.512 242.164C119.635 239.872 118.882 237.538 118.256 235.17C118.232 235.076 118.189 234.987 118.13 234.909C118.07 234.831 117.995 234.765 117.908 234.716C117.822 234.666 117.726 234.634 117.626 234.621C117.527 234.608 117.426 234.615 117.329 234.64C117.131 234.687 116.959 234.807 116.853 234.975C116.746 235.144 116.712 235.346 116.759 235.538C117.398 237.962 118.175 240.351 119.087 242.691C119.111 242.77 119.151 242.844 119.205 242.908V242.899ZM141.553 272.41C141.581 272.458 141.622 272.498 141.672 272.525C143.753 274.026 145.944 275.378 148.228 276.572C148.405 276.659 148.61 276.677 148.801 276.621C148.991 276.565 149.151 276.441 149.249 276.273C149.3 276.188 149.332 276.093 149.344 275.995C149.356 275.897 149.348 275.798 149.319 275.703C149.29 275.608 149.242 275.52 149.177 275.444C149.112 275.368 149.031 275.306 148.941 275.261C146.727 274.103 144.599 272.796 142.574 271.35C142.426 271.236 142.24 271.18 142.051 271.193C141.862 271.206 141.686 271.288 141.557 271.422C141.428 271.556 141.356 271.732 141.355 271.915C141.354 272.099 141.425 272.275 141.553 272.41ZM126.041 256.146C126.162 256.281 126.329 256.37 126.513 256.396C126.696 256.421 126.882 256.382 127.037 256.284C127.124 256.234 127.198 256.168 127.257 256.09C127.316 256.011 127.358 255.922 127.38 255.828C127.403 255.733 127.405 255.635 127.387 255.539C127.369 255.444 127.332 255.353 127.276 255.272C125.914 253.211 124.662 251.084 123.524 248.899C123.48 248.812 123.419 248.733 123.344 248.668C123.268 248.603 123.181 248.554 123.086 248.522C122.991 248.49 122.89 248.476 122.79 248.482C122.689 248.488 122.591 248.513 122.5 248.556C122.319 248.648 122.182 248.806 122.12 248.996C122.058 249.185 122.075 249.391 122.168 249.568C123.322 251.802 124.599 253.975 125.994 256.077C126.017 256.1 126.041 256.124 126.041 256.146ZM131.646 263.438C132.953 264.911 134.356 266.336 135.756 267.671C135.905 267.806 136.103 267.88 136.308 267.875C136.512 267.871 136.706 267.789 136.849 267.647C136.918 267.578 136.972 267.496 137.009 267.407C137.045 267.317 137.063 267.222 137.061 267.125C137.059 267.029 137.037 266.934 136.997 266.846C136.956 266.758 136.898 266.679 136.826 266.613C135.021 264.904 133.315 263.099 131.717 261.205C131.656 261.124 131.577 261.056 131.487 261.005C131.397 260.954 131.297 260.921 131.194 260.908C131.09 260.896 130.985 260.904 130.885 260.932C130.785 260.96 130.692 261.008 130.611 261.072C130.531 261.136 130.464 261.215 130.416 261.305C130.368 261.394 130.34 261.493 130.332 261.593C130.325 261.694 130.339 261.795 130.373 261.891C130.407 261.986 130.461 262.074 130.531 262.148C130.886 262.581 131.266 262.998 131.648 263.435L131.646 263.438ZM23.1858 141.524C23.2879 141.648 23.4288 141.736 23.5873 141.775C23.7458 141.814 23.9131 141.802 24.0638 141.741C24.2482 141.662 24.3938 141.518 24.4694 141.337C24.5449 141.156 24.5445 140.954 24.4681 140.774C23.4472 138.472 22.5201 136.149 21.64 133.895C21.6057 133.805 21.5532 133.721 21.4855 133.651C21.4179 133.58 21.3365 133.523 21.246 133.482C21.1554 133.442 21.0576 133.42 20.9581 133.416C20.8585 133.413 20.7593 133.429 20.666 133.462C20.4746 133.534 20.3201 133.675 20.2364 133.857C20.1527 134.038 20.1465 134.244 20.2192 134.429C21.0748 136.707 22.0488 139.03 23.0473 141.351C23.0807 141.422 23.1295 141.485 23.1903 141.535L23.1858 141.524ZM84.7833 214.742C84.8644 214.84 84.9708 214.914 85.0916 214.959C87.4215 215.811 89.8676 216.616 92.4098 217.338C92.605 217.392 92.8142 217.369 92.9919 217.274C93.1697 217.179 93.3016 217.02 93.3592 216.832C93.3893 216.74 93.4003 216.643 93.3915 216.546C93.3827 216.45 93.3544 216.356 93.3081 216.271C93.2618 216.185 93.1984 216.109 93.1217 216.047C93.045 215.986 92.9564 215.939 92.8611 215.91C90.3435 215.199 87.9197 214.416 85.6389 213.566C85.447 213.498 85.2353 213.505 85.0488 213.585C84.8623 213.666 84.7157 213.814 84.6403 213.998C84.5975 214.126 84.5882 214.263 84.6132 214.395C84.6381 214.528 84.6966 214.652 84.7833 214.757V214.742ZM29.7423 154.935C29.8545 155.067 30.0103 155.157 30.1832 155.191C30.3562 155.224 30.5358 155.199 30.6917 155.119C30.8666 155.02 30.9958 154.86 31.0531 154.672C31.1104 154.484 31.0914 154.282 31 154.107C29.8116 151.92 28.6723 149.69 27.6045 147.505C27.5608 147.417 27.4996 147.339 27.4246 147.274C27.3495 147.209 27.262 147.159 27.167 147.127C27.0719 147.095 26.9713 147.081 26.8708 147.087C26.7704 147.092 26.672 147.117 26.5814 147.159C26.3969 147.243 26.2538 147.393 26.1828 147.578C26.1118 147.763 26.1185 147.968 26.2016 148.148C27.294 150.356 28.4578 152.588 29.6463 154.797C29.6667 154.85 29.6996 154.897 29.7423 154.935ZM37.3666 167.816C37.4831 167.951 37.6467 168.04 37.8263 168.065C38.006 168.091 38.189 168.052 38.3406 167.955C38.4278 167.906 38.504 167.841 38.5646 167.764C38.6252 167.686 38.6691 167.597 38.6934 167.503C38.7178 167.408 38.7223 167.31 38.7066 167.214C38.6909 167.117 38.6553 167.025 38.602 166.943C37.2482 164.849 35.9414 162.709 34.6837 160.594C34.5814 160.425 34.4146 160.301 34.2192 160.249C34.0239 160.197 33.8153 160.222 33.6382 160.317C33.5495 160.364 33.4714 160.428 33.4086 160.505C33.3459 160.582 33.2998 160.67 33.2731 160.764C33.2465 160.859 33.2397 160.958 33.2533 161.055C33.2669 161.152 33.3006 161.245 33.3523 161.329C34.6122 163.469 35.9414 165.608 37.2951 167.723C37.3197 167.747 37.3443 167.793 37.3666 167.816ZM71.2191 207.888C71.266 207.909 71.3151 207.955 71.362 207.978C73.4437 209.487 75.6621 210.809 77.99 211.93C78.1761 212.017 78.3898 212.029 78.5853 211.965C78.7807 211.901 78.9424 211.765 79.0355 211.586C79.1267 211.412 79.143 211.21 79.0806 211.024C79.0182 210.839 78.8823 210.684 78.7026 210.596C76.4478 209.513 74.2937 208.244 72.2645 206.802C72.185 206.743 72.0941 206.699 71.9972 206.674C71.9003 206.649 71.7992 206.643 71.6998 206.656C71.6004 206.668 71.5046 206.7 71.4179 206.749C71.3312 206.798 71.2552 206.863 71.1945 206.94C71.0942 207.079 71.0425 207.246 71.047 207.416C71.0514 207.585 71.1117 207.749 71.2191 207.883V207.888ZM45.9202 180.146C46.0421 180.289 46.2165 180.381 46.4068 180.402C46.5971 180.424 46.7886 180.373 46.9411 180.261C47.0229 180.204 47.0921 180.131 47.1448 180.048C47.1974 179.965 47.2325 179.873 47.2479 179.776C47.2633 179.68 47.2587 179.581 47.2344 179.487C47.2101 179.392 47.1666 179.303 47.1064 179.225C45.6343 177.248 44.1621 175.199 42.7369 173.153C42.682 173.07 42.6105 172.998 42.5266 172.943C42.4427 172.887 42.3482 172.848 42.2485 172.828C42.1488 172.808 42.046 172.808 41.9462 172.827C41.8464 172.847 41.7516 172.885 41.6674 172.94C41.5832 172.996 41.5114 173.067 41.456 173.15C41.4007 173.232 41.3631 173.325 41.3453 173.422C41.3275 173.519 41.3301 173.618 41.3527 173.714C41.3753 173.811 41.4176 173.901 41.477 173.981C42.9022 176.051 44.381 178.091 45.871 180.098C45.871 180.122 45.8956 180.122 45.9202 180.146ZM60.3378 197.466H60.3623C62.1204 199.352 63.9031 201.169 65.6611 202.873C65.8039 203.008 65.9956 203.084 66.1951 203.084C66.3947 203.084 66.5863 203.008 66.729 202.873C66.8717 202.738 66.9542 202.554 66.9587 202.361C66.9633 202.168 66.8897 201.981 66.7535 201.84C65.0178 200.137 63.2374 198.342 61.5039 196.479C61.3636 196.335 61.1706 196.249 60.9661 196.241C60.7616 196.232 60.5617 196.302 60.4092 196.434C60.2624 196.564 60.173 196.745 60.1597 196.937C60.1464 197.13 60.2101 197.32 60.3378 197.468V197.466ZM55.3249 191.855C55.3886 191.929 55.4669 191.99 55.5552 192.035C55.6434 192.08 55.74 192.107 55.8393 192.116C55.9385 192.124 56.0385 192.113 56.1335 192.084C56.2285 192.055 56.3166 192.008 56.3927 191.946C56.5427 191.818 56.6364 191.64 56.6542 191.447C56.6721 191.255 56.6129 191.063 56.4888 190.912C54.8736 189.047 53.2563 187.115 51.6903 185.136C51.5617 184.987 51.3786 184.892 51.1791 184.871C50.9797 184.849 50.7795 184.903 50.6203 185.022C50.5405 185.08 50.4734 185.154 50.423 185.238C50.3726 185.322 50.3398 185.415 50.3266 185.511C50.3133 185.607 50.3198 185.705 50.3456 185.799C50.3715 185.893 50.4163 185.981 50.4773 186.058C52.0701 188.035 53.6852 189.99 55.3003 191.855H55.3249Z" fill="white"/>
<path d="M51.7504 5.789C51.632 6.34058 45.0264 21.1101 45.0264 21.1101C51.4176 32.6328 57.047 42.663 63.8425 54.3717L62.3212 57.4303L55.2889 50.3916C54.6969 51.1055 53.6269 52.2324 53.1511 51.9794C52.6753 51.7263 53.3901 49.9309 53.8213 48.9186L49.8628 44.9407C49.8628 44.9407 47.9148 47.4239 47.2491 47.1038C46.5834 46.7836 48.2477 43.3314 48.2477 43.3314L44.707 39.7904C44.707 39.7904 42.5691 42.3428 41.7135 41.7372C40.858 41.1315 42.5446 37.504 42.5446 37.504L39.1937 33.7771C36.1664 40.6531 32.724 47.3507 28.8843 53.8353L34.0379 64.6918L32.3759 67.2009C24.3338 56.7338 25.415 57.8153 12.588 58.7649L12.7779 55.9356L24.7203 51.9967C24.7203 51.9967 25.004 50.7789 26.2393 47.651C27.4747 44.5232 32.941 31.3631 32.941 31.3631L28.0711 31.7092C28.0711 31.7092 26.3131 35.3431 25.6496 35.2285C24.9861 35.1138 26.0964 31.3631 26.0964 31.3631L19.8951 31.2484C19.8951 31.2484 18.6128 34.4238 17.8846 34.1253C17.1563 33.8268 17.7908 31.2722 17.7908 31.2722L12.588 31.203C11.9871 32.1785 10.9751 33.71 10.4993 33.4764C10.095 33.2925 10.2625 32.0725 10.4747 31.1749L0 31.0602L1.30459 27.1667C14.6789 24.3915 26.5074 22.0488 39.292 18.4127C45.2543 6.49848 46.2171 4.42843 46.2171 4.42843C50.1465 -1.07012 53.5376 -2.33552 51.7504 5.789Z" fill="white"/>
</svg>
