<svg width="152" height="130" viewBox="0 0 152 130" fill="none" xmlns="http://www.w3.org/2000/svg">
<path d="M115 70.1141V60.8859C115 59.0769 113.57 57.6104 111.805 57.6104H108.363C106.987 57.6104 105.765 56.7062 105.333 55.3665C104.851 53.8741 104.265 52.4302 103.585 51.0435C102.965 49.7806 103.202 48.2538 104.177 47.2541L106.613 44.757C107.86 43.4778 107.86 41.4039 106.613 40.1247L100.249 33.5994C99.001 32.3202 96.9783 32.3202 95.7307 33.5994L93.2952 36.0965C92.3201 37.0962 90.8311 37.3392 89.5993 36.7039C88.247 36.0064 86.8386 35.406 85.3831 34.9118C84.0765 34.4682 83.1946 33.216 83.1946 31.8048V28.2755C83.1946 26.4665 81.7643 25 80 25H70.9997C69.2353 25 67.805 26.4665 67.805 28.2755V31.805C67.805 33.2162 66.9232 34.4684 65.6166 34.912C64.161 35.4061 62.7527 36.0065 61.4003 36.7041C60.1686 37.3394 58.6795 37.0962 57.7045 36.0967L55.269 33.5995C54.0214 32.3203 51.9987 32.3203 50.751 33.5995L44.3872 40.1248C43.1395 41.404 43.1395 43.4779 44.3872 44.7572L46.8227 47.2543C47.7975 48.254 48.0347 49.7808 47.4151 51.0437C46.7348 52.4303 46.1492 53.8743 45.6672 55.3667C45.3614 56.3134 44.6618 57.0426 43.7921 57.3889C43.4311 57.5327 43.1996 57.7734 42.7959 57.7734H39.3536C37.5892 57.7734 36.1589 59.2399 36.1589 61.0489V69.9511C36.1589 71.7601 37.5892 73.2266 39.3536 73.2266H42.7959C44.1723 73.2266 45.3935 74.2938 45.8262 75.6335C46.3081 77.1259 46.8937 78.5697 47.574 79.9565C48.1936 81.2194 47.9565 82.7462 46.9816 83.7459L44.7051 86.243C43.4575 87.5222 43.4575 89.5961 44.7051 90.8753L50.7514 97.0747C51.999 98.3539 54.0217 98.3539 55.2693 97.0747L57.7048 94.5775C58.6797 93.5778 60.1689 93.3348 61.4006 93.9701C62.753 94.6677 64.4792 95.431 65.9348 95.9252C67.2414 96.3688 68.1233 97.621 68.1233 99.0322V102.562C68.1233 104.371 69.5535 105.837 71.3179 105.837H79.8413C81.6057 105.837 83.036 104.371 83.036 102.562V99.0322C83.036 98.6182 83.2708 98.3809 83.4109 98.0108C83.7487 97.119 84.46 96.4017 85.3832 96.0882C86.8388 95.594 88.2471 94.9936 89.5995 94.2961C90.8312 93.6608 92.3203 93.9039 93.2953 94.9035L95.7308 97.4006C96.9784 98.6798 99.0011 98.6798 100.249 97.4006L106.613 90.8753C107.861 89.5961 107.861 87.5222 106.613 86.243L104.177 83.7459C103.203 82.7462 102.965 81.2194 103.585 79.9565C104.265 78.5698 104.851 77.1259 105.333 75.6335C105.766 74.2938 106.987 73.3896 108.363 73.3896H111.805C113.57 73.3896 115 71.9231 115 70.1141V70.1141Z" fill="#B6C4CF"/>
<path d="M83.4111 98.0108C83.2712 98.3807 83.1949 98.7817 83.1949 99.1956V102.724C83.1949 104.533 81.7644 106 80 106H71C69.2356 106 67.805 104.533 67.805 102.724V99.1956C67.805 97.7842 66.9229 96.5309 65.6163 96.0876C64.1618 95.5938 62.7535 94.9941 61.4008 94.2965C60.1689 93.6609 58.6795 93.9037 57.7051 94.9028L55.27 97.3996C54.0222 98.679 51.9987 98.679 50.7509 97.3996L44.3864 90.8756C43.1402 89.5962 43.1402 87.5215 44.3864 86.2421L46.8232 83.7453C47.7975 82.7463 48.0344 81.2192 47.4145 79.9561C46.7341 78.5692 46.1492 77.1252 45.6676 75.6339C45.2352 74.2942 44.0129 73.3897 42.6363 73.3897H39.195C37.4306 73.3897 36 71.9229 36 70.1139V60.8861C36 59.077 37.4306 57.6102 39.195 57.6102H42.6363C43.0401 57.6102 43.4311 57.532 43.7919 57.3885C43.7887 57.5923 43.7871 57.7976 43.7871 58.003C43.7871 80.1011 61.2593 98.0157 82.8119 98.0157C83.0121 98.0157 83.2124 98.014 83.4111 98.0108V98.0108Z" fill="#9FACBA"/>
<path d="M75.5001 92.3913C89.985 92.3913 101.727 80.3517 101.727 65.5C101.727 50.6483 89.985 38.6086 75.5001 38.6086C61.0151 38.6086 49.2727 50.6483 49.2727 65.5C49.2727 80.3517 61.0151 92.3913 75.5001 92.3913Z" fill="#9FACBA"/>
<path d="M75.4999 86.6871C86.9123 86.6871 96.1639 77.2013 96.1639 65.5C96.1639 53.7987 86.9123 44.3129 75.4999 44.3129C64.0875 44.3129 54.8359 53.7987 54.8359 65.5C54.8359 77.2013 64.0875 86.6871 75.4999 86.6871Z" fill="#F8F7F7"/>
</svg>
